<?xml version="1.0" encoding="UTF-8" standalone="no"?>
<svg
   xmlns:dc="http://purl.org/dc/elements/1.1/"
   xmlns:cc="http://creativecommons.org/ns#"
   xmlns:rdf="http://www.w3.org/1999/02/22-rdf-syntax-ns#"
   xmlns:svg="http://www.w3.org/2000/svg"
   xmlns="http://www.w3.org/2000/svg"
   xmlns:sodipodi="http://sodipodi.sourceforge.net/DTD/sodipodi-0.dtd"
   xmlns:inkscape="http://www.inkscape.org/namespaces/inkscape"
   width="32"
   height="32"
   version="1.1"
   id="svg12"
   sodipodi:docname="konv_message.svg"
   inkscape:version="1.0.2 (e86c870879, 2021-01-15)">
  <metadata
     id="metadata18">
    <rdf:RDF>
      <cc:Work
         rdf:about="">
        <dc:format>image/svg+xml</dc:format>
        <dc:type
           rdf:resource="http://purl.org/dc/dcmitype/StillImage" />
      </cc:Work>
    </rdf:RDF>
  </metadata>
  <defs
     id="defs16" />
  <sodipodi:namedview
     pagecolor="#ffffff"
     bordercolor="#666666"
     borderopacity="1"
     objecttolerance="10"
     gridtolerance="10"
     guidetolerance="10"
     inkscape:pageopacity="0"
     inkscape:pageshadow="2"
     inkscape:window-width="1920"
     inkscape:window-height="1014"
     id="namedview14"
     showgrid="false"
     inkscape:zoom="9.8125"
     inkscape:cx="26.993963"
     inkscape:cy="20.181893"
     inkscape:window-x="0"
     inkscape:window-y="0"
     inkscape:window-maximized="1"
     inkscape:current-layer="svg12"
     inkscape:document-rotation="0">
    <inkscape:grid
       type="xygrid"
       id="grid887"
       originx="0"
       originy="0" />
  </sodipodi:namedview>
  <g
     id="g990">
    <g
       id="koversation">
      <rect
         style="opacity:0.00100002"
         width="32"
         height="32"
         x="0"
         y="0"
         id="rect7" />
      <path
         d="M 28.32695,6.0000001 H 12.603264 c -0.88756,0 -1.60747,0.7192937 -1.60747,1.6071621 V 7.7936115 H 4.211813 C 2.992034,7.7936115 2,8.7862614 2,10.005732 v 9.412454 c 0,1.219471 0.992342,2.212121 2.211813,2.212121 h 0.523599 c -0.08321,0.904818 -0.37783,2.218901 -1.311001,3.347458 L 2.57938,26 3.889148,25.791054 c 0.202474,-0.03267 4.782039,-0.802194 5.651109,-4.161055 h 11.415936 c 1.219471,0 2.212121,-0.99265 2.212121,-2.212121 v -1.364932 h 0.537467 c 0.49463,3.1946 4.998074,3.912353 4.998074,3.912353 -1.152287,-1.393285 -1.348598,-3.053146 -1.364316,-3.912353 h 0.987411 c 0.887869,0 1.607471,-0.719602 1.607471,-1.607471 V 7.6071622 c 0,-0.8878684 -0.719602,-1.6071621 -1.607471,-1.6071621 z M 22.167035,19.418494 c 0,0.667828 -0.543322,1.21115 -1.210842,1.21115 H 8.703854 l -0.06533,0.423749 C 8.33096,23.040233 6.294194,24.037506 4.94313,24.486217 5.61219,23.198022 5.750563,21.89904 5.764739,21.139375 l 0.0092,-0.509423 h -1.56186 c -0.667519,0 -1.210842,-0.543322 -1.210842,-1.21115 v -9.41307 c 0,-0.6678272 0.543323,-1.2111497 1.210842,-1.2111497 h 16.74438 c 0.66752,0 1.210842,0.5433225 1.210842,1.2111497 v 9.412762 z"
         id="path2-3"
         style="fill:#000000;fill-opacity:1;stroke-width:0.308181" />
      <path
         d="m 7.343545,11.981139 c -1.049355,0 -1.902708,0.853661 -1.902708,1.903016 0,1.049047 0.853353,1.903016 1.902708,1.903016 1.049355,0 1.903015,-0.853969 1.903015,-1.903016 0,-1.049355 -0.85366,-1.903016 -1.903015,-1.903016 z m 0,2.804753 c -0.496787,0 -0.901737,-0.404641 -0.901737,-0.901429 0,-0.497403 0.404641,-0.901736 0.901737,-0.901736 0.497403,0 0.901736,0.404333 0.901736,0.901736 0,0.496788 -0.404333,0.901429 -0.901736,0.901429 z"
         id="path4"
         style="fill:#44afee;fill-opacity:1;stroke-width:0.308181" />
      <path
         d="m 12.240227,11.981139 c -1.049355,0 -1.903015,0.853661 -1.903015,1.903016 0,1.049047 0.85366,1.903016 1.903015,1.903016 1.049356,0 1.903016,-0.853969 1.903016,-1.903016 0,-1.049355 -0.85366,-1.903016 -1.903016,-1.903016 z m 0,2.804753 c -0.497403,0 -0.901736,-0.404641 -0.901736,-0.901429 0,-0.497403 0.404333,-0.901736 0.901736,-0.901736 0.497096,0 0.901737,0.404333 0.901737,0.901736 3.08e-4,0.496788 -0.404333,0.901429 -0.901737,0.901429 z"
         id="path6"
         style="fill:#44afee;fill-opacity:1;stroke-width:0.308181" />
      <path
         d="m 17.136602,11.981139 c -1.049047,0 -1.903016,0.853661 -1.903016,1.903016 0,1.049047 0.853969,1.903016 1.903016,1.903016 1.049355,0 1.903324,-0.853969 1.903324,-1.903016 0,-1.049355 -0.853969,-1.903016 -1.903324,-1.903016 z m 0,2.804753 c -0.497095,0 -0.901737,-0.404641 -0.901737,-0.901429 0,-0.497403 0.404642,-0.901736 0.901737,-0.901736 0.497404,0 0.902045,0.404333 0.902045,0.901736 0,0.496788 -0.404641,0.901429 -0.902045,0.901429 z"
         id="path8"
         style="fill:#44afee;fill-opacity:1;stroke-width:0.308181" />
    </g>
  </g>
  <g
     id="22-22-konv_message">
    <rect
       style="opacity:0.00100002"
       width="22"
       height="22"
       x="32"
       y="10"
       id="rect2" />
    <path
       d="M 51.678866,14 H 40.672287 c -0.621297,0 -1.125233,0.50351 -1.125233,1.125014 v 0.130514 h -4.748781 c -0.85385,0 -1.548273,0.694855 -1.548273,1.548484 v 6.588718 c 0,0.85363 0.694639,1.548485 1.548273,1.548485 h 0.366519 c -0.05826,0.633373 -0.26449,1.553231 -0.917701,2.34322 L 33.655562,28 34.572405,27.853738 c 0.141733,-0.02287 3.347422,-0.561537 3.955775,-2.912738 h 7.991153 c 0.853634,0 1.548483,-0.694855 1.548483,-1.548485 v -0.955452 h 0.376226 c 0.346249,2.236219 3.498656,2.738647 3.498656,2.738647 -0.8066,-0.9753 -0.944018,-2.137202 -0.955022,-2.738647 h 0.69119 c 0.621512,0 1.125232,-0.503722 1.125232,-1.12523 V 15.125014 C 52.804098,14.50351 52.300378,14 51.678866,14 Z m -4.311942,9.392946 c 0,0.467479 -0.380329,0.847804 -0.847591,0.847804 h -8.576636 l -0.0457,0.296624 c -0.215315,1.390788 -1.641049,2.08888 -2.586799,2.402977 0.468346,-0.901736 0.565204,-1.811024 0.575127,-2.342789 l 0.007,-0.356596 h -1.093342 c -0.467264,0 -0.847586,-0.380326 -0.847586,-0.847805 v -6.589149 c 0,-0.467479 0.380322,-0.847804 0.847586,-0.847804 H 46.52 c 0.467264,0 0.847589,0.380325 0.847589,0.847804 v 6.588934 z"
       id="path2-3-6"
       style="fill:#000000;fill-opacity:1;stroke-width:0.215722" />
    <path
       d="m 36.990482,18.186797 c -0.734552,0 -1.331896,0.597563 -1.331896,1.332112 0,0.734333 0.597344,1.33211 1.331896,1.33211 0.734548,0 1.332109,-0.597777 1.332109,-1.33211 0,-0.734549 -0.597561,-1.332112 -1.332109,-1.332112 z m 0,1.963327 c -0.347753,0 -0.631214,-0.283249 -0.631214,-0.631 0,-0.348182 0.283246,-0.631215 0.631214,-0.631215 0.348183,0 0.631217,0.283033 0.631217,0.631215 0,0.347751 -0.283034,0.631 -0.631217,0.631 z"
       id="path4-7"
       style="fill:#44afee;fill-opacity:1;stroke-width:0.215722" />
    <path
       d="m 40.418162,18.186797 c -0.734549,0 -1.33211,0.597563 -1.33211,1.332112 0,0.734333 0.597561,1.33211 1.33211,1.33211 0.734541,0 1.33211,-0.597777 1.33211,-1.33211 0,-0.734549 -0.597569,-1.332112 -1.33211,-1.332112 z m 0,1.963327 c -0.348183,0 -0.631213,-0.283249 -0.631213,-0.631 0,-0.348182 0.28303,-0.631215 0.631213,-0.631215 0.347963,0 0.631213,0.283033 0.631213,0.631215 2.18e-4,0.347751 -0.283033,0.631 -0.631213,0.631 z"
       id="path6-5"
       style="fill:#44afee;fill-opacity:1;stroke-width:0.215722" />
    <path
       d="m 43.845622,18.186797 c -0.734336,0 -1.332116,0.597563 -1.332116,1.332112 0,0.734333 0.59778,1.33211 1.332116,1.33211 0.734546,0 1.332325,-0.597777 1.332325,-1.33211 0,-0.734549 -0.597779,-1.332112 -1.332325,-1.332112 z m 0,1.963327 c -0.347972,0 -0.631214,-0.283249 -0.631214,-0.631 0,-0.348182 0.283242,-0.631215 0.631214,-0.631215 0.348184,0 0.631432,0.283033 0.631432,0.631215 0,0.347751 -0.283248,0.631 -0.631432,0.631 z"
       id="path8-3"
       style="fill:#44afee;fill-opacity:1;stroke-width:0.215722" />
  </g>
</svg>
