<?xml version="1.0" encoding="UTF-8" standalone="no"?>
<svg
   xmlns:dc="http://purl.org/dc/elements/1.1/"
   xmlns:cc="http://creativecommons.org/ns#"
   xmlns:rdf="http://www.w3.org/1999/02/22-rdf-syntax-ns#"
   xmlns:svg="http://www.w3.org/2000/svg"
   xmlns="http://www.w3.org/2000/svg"
   xmlns:sodipodi="http://sodipodi.sourceforge.net/DTD/sodipodi-0.dtd"
   xmlns:inkscape="http://www.inkscape.org/namespaces/inkscape"
   width="32"
   height="32"
   version="1.1"
   id="svg12"
   sodipodi:docname="konversation.svg"
   inkscape:version="1.0.2 (e86c870879, 2021-01-15)">
  <metadata
     id="metadata18">
    <rdf:RDF>
      <cc:Work
         rdf:about="">
        <dc:format>image/svg+xml</dc:format>
        <dc:type
           rdf:resource="http://purl.org/dc/dcmitype/StillImage" />
      </cc:Work>
    </rdf:RDF>
  </metadata>
  <defs
     id="defs16" />
  <sodipodi:namedview
     pagecolor="#ffffff"
     bordercolor="#666666"
     borderopacity="1"
     objecttolerance="10"
     gridtolerance="10"
     guidetolerance="10"
     inkscape:pageopacity="0"
     inkscape:pageshadow="2"
     inkscape:window-width="1920"
     inkscape:window-height="1014"
     id="namedview14"
     showgrid="false"
     inkscape:zoom="9.8125"
     inkscape:cx="37.044586"
     inkscape:cy="13.208171"
     inkscape:window-x="0"
     inkscape:window-y="0"
     inkscape:window-maximized="1"
     inkscape:current-layer="svg12"
     inkscape:document-rotation="0"
     inkscape:lockguides="true">
    <inkscape:grid
       type="xygrid"
       id="grid859"
       originx="0"
       originy="0" />
  </sodipodi:namedview>
  <g
     id="g976">
    <rect
       style="opacity:0.00100002"
       width="32"
       height="32"
       x="0"
       y="0"
       id="rect7" />
    <circle
       fill="none"
       stroke-width="0.957987"
       stroke-linecap="round"
       stroke-linejoin="round"
       stroke-miterlimit="10"
       cx="9.4734268"
       cy="12.526128"
       r="1.4968543"
       id="circle8" />
    <circle
       fill="none"
       stroke-width="0.957987"
       stroke-linecap="round"
       stroke-linejoin="round"
       stroke-miterlimit="10"
       cx="16.079851"
       cy="12.526128"
       r="1.4968543"
       id="circle10" />
    <circle
       fill="none"
       stroke-width="0.957987"
       stroke-linecap="round"
       stroke-linejoin="round"
       stroke-miterlimit="10"
       cx="22.686275"
       cy="12.526128"
       r="1.4968543"
       id="circle12" />
    <path
       d="M 28.32695,6 H 12.603264 c -0.88756,0 -1.60747,0.7192937 -1.60747,1.6071621 V 7.7936114 H 4.211813 C 2.992034,7.7936114 2,8.7862613 2,10.005732 v 9.412454 c 0,1.219471 0.992342,2.212121 2.211813,2.212121 h 0.523599 c -0.08321,0.904818 -0.37783,2.218901 -1.311001,3.347458 L 2.57938,26 3.889148,25.791054 c 0.202474,-0.03267 4.782039,-0.802194 5.651109,-4.161055 h 11.415936 c 1.219471,0 2.212121,-0.99265 2.212121,-2.212121 v -1.364932 h 0.537467 c 0.49463,3.1946 4.998074,3.912353 4.998074,3.912353 -1.152287,-1.393285 -1.348598,-3.053146 -1.364316,-3.912353 h 0.987411 c 0.887869,0 1.607471,-0.719602 1.607471,-1.607471 V 7.6071621 C 29.934421,6.7192937 29.214819,6 28.32695,6 Z m -6.159915,13.418494 c 0,0.667828 -0.543322,1.21115 -1.210842,1.21115 H 8.703854 l -0.06533,0.423749 C 8.33096,23.040233 6.294194,24.037506 4.94313,24.486217 5.61219,23.198022 5.750563,21.89904 5.764739,21.139375 l 0.0092,-0.509423 h -1.56186 c -0.667519,0 -1.210842,-0.543322 -1.210842,-1.21115 v -9.41307 c 0,-0.6678273 0.543323,-1.2111498 1.210842,-1.2111498 h 16.74438 c 0.66752,0 1.210842,0.5433225 1.210842,1.2111498 v 9.412762 z"
       id="path2-3"
       style="fill:#000000;fill-opacity:1;stroke-width:0.308181" />
  </g>
  <g
     id="konversation">
    <rect
       style="opacity:0.00100002"
       width="22"
       height="22"
       x="32"
       y="10"
       id="rect2" />
    <circle
       fill="none"
       stroke-width="0.583122"
       stroke-linecap="round"
       stroke-linejoin="round"
       stroke-miterlimit="10"
       cx="38.948956"
       cy="19.027599"
       r="0.91112864"
       id="circle8-5" />
    <circle
       fill="none"
       stroke-width="0.583122"
       stroke-linecap="round"
       stroke-linejoin="round"
       stroke-miterlimit="10"
       cx="42.970257"
       cy="19.027599"
       r="0.91112864"
       id="circle10-6" />
    <circle
       fill="none"
       stroke-width="0.583122"
       stroke-linecap="round"
       stroke-linejoin="round"
       stroke-miterlimit="10"
       cx="46.991558"
       cy="19.027599"
       r="0.91112864"
       id="circle12-2" />
    <path
       d="M 51.678866,14 H 40.672287 c -0.621297,0 -1.125233,0.50351 -1.125233,1.125014 v 0.130514 h -4.748781 c -0.85385,0 -1.548273,0.694855 -1.548273,1.548484 v 6.588718 c 0,0.85363 0.694639,1.548485 1.548273,1.548485 h 0.366519 c -0.05826,0.633373 -0.26449,1.553231 -0.917701,2.34322 L 33.655562,28 34.572405,27.853738 c 0.141733,-0.02287 3.347422,-0.561537 3.955775,-2.912738 h 7.991153 c 0.853634,0 1.548483,-0.694855 1.548483,-1.548485 v -0.955452 h 0.376226 c 0.346249,2.236219 3.498656,2.738647 3.498656,2.738647 -0.8066,-0.9753 -0.944018,-2.137202 -0.955022,-2.738647 h 0.69119 c 0.621512,0 1.125232,-0.503722 1.125232,-1.12523 V 15.125014 C 52.804098,14.50351 52.300378,14 51.678866,14 Z m -4.311942,9.392946 c 0,0.467479 -0.380329,0.847804 -0.847591,0.847804 h -8.576636 l -0.0457,0.296624 c -0.215315,1.390788 -1.641049,2.08888 -2.586799,2.402977 0.468346,-0.901736 0.565204,-1.811024 0.575127,-2.342789 l 0.007,-0.356596 h -1.093342 c -0.467264,0 -0.847586,-0.380326 -0.847586,-0.847805 v -6.589149 c 0,-0.467479 0.380322,-0.847804 0.847586,-0.847804 H 46.52 c 0.467264,0 0.847589,0.380325 0.847589,0.847804 v 6.588934 z"
       id="path2-3-6"
       style="fill:#000000;fill-opacity:1;stroke-width:0.215722" />
  </g>
</svg>
