<?xml version="1.0" encoding="UTF-8" standalone="no"?>
<svg
   xmlns:dc="http://purl.org/dc/elements/1.1/"
   xmlns:cc="http://creativecommons.org/ns#"
   xmlns:rdf="http://www.w3.org/1999/02/22-rdf-syntax-ns#"
   xmlns:svg="http://www.w3.org/2000/svg"
   xmlns="http://www.w3.org/2000/svg"
   xmlns:sodipodi="http://sodipodi.sourceforge.net/DTD/sodipodi-0.dtd"
   xmlns:inkscape="http://www.inkscape.org/namespaces/inkscape"
   version="1.1"
   width="100%"
   height="100%"
   viewBox="0 0 32.000015 31.999973"
   id="svg"
   inkscape:version="1.0.2 (e86c870879, 2021-01-15)"
   sodipodi:docname="phone.svg">
  <sodipodi:namedview
     pagecolor="#ffffff"
     bordercolor="#000000"
     borderopacity="1"
     objecttolerance="10"
     gridtolerance="10"
     guidetolerance="10"
     inkscape:pageopacity="0"
     inkscape:pageshadow="2"
     inkscape:window-width="1920"
     inkscape:window-height="1014"
     id="namedview10"
     showgrid="false"
     inkscape:zoom="4.0193548"
     inkscape:cx="-11.137414"
     inkscape:cy="34.896399"
     inkscape:window-x="0"
     inkscape:window-y="0"
     inkscape:window-maximized="1"
     inkscape:current-layer="svg"
     inkscape:snap-bbox="true"
     inkscape:snap-bbox-midpoints="true"
     fit-margin-top="0"
     fit-margin-left="0"
     fit-margin-right="0"
     fit-margin-bottom="0"
     inkscape:document-rotation="0">
    <inkscape:grid
       type="xygrid"
       id="grid2987"
       empspacing="4"
       visible="true"
       enabled="true"
       snapvisiblegridlinesonly="true"
       color="#0000ff"
       opacity="0.03921569"
       empcolor="#0000ff"
       empopacity="0.07843137"
       originx="-52.266652"
       originy="-27.733348"
       spacingx="1.0666667"
       spacingy="1.0666667" />
  </sodipodi:namedview>
  <defs
     id="defs81">
    <style
       type="text/css"
       id="current-color-scheme" />
  </defs>
  <metadata
     id="metadata34">
    <rdf:RDF>
      <cc:Work
         rdf:about="">
        <dc:format>image/svg+xml</dc:format>
        <dc:type
           rdf:resource="http://purl.org/dc/dcmitype/StillImage" />
        <dc:title />
      </cc:Work>
    </rdf:RDF>
  </metadata>
  <g
     id="phone"
     transform="translate(-48.437527,39.781208)">
    <g
       id="g3854">
      <rect
         style="opacity:0.01;fill:#eff0f1;fill-opacity:0;stroke:none"
         id="rect3860"
         y="-39.781208"
         x="48.437527"
         ry="0"
         rx="0"
         height="31.999973"
         width="32.000015" />
    </g>
    <path
       id="path2990-1"
       d="m 59.937534,-35.781221 c -1.10801,0 -2,0.892 -2,2 v 3 h -0.375 c -0.347428,0 -0.625,0.277572 -0.625,0.625 v 0.75 c 0,0.347428 0.277572,0.625 0.625,0.625 h 0.375 v 1 c -0.554,0 -1,0.446 -1,1 v 2 c 0,0.554 0.446,1 1,1 v 10 c 0,1.108 0.89199,2 2,2 h 10 c 1.10801,0 2,-0.892 2,-2 v -20 c 0,-1.108 -0.89199,-2 -2,-2 z m 9.5,1 c 0.276142,0 0.5,0.223858 0.5,0.5 0,0.276142 -0.223858,0.5 -0.5,0.5 -0.276142,0 -0.5,-0.223858 -0.5,-0.5 0,-0.276142 0.223858,-0.5 0.5,-0.5 z m -9.5,2 h 10 c 0.554,0 1,0.446 1,1 v 15 c 0,0.554 -0.446,1 -1,1 h -10 c -0.554,0 -1,-0.446 -1,-1 v -8 -2 -2.625 -0.75 -1.625 c 0,-0.554 0.446,-1 1,-1 z m 3.5,18 h 3 c 0.554,0 1,0.446 1,1 0,0.554 -0.446,1 -1,1 h -3 c -0.554,0 -1,-0.446 -1,-1 0,-0.554 0.446,-1 1,-1 z"
       style="fill:#000000;fill-opacity:1"
       inkscape:connector-curvature="0" />
  </g>
  <g
     id="22-22-phone"
     transform="translate(4.5624753,38.781208)">
    <g
       id="g3857">
      <g
         id="g3845">
        <path
           id="rect3881"
           d="M 6,3 C 5.446,3 5,3.446 5,4 v 14 c 0,0.554 0.446,1 1,1 h 10 c 0.554,0 1,-0.446 1,-1 V 4 C 17,3.446 16.554,3 16,3 Z M 6,4 H 16 V 16 H 6 Z m 3.5,13 h 3 c 0.277,0 0.5,0.223 0.5,0.5 0,0.277 -0.223,0.5 -0.5,0.5 h -3 C 9.223,18 9,17.777 9,17.5 9,17.223 9.223,17 9.5,17 Z"
           style="fill:#000000;fill-opacity:1;stroke:none"
           inkscape:connector-curvature="0" />
        <rect
           y="0"
           x="0"
           height="22"
           width="22"
           id="rect3841"
           style="fill:#000000;fill-opacity:0;stroke:none" />
      </g>
    </g>
  </g>
  <g
     id="16-16-phone"
     transform="translate(7.5625023,73.281246)">
    <path
       inkscape:connector-curvature="0"
       id="rect3878"
       d="M 2.9999743,1.4999625 V 14.499963 h 2 1 4 0.9999997 2 V 1.4999625 Z m 1,1 H 11.999974 V 11.499963 H 3.9999743 Z m 2,10.0000005 h 4 v 1 h -4 z"
       style="fill:#000000;fill-opacity:1;stroke:none" />
    <rect
       ry="2.9278411e-07"
       y="-3.7329864e-05"
       x="-2.6000002e-05"
       height="16"
       width="16"
       id="rect3889"
       style="fill:#566060;fill-opacity:0;stroke:none" />
  </g>
  <g
     id="phone-battery"
     transform="translate(52.000002)">
    <g
       transform="translate(-48.437527,39.781208)"
       id="g3036">
      <rect
         width="32.000015"
         height="31.999973"
         rx="0"
         ry="0"
         x="48.437527"
         y="-39.781208"
         id="rect3038"
         style="opacity:0.01;fill:#eff0f1;fill-opacity:0;stroke:none" />
    </g>
    <path
       inkscape:connector-curvature="0"
       style="fill:#000000;fill-opacity:1"
       d="m 11.500007,3.999987 c -1.10801,0 -2,0.892 -2,2 v 3 h -0.375 c -0.347428,0 -0.625,0.277572 -0.625,0.625 v 0.75 c 0,0.347428 0.277572,0.625 0.625,0.625 h 0.375 v 1 c -0.554,0 -1,0.446 -1,1 v 2 c 0,0.554 0.446,1 1,1 v 10 c 0,1.108 0.89199,2 2,2 h 10 c 1.10801,0 2,-0.892 2,-2 v -20 c 0,-1.108 -0.89199,-2 -2,-2 z m 9.5,1 c 0.276142,0 0.5,0.223858 0.5,0.5 0,0.276142 -0.223858,0.5 -0.5,0.5 -0.276142,0 -0.5,-0.223858 -0.5,-0.5 0,-0.276142 0.223858,-0.5 0.5,-0.5 z m -9.5,2 h 10 c 0.554,0 1,0.446 1,1 v 15 c 0,0.554 -0.446,1 -1,1 h -10 c -0.554,0 -1,-0.446 -1,-1 v -8 -2 -2.625 -0.75 -1.625 c 0,-0.554 0.446,-1 1,-1 z m 3.5,18 h 3 c 0.554,0 1,0.446 1,1 0,0.554 -0.446,1 -1,1 h -3 c -0.554,0 -1,-0.446 -1,-1 0,-0.554 0.446,-1 1,-1 z"
       id="path3040" />
    <path
       class="ColorScheme-Text"
       style="color:#7b7c7e;fill:#aa0044;fill-opacity:1;fill-rule:evenodd;stroke:none"
       d="M 17.513559,9.4545871 13.15,15.999987 h 2.181719 v 5.4546 l 4.36356,-6.54552 h -2.18172 z"
       id="path4444"
       inkscape:connector-curvature="0"
       sodipodi:nodetypes="ccccccc" />
  </g>
  <g
     id="22-22-phone-battery"
     transform="translate(56.562479,38.781208)">
    <g
       id="g3048">
      <g
         id="g3050">
        <path
           inkscape:connector-curvature="0"
           style="fill:#000000;fill-opacity:1;stroke:none"
           d="M 6,3 C 5.446,3 5,3.446 5,4 v 14 c 0,0.554 0.446,1 1,1 h 10 c 0.554,0 1,-0.446 1,-1 V 4 C 17,3.446 16.554,3 16,3 Z M 6,4 H 16 V 16 H 6 Z m 3.5,13 h 3 c 0.277,0 0.5,0.223 0.5,0.5 0,0.277 -0.223,0.5 -0.5,0.5 h -3 C 9.223,18 9,17.777 9,17.5 9,17.223 9.223,17 9.5,17 Z"
           id="path3052" />
        <rect
           style="fill:#000000;fill-opacity:0;stroke:none"
           id="rect3054"
           width="22"
           height="22"
           x="0"
           y="0" />
      </g>
    </g>
    <path
       sodipodi:nodetypes="ccccccc"
       inkscape:connector-curvature="0"
       id="path3072"
       d="M 11.9091,4.9999995 8.2728002,10.454499 H 10.090899 V 15 L 13.7272,9.5453995 h -1.8181 z"
       style="color:#7b7c7e;fill:#aa0044;fill-opacity:1;fill-rule:evenodd;stroke:none"
       class="ColorScheme-Text" />
  </g>
  <g
     id="16-16-phone-battery"
     transform="translate(59.562473,73.281209)">
    <path
       style="fill:#000000;fill-opacity:1;stroke:none"
       d="M 3.0000002,1.4999998 V 14.5 h 1.9999999 1 H 9.9999999 11 13 V 1.4999998 Z m 0.9999999,1 H 12 V 11.5 H 4.0000001 Z m 2,10.0000002 h 3.9999998 v 1 H 6.0000001 Z"
       id="path3058"
       inkscape:connector-curvature="0" />
    <rect
       style="fill:#566060;fill-opacity:0;stroke:none"
       id="rect3060"
       width="16"
       height="16"
       x="4.7402793e-13"
       y="-4.2628317e-13"
       ry="2.9278411e-07" />
    <path
       class="ColorScheme-Text"
       style="color:#7b7c7e;fill:#aa0044;fill-opacity:1;fill-rule:evenodd;stroke:none"
       d="M 8.7272799,3.0000002 5.8182399,7.363599 H 7.2727191 V 11 L 10.18176,6.6363203 H 8.7272799 Z"
       id="path3863"
       inkscape:connector-curvature="0"
       sodipodi:nodetypes="ccccccc" />
  </g>
</svg>
