<?xml version="1.0" encoding="UTF-8" standalone="no"?>
<svg
   xmlns:dc="http://purl.org/dc/elements/1.1/"
   xmlns:cc="http://creativecommons.org/ns#"
   xmlns:rdf="http://www.w3.org/1999/02/22-rdf-syntax-ns#"
   xmlns:svg="http://www.w3.org/2000/svg"
   xmlns="http://www.w3.org/2000/svg"
   xmlns:sodipodi="http://sodipodi.sourceforge.net/DTD/sodipodi-0.dtd"
   xmlns:inkscape="http://www.inkscape.org/namespaces/inkscape"
   width="32"
   height="32"
   version="1.1"
   id="svg12"
   sodipodi:docname="akonadi.svg"
   inkscape:version="1.0.2 (e86c870879, 2021-01-15)">
  <metadata
     id="metadata18">
    <rdf:RDF>
      <cc:Work
         rdf:about="">
        <dc:format>image/svg+xml</dc:format>
        <dc:type
           rdf:resource="http://purl.org/dc/dcmitype/StillImage" />
      </cc:Work>
    </rdf:RDF>
  </metadata>
  <defs
     id="defs16" />
  <sodipodi:namedview
     pagecolor="#ffffff"
     bordercolor="#666666"
     borderopacity="1"
     objecttolerance="10"
     gridtolerance="10"
     guidetolerance="10"
     inkscape:pageopacity="0"
     inkscape:pageshadow="2"
     inkscape:window-width="1920"
     inkscape:window-height="1007"
     id="namedview14"
     showgrid="false"
     inkscape:zoom="9.8125"
     inkscape:cx="19.546008"
     inkscape:cy="17.928482"
     inkscape:window-x="0"
     inkscape:window-y="0"
     inkscape:window-maximized="1"
     inkscape:current-layer="svg12"
     inkscape:document-rotation="0">
    <inkscape:grid
       type="xygrid"
       id="grid907"
       originx="32.000001"
       originy="10.000001" />
  </sodipodi:namedview>
  <g
     id="akonadi">
    <path
       style="opacity:0.00100002"
       d="M 0,3.6363637e-7 H 32.000001 V 32.000001 H 0 Z"
       id="path7" />
    <path
       d="m 15.001682,18.283225 c 5.821226,0 10.537961,-2.098776 10.537961,-4.689796 0,-0.952654 0,-1.944491 0,-3.585307 0,2.591021 -4.716735,4.689796 -10.537961,4.689796 -5.8212251,0 -10.5379606,-2.098775 -10.5379606,-4.689796 0,1.082449 0,1.804898 0,3.585307 0,2.59102 4.7167355,4.689796 10.5379606,4.689796 z"
       id="path4-3"
       style="fill:#000000;fill-opacity:1;stroke-width:0.0244898" />
    <path
       d="m 15.001682,13.409755 c 5.821226,0 10.537961,-2.098776 10.537961,-4.6897967 0,-2.5910208 -4.716735,-4.6897967 -10.537961,-4.6897967 -5.8212251,0 -10.5379606,2.0987759 -10.5379606,4.6897967 0,2.5910207 4.7167355,4.6897967 10.5379606,4.6897967 z"
       id="path6"
       style="fill:#000000;fill-opacity:1;stroke-width:0.0244898" />
    <path
       d="m 15.001682,23.156695 c 1.621225,0 3.154287,-0.161632 4.525715,-0.453061 0.406531,-2.250613 2.375511,-3.960001 4.743675,-3.960001 0.423673,0 0.832653,0.05388 1.22449,0.156735 0.02939,-0.142041 0.04408,-0.286531 0.04408,-0.433469 0,-0.952654 0,-1.94449 0,-3.585307 0,2.591021 -4.716735,4.689797 -10.537961,4.689797 -5.8212251,0 -10.5379606,-2.098776 -10.5379606,-4.689797 0,1.082449 0,1.804898 0,3.585307 0,2.591021 4.7167355,4.689796 10.5379616,4.689796 z"
       id="path8"
       style="fill:#000000;fill-opacity:1;stroke-width:0.0244898" />
    <path
       d="m 19.471071,24.001593 c -1.356735,0.284082 -2.870205,0.440817 -4.469389,0.440817 -5.8212251,0 -10.5379606,-2.098776 -10.5379606,-4.689797 0,1.082449 0,1.804898 0,3.585307 0,2.59347 4.7167355,4.692246 10.5379606,4.692246 2.262858,0 4.359185,-0.318368 6.07592,-0.857143 -0.896327,-0.791021 -1.493878,-1.910205 -1.606531,-3.17143 z"
       id="path10"
       style="fill:#000000;fill-opacity:1;stroke-width:0.0244898" />
    <path
       d="m 23.783725,21.557511 c -0.869388,0 -1.574695,0.705307 -1.574695,1.572246 0,0.866939 0.705307,1.572245 1.574695,1.572245 0.869388,0 1.574694,-0.705306 1.574694,-1.572245 0,-0.866939 -0.707755,-1.572246 -1.574694,-1.572246 z m 0,2.627756 c -0.582858,0 -1.055511,-0.472653 -1.055511,-1.053061 0,-0.580409 0.472653,-1.053062 1.055511,-1.053062 0.582857,0 1.05551,0.472653 1.05551,1.053062 0,0.580408 -0.475102,1.053061 -1.05551,1.053061 z m 3.262041,-2.167347 h -0.313469 c -0.04408,0 -0.08327,-0.02694 -0.100409,-0.06612 -0.01714,-0.03918 -0.0073,-0.08571 0.02449,-0.117551 l 0.222857,-0.222857 c 0.200817,-0.200816 0.200817,-0.531429 0,-0.732245 l -0.84,-0.84 c -0.100408,-0.100408 -0.235102,-0.151837 -0.367347,-0.151837 -0.132245,0 -0.266939,0.05143 -0.367347,0.151837 l -0.222857,0.222857 c -0.01959,0.01959 -0.04898,0.03184 -0.07592,0.03184 -0.01469,0 -0.02694,-0.0024 -0.04163,-0.0073 -0.03918,-0.01714 -0.06612,-0.05633 -0.06612,-0.100408 v -0.31347 c 0,-0.284081 -0.232654,-0.55102 -0.519184,-0.55102 h -1.190205 c -0.28653,0 -0.519183,0.266939 -0.519183,0.55102 v 0.31347 c 0,0.04408 -0.02694,0.08327 -0.06612,0.100408 -0.01225,0.0049 -0.02694,0.0073 -0.04163,0.0073 -0.02694,0 -0.05633,-0.0098 -0.07592,-0.03184 l -0.222857,-0.222857 c -0.100408,-0.100408 -0.235102,-0.151837 -0.367347,-0.151837 -0.132245,0 -0.266939,0.05143 -0.367347,0.151837 l -0.842449,0.84 c -0.203265,0.200816 -0.203265,0.531429 0,0.732245 l 0.222857,0.222857 c 0.03184,0.03184 0.03918,0.07837 0.02449,0.117551 -0.01714,0.03918 -0.05633,0.06612 -0.100408,0.06612 h -0.31347 c -0.28653,0 -0.541224,0.232653 -0.541224,0.519183 v 1.187756 c 0,0.284081 0.254694,0.519184 0.541224,0.519184 h 0.31347 c 0.04408,0 0.08327,0.02694 0.100408,0.06612 0.01714,0.03918 0.0073,0.08571 -0.02449,0.117551 l -0.222857,0.222857 c -0.203265,0.200817 -0.203265,0.531429 0,0.732245 l 0.84,0.84 c 0.100408,0.100409 0.235102,0.151837 0.367347,0.151837 0.132245,0 0.266939,-0.05143 0.367347,-0.151837 l 0.222857,-0.222857 c 0.01959,-0.01959 0.04898,-0.03184 0.07592,-0.03184 0.01469,0 0.02694,0.0024 0.04163,0.0073 0.03918,0.01714 0.06612,0.05633 0.06612,0.100409 v 0.313469 c 0,0.284082 0.232653,0.541225 0.519184,0.541225 h 1.190204 c 0.28653,0 0.519184,-0.254694 0.519184,-0.541225 V 26.07588 c 0,-0.04408 0.02694,-0.08327 0.06612,-0.100409 0.01224,-0.0049 0.02694,-0.0073 0.04163,-0.0073 0.02694,0 0.05633,0.0098 0.07592,0.03184 l 0.222857,0.222857 c 0.100408,0.100409 0.235102,0.151837 0.367347,0.151837 0.132245,0 0.266939,-0.05143 0.367347,-0.151837 l 0.84,-0.84 c 0.200817,-0.200816 0.200817,-0.531428 0,-0.732245 l -0.222857,-0.222857 c -0.03184,-0.03184 -0.03918,-0.07592 -0.02204,-0.117551 0.01714,-0.03918 0.05633,-0.06612 0.100409,-0.06612 h 0.313469 c 0.286531,0 0.541225,-0.232654 0.541225,-0.519184 v -1.187756 c 0,-0.284081 -0.254694,-0.519183 -0.541225,-0.519183 z m 0.02204,1.706939 h -0.33551 c -0.254694,0 -0.48245,0.151837 -0.580409,0.386939 -0.09796,0.235102 -0.04408,0.50204 0.137143,0.683265 l 0.222857,0.222857 -0.84,0.84 -0.222857,-0.222857 c -0.11755,-0.117551 -0.276734,-0.183673 -0.443264,-0.183673 -0.08327,0 -0.164082,0.01714 -0.24,0.04653 -0.235102,0.09796 -0.386939,0.323266 -0.386939,0.57796 v 0.33551 h -1.190205 v -0.33551 c 0,-0.254694 -0.151836,-0.480001 -0.386938,-0.57796 -0.07592,-0.03184 -0.156735,-0.04653 -0.24,-0.04653 -0.166531,0 -0.325715,0.06612 -0.443266,0.183673 l -0.222857,0.222857 -0.84,-0.84 0.222857,-0.222857 c 0.178776,-0.178776 0.232653,-0.448163 0.134694,-0.683265 -0.09796,-0.235102 -0.325714,-0.386939 -0.580408,-0.386939 h -0.335511 v -1.187756 h 0.335511 c 0.254694,0 0.482449,-0.151836 0.580408,-0.386938 0.09796,-0.235102 0.04408,-0.502041 -0.134694,-0.683266 l -0.222857,-0.222857 0.84,-0.84 0.222857,0.222857 c 0.117551,0.117551 0.276735,0.183674 0.443266,0.183674 0.08327,0 0.164081,-0.01714 0.24,-0.04898 0.235102,-0.09796 0.386938,-0.323265 0.386938,-0.577959 v -0.345307 h 1.187756 v 0.345307 c 0,0.254694 0.151837,0.482449 0.386939,0.577959 0.07592,0.03184 0.156734,0.04898 0.24,0.04898 0.16653,0 0.325714,-0.06612 0.443265,-0.183674 l 0.222857,-0.222857 0.84,0.84 -0.222857,0.222857 c -0.181224,0.178776 -0.232653,0.448164 -0.137143,0.683266 0.09796,0.235102 0.325715,0.386938 0.580409,0.386938 h 0.33551 v 1.187756 z"
       id="path12"
       style="fill:#147ab4;fill-opacity:1;stroke-width:0.0244898" />
  </g>
  <g
     id="22-22-akonadi">
    <path
       style="opacity:0.00100002"
       d="m 32.000001,10.000001 h 22 v 22 h -22 z"
       id="path2" />
    <path
       d="m 42.325307,22.502041 c 3.880816,0 7.025306,-1.399184 7.025306,-3.126531 0,-0.635102 0,-1.296326 0,-2.390204 0,1.727347 -3.14449,3.126531 -7.025306,3.126531 -3.880816,0 -7.025306,-1.399184 -7.025306,-3.126531 0,0.721633 0,1.203266 0,2.390204 0,1.727347 3.14449,3.126531 7.025306,3.126531 z"
       id="path4-3-7"
       style="fill:#000000;fill-opacity:1;stroke-width:0.0163265" />
    <path
       d="m 42.325307,19.253061 c 3.880816,0 7.025306,-1.399183 7.025306,-3.12653 C 49.350613,14.399184 46.206123,13 42.325307,13 c -3.880816,0 -7.025306,1.399184 -7.025306,3.126531 0,1.727347 3.14449,3.12653 7.025306,3.12653 z"
       id="path6-5"
       style="fill:#000000;fill-opacity:1;stroke-width:0.0163265" />
    <path
       d="m 42.325307,25.75102 c 1.080816,0 2.102857,-0.107755 3.017143,-0.302041 0.27102,-1.500408 1.583673,-2.639999 3.162449,-2.639999 0.282449,0 0.555102,0.03592 0.816326,0.104489 0.01959,-0.09469 0.02939,-0.19102 0.02939,-0.288979 0,-0.635102 0,-1.296327 0,-2.390204 0,1.727347 -3.14449,3.12653 -7.025306,3.12653 -3.880816,0 -7.025306,-1.399183 -7.025306,-3.12653 0,0.721632 0,1.203265 0,2.390204 0,1.727347 3.14449,3.12653 7.025306,3.12653 z"
       id="path8-3"
       style="fill:#000000;fill-opacity:1;stroke-width:0.0163265" />
    <path
       d="m 45.304899,26.314286 c -0.90449,0.189387 -1.91347,0.293877 -2.979592,0.293877 -3.880816,0 -7.025306,-1.399184 -7.025306,-3.12653 0,0.721632 0,1.203265 0,2.390204 0,1.728979 3.14449,3.128163 7.025306,3.128163 1.508571,0 2.906122,-0.212245 4.050612,-0.571429 -0.597551,-0.527347 -0.995918,-1.273469 -1.07102,-2.114285 z"
       id="path10-5"
       style="fill:#000000;fill-opacity:1;stroke-width:0.0163265" />
    <path
       d="m 48.180001,24.684898 c -0.579592,0 -1.049796,0.470204 -1.049796,1.048163 0,0.577959 0.470204,1.048163 1.049796,1.048163 0.579592,0 1.049796,-0.470204 1.049796,-1.048163 0,-0.577959 -0.471837,-1.048163 -1.049796,-1.048163 z m 0,1.751836 c -0.388572,0 -0.703674,-0.315102 -0.703674,-0.70204 0,-0.386939 0.315102,-0.702041 0.703674,-0.702041 0.388571,0 0.703673,0.315102 0.703673,0.702041 0,0.386938 -0.316735,0.70204 -0.703673,0.70204 z m 2.174693,-1.444897 h -0.208979 c -0.02939,0 -0.05551,-0.01796 -0.06694,-0.04408 -0.01143,-0.02612 -0.0049,-0.05714 0.01633,-0.07837 l 0.148571,-0.148572 c 0.133878,-0.133877 0.133878,-0.354286 0,-0.488163 l -0.56,-0.56 c -0.06694,-0.06694 -0.156735,-0.101225 -0.244898,-0.101225 -0.08816,0 -0.177959,0.03429 -0.244898,0.101225 l -0.148571,0.148571 c -0.01306,0.01306 -0.03265,0.02122 -0.05061,0.02122 -0.0098,0 -0.01796,-0.0016 -0.02776,-0.0049 -0.02612,-0.01143 -0.04408,-0.03755 -0.04408,-0.06694 v -0.208979 c 0,-0.189388 -0.155102,-0.367347 -0.346123,-0.367347 h -0.793469 c -0.19102,0 -0.346122,0.177959 -0.346122,0.367347 v 0.208979 c 0,0.02939 -0.01796,0.05551 -0.04408,0.06694 -0.0082,0.0033 -0.01796,0.0049 -0.02775,0.0049 -0.01796,0 -0.03755,-0.0065 -0.05061,-0.02122 l -0.148572,-0.148571 c -0.06694,-0.06694 -0.156734,-0.101225 -0.244898,-0.101225 -0.08816,0 -0.177959,0.03429 -0.244898,0.101225 l -0.561632,0.56 c -0.135511,0.133877 -0.135511,0.354286 0,0.488163 l 0.148571,0.148572 c 0.02123,0.02122 0.02612,0.05224 0.01633,0.07837 -0.01143,0.02612 -0.03755,0.04408 -0.06694,0.04408 h -0.20898 c -0.19102,0 -0.360816,0.155102 -0.360816,0.346122 v 0.791837 c 0,0.189387 0.169796,0.346122 0.360816,0.346122 h 0.20898 c 0.02939,0 0.05551,0.01796 0.06694,0.04408 0.01143,0.02612 0.0049,0.05714 -0.01633,0.07837 l -0.148571,0.148572 c -0.135511,0.133877 -0.135511,0.354285 0,0.488163 l 0.56,0.56 c 0.06694,0.06694 0.156734,0.101224 0.244898,0.101224 0.08816,0 0.177959,-0.03428 0.244898,-0.101224 l 0.148571,-0.148572 c 0.01306,-0.01306 0.03265,-0.02122 0.05061,-0.02122 0.0098,0 0.01796,0.0016 0.02775,0.0049 0.02612,0.01143 0.04408,0.03755 0.04408,0.06694 v 0.208979 c 0,0.189388 0.155102,0.360817 0.346122,0.360817 h 0.79347 c 0.19102,0 0.346122,-0.169796 0.346122,-0.360817 v -0.208979 c 0,-0.02939 0.01796,-0.05551 0.04408,-0.06694 0.0082,-0.0033 0.01796,-0.0049 0.02775,-0.0049 0.01796,0 0.03755,0.0065 0.05061,0.02122 l 0.148572,0.148572 c 0.06694,0.06694 0.156734,0.101224 0.244898,0.101224 0.08816,0 0.177959,-0.03428 0.244897,-0.101224 l 0.56,-0.56 c 0.133878,-0.133878 0.133878,-0.354286 0,-0.488163 L 50.09347,26.598367 c -0.02122,-0.02122 -0.02612,-0.05061 -0.01469,-0.07837 0.01143,-0.02612 0.03755,-0.04408 0.06694,-0.04408 h 0.208979 c 0.191021,0 0.360817,-0.155102 0.360817,-0.346122 v -0.791837 c 0,-0.189388 -0.169796,-0.346122 -0.360817,-0.346122 z m 0.01469,1.137959 h -0.223673 c -0.169796,0 -0.321633,0.101224 -0.386939,0.257959 -0.06531,0.156735 -0.02939,0.334694 0.09143,0.45551 l 0.148571,0.148572 -0.56,0.559999 -0.148571,-0.148571 c -0.07837,-0.07837 -0.18449,-0.122449 -0.29551,-0.122449 -0.05551,0 -0.109388,0.01143 -0.16,0.03102 -0.156735,0.06531 -0.25796,0.215511 -0.25796,0.385307 v 0.223673 h -0.793469 v -0.223673 c 0,-0.169796 -0.101224,-0.32 -0.257959,-0.385307 -0.05061,-0.02122 -0.10449,-0.03102 -0.16,-0.03102 -0.111021,0 -0.217143,0.04408 -0.29551,0.122449 l -0.148572,0.148571 -0.56,-0.559999 0.148572,-0.148572 c 0.119183,-0.119184 0.155102,-0.298775 0.0898,-0.45551 -0.06531,-0.156735 -0.217143,-0.257959 -0.386939,-0.257959 H 45.98898 v -0.791837 h 0.223674 c 0.169796,0 0.321632,-0.101224 0.386939,-0.257959 0.06531,-0.156735 0.02939,-0.334694 -0.0898,-0.45551 l -0.148572,-0.148572 0.56,-0.56 0.148572,0.148572 c 0.07837,0.07837 0.184489,0.122449 0.29551,0.122449 0.05551,0 0.109388,-0.01143 0.16,-0.03265 0.156735,-0.06531 0.257959,-0.215511 0.257959,-0.385307 v -0.230204 h 0.791837 v 0.230204 c 0,0.169796 0.101224,0.321633 0.257959,0.385307 0.05061,0.02122 0.10449,0.03265 0.16,0.03265 0.11102,0 0.217143,-0.04408 0.29551,-0.122449 l 0.148572,-0.148572 0.559999,0.56 -0.148571,0.148572 c -0.120816,0.119183 -0.155102,0.298775 -0.09143,0.45551 0.06531,0.156735 0.217142,0.257959 0.386938,0.257959 h 0.223674 v 0.791837 z"
       id="path12-6"
       style="fill:#147ab4;fill-opacity:1;stroke-width:0.0163265" />
  </g>
</svg>
