<?xml version="1.0" encoding="UTF-8" standalone="no"?>
<svg
   version="1.1"
   id="svg2"
   viewBox="0 0 54 32"
   inkscape:version="1.1.2 (0a00cf5339, 2022-02-04)"
   sodipodi:docname="cantata.svg"
   xmlns:inkscape="http://www.inkscape.org/namespaces/inkscape"
   xmlns:sodipodi="http://sodipodi.sourceforge.net/DTD/sodipodi-0.dtd"
   xmlns="http://www.w3.org/2000/svg"
   xmlns:svg="http://www.w3.org/2000/svg"
   xmlns:rdf="http://www.w3.org/1999/02/22-rdf-syntax-ns#"
   xmlns:cc="http://creativecommons.org/ns#"
   xmlns:dc="http://purl.org/dc/elements/1.1/">
  <sodipodi:namedview
     pagecolor="#ffffff"
     bordercolor="#666666"
     borderopacity="1"
     objecttolerance="10"
     gridtolerance="10"
     guidetolerance="10"
     inkscape:pageopacity="0"
     inkscape:pageshadow="2"
     inkscape:window-width="1769"
     inkscape:window-height="961"
     id="namedview14"
     showgrid="true"
     inkscape:zoom="5.2149125"
     inkscape:cx="-33.174094"
     inkscape:cy="4.5063076"
     inkscape:window-x="0"
     inkscape:window-y="0"
     inkscape:window-maximized="0"
     inkscape:current-layer="svg2"
     inkscape:pagecheckerboard="0">
    <inkscape:grid
       type="xygrid"
       id="grid892" />
  </sodipodi:namedview>
  <metadata
     id="metadata20">
    <rdf:RDF>
      <cc:Work
         rdf:about="">
        <dc:format>image/svg+xml</dc:format>
        <dc:type
           rdf:resource="http://purl.org/dc/dcmitype/StillImage" />
      </cc:Work>
    </rdf:RDF>
  </metadata>
  <defs
     id="defs3051">
    <style
       id="current-color-scheme"
       type="text/css">
      .ColorScheme-Text {
        color:#31363b;
      }
      </style>
  </defs>
  <g
     id="cantata">
    <path
       id="path15"
       class="ColorScheme-Text"
       d="M 37.002213,3.9999999 V 20.993871 c -1.255763,-0.541606 -3.213967,-0.827849 -4.768528,-0.183681 -2.602125,1.077213 -3.764563,3.471449 -3.004382,5.307377 0.760165,1.836516 3.158478,2.4213 5.761203,1.343499 2.053128,-0.852293 3.045682,-3.113787 3.042522,-4.448302 L 38.002208,9.9978365 c 0,0 5.100556,0.5991185 5.100556,5.3973565 0,3.59867 -1.100655,4.599059 -4.100562,7.597957 C 42.002109,21.19381 44.301,18.993863 44.301,15.395193 44.301,10.596955 40.597247,8.4391233 39.648682,7.4908763 39.048701,6.891092 38.301035,4.6003359 38.301035,4.6003359 Z"
       style="fill:#000000;fill-opacity:0.72000003;stroke:none" />
    <path
       id="path18"
       d="M 22,0 V 32 H 54 V 0 Z"
       style="fill:none" />
    <path
       d="M 38.003179,4 C 31.386715,4 26,9.381408 26,15.999756 25.99981,22.618102 31.386715,28 38.003179,28 44.619643,28 50,22.618591 50,15.999756 50,9.381408 44.620134,4 38.003179,4 Z m 0,1.711178 c 5.691708,0 10.286139,4.595343 10.286139,10.288578 0,5.693332 -4.594041,10.295422 -10.286139,10.295422 -5.691708,0 -10.292487,-4.602041 -10.292487,-10.295422 -1.89e-4,-5.693333 4.600529,-10.288578 10.292487,-10.288578 z"
       fill-rule="evenodd"
       id="path2"
       style="fill:#000000;fill-opacity:1;stroke-width:0.0488838" />
  </g>
  <g
     id="22-22-cantata">
    <path
       id="path11"
       d="M 0,10 V 32 H 22 V 10 Z"
       style="fill:none" />
    <path
       id="path15-7"
       class="ColorScheme-Text"
       d="M 10.332719,13 V 24.326019 C 9.495782,23.965052 8.190685,23.774277 7.154606,24.2036 5.42035,24.921538 4.645612,26.51724 5.152255,27.740844 c 0.506633,1.223995 2.105052,1.61374 3.839708,0.89541 1.368362,-0.568033 2.029876,-2.075266 2.02777,-2.964689 l -0.02054,-8.674147 c 0,0 3.399402,0.399299 3.399402,3.597213 0,2.39843 -0.733561,3.065166 -2.732929,5.063861 1.999368,-1.199218 3.531525,-2.665431 3.531525,-5.063861 0,-3.197914 -2.468465,-4.636059 -3.100661,-5.268043 -0.399874,-0.399742 -0.898176,-1.926478 -0.898176,-1.926478 z"
       style="color:#31363b;fill:#000000;fill-opacity:0.69999999;stroke:none;stroke-width:0.666477" />
    <path
       d="M 11.002119,13 C 6.591143,13 3,16.587606 3,20.999837 2.999873,25.412068 6.591143,29 11.002119,29 15.413096,29 19,25.412394 19,20.999837 19,16.587606 15.413423,13 11.002119,13 Z m 0,1.140785 c 3.794472,0 6.857426,3.063562 6.857426,6.859052 0,3.795555 -3.062694,6.863615 -6.857426,6.863615 -3.794472,0 -6.861657,-3.068027 -6.861657,-6.863615 -1.27e-4,-3.795555 3.067019,-6.859052 6.861657,-6.859052 z"
       fill-rule="evenodd"
       id="path2-6"
       style="fill:#000000;fill-opacity:1;stroke-width:0.0325892" />
  </g>
</svg>
