<?xml version="1.0" encoding="UTF-8" standalone="no"?>
<svg
   inkscape:version="1.2.1 (9c6d41e410, 2022-07-14)"
   sodipodi:docname="device.svg"
   height="32"
   width="32"
   version="1.1"
   id="svg"
   viewBox="0 0 32 32"
   xmlns:inkscape="http://www.inkscape.org/namespaces/inkscape"
   xmlns:sodipodi="http://sodipodi.sourceforge.net/DTD/sodipodi-0.dtd"
   xmlns="http://www.w3.org/2000/svg"
   xmlns:svg="http://www.w3.org/2000/svg"
   xmlns:rdf="http://www.w3.org/1999/02/22-rdf-syntax-ns#"
   xmlns:cc="http://creativecommons.org/ns#"
   xmlns:dc="http://purl.org/dc/elements/1.1/">
  <sodipodi:namedview
     inkscape:document-rotation="0"
     inkscape:lockguides="false"
     inkscape:current-layer="svg"
     inkscape:window-maximized="1"
     inkscape:window-y="0"
     inkscape:window-x="0"
     inkscape:cy="39.898305"
     inkscape:cx="45.025424"
     inkscape:zoom="5.3636364"
     showgrid="false"
     id="namedview19"
     inkscape:window-height="1002"
     inkscape:window-width="1920"
     inkscape:pageshadow="2"
     inkscape:pageopacity="0"
     guidetolerance="10"
     gridtolerance="10"
     objecttolerance="10"
     borderopacity="1"
     bordercolor="#666666"
     pagecolor="#ffffff"
     inkscape:showpageshadow="2"
     inkscape:pagecheckerboard="0"
     inkscape:deskcolor="#d1d1d1">
    <inkscape:grid
       type="xygrid"
       id="grid430"
       originx="0"
       originy="34" />
  </sodipodi:namedview>
  <defs
     id="defs81">
    <style
       type="text/css"
       id="current-color-scheme" />
  </defs>
  <metadata
     id="metadata34">
    <rdf:RDF>
      <cc:Work
         rdf:about="">
        <dc:format>image/svg+xml</dc:format>
        <dc:type
           rdf:resource="http://purl.org/dc/dcmitype/StillImage" />
      </cc:Work>
    </rdf:RDF>
  </metadata>
  <g
     transform="translate(-1,33)"
     id="22-22-device-notifier">
    <rect
       style="fill:#ffffff;fill-opacity:0;stroke:none"
       id="rect3011-4"
       width="22"
       height="22"
       x="1"
       y="1" />
    <path
       inkscape:connector-curvature="0"
       class="ColorScheme-Text"
       id="path3783"
       d="M 8,4 V 9 L 6,8.956863 V 20 H 18 V 8.956863 L 16,9 V 4 Z m 1,1 h 6 V 9 H 9 Z m 1,1 v 2 h 1 V 6 Z m 4,0 h -1 v 2 h 1 z m -2.053572,4.964707 3.482144,4.015686 H 8.5714285 Z m -3.3749995,5.019607 h 6.8571435 v 1.003922 H 8.5714285 Z"
       style="color:#7b7c7e;fill:#000000;fill-opacity:1;stroke:none;stroke-width:0.927633"
       sodipodi:nodetypes="ccccccccccccccccccccccccccccccccc" />
  </g>
  <g
     transform="translate(25,32)"
     id="g2991">
    <rect
       y="0"
       x="0"
       height="24"
       width="24"
       id="rect2993"
       style="fill:#ffffff;fill-opacity:0;stroke:none" />
    <g
       transform="translate(-508,-1036.3622)"
       id="g2995">
      <path
         style="fill:#000000;fill-opacity:1;stroke:none"
         d="M 2,2 V 22 H 13 V 19 H 9 v -6 h 4 V 11 H 9 V 5 h 4 V 2 Z m 20,0.78125 c 0,0 -0.47953,1.5907 -1.890625,3.09375 C 18.894025,7.0386 18.83249,7.5 15.90625,7.5 V 6 H 10 v 4 h 5.90625 V 8.5 c 3.07376,0 3.591795,-0.66275 4.890625,-1.90625 C 22.165585,5.28315 22.90625,3.1875 22.90625,3.1875 Z M 14,12 v 0.5 1.5 h -4 v 4 h 4 v 1.5 0.5 h 0.5 7 0.5 v -0.5 -7 -0.5 h -0.5 -7 z m 1,1 h 6 v 6 h -6 z"
         transform="translate(508,1036.3622)"
         id="path2997"
         class="ColorScheme-Text" />
    </g>
  </g>
  <g
     id="device-notifier"
     transform="matrix(1.4545455,0,0,1.4545455,-1.4545455,-1.4545455)">
    <rect
       y="1"
       x="1"
       height="22"
       width="22"
       id="rect3817"
       style="fill:#ffffff;fill-opacity:0;stroke:none" />
    <path
       class="ColorScheme-Text"
       style="fill:#000000;fill-opacity:1;stroke:none"
       d="m 7.1562498,3.7499996 0.03125,5.4999998 h -0.6875 L 5.1249999,10.624999 v 8.25 l 1.3749999,1.375 H 17.499999 l 1.375,-1.375 1e-6,-8.25 -1.375001,-1.3749996 H 16.8125 l 0.03125,-5.4999998 z m 0.71875,0.6562499 8.2500002,0.03125 V 9.2499994 L 7.8749998,9.2187494 Z M 9.2499995,5.8124996 V 7.1874995 H 11.3125 V 5.8124996 Z M 14.75,5.8124995 H 12.6875 V 7.1874994 H 14.75 Z M 12,11.999999 l 2.75,2.75 H 9.2500001 Z m -2.7499998,4.125 H 14.75 v 0.6875 H 9.2499997 Z"
       id="path3819" />
  </g>
  <g
     id="16-16-device-notifier"
     transform="translate(-4,56)">
    <rect
       y="4"
       x="4"
       height="16"
       width="16"
       id="rect3823"
       style="fill:#ffffff;fill-opacity:0;stroke:none" />
    <path
       class="ColorScheme-Text"
       style="fill:#000000;fill-opacity:1;stroke:none;stroke-width:0.954711"
       d="m 8,6 v 5 L 7,10.981723 V 18 H 17 V 10.981723 L 16,11 V 6 Z m 1,1 h 6 v 4 H 9 Z m 1,1 v 2 h 1 V 8 Z m 4,0 h -1 v 2 h 1 z"
       id="path3825"
       sodipodi:nodetypes="cccccccccccccccccccccccc" />
  </g>
</svg>
