<?xml version="1.0" encoding="UTF-8" standalone="no"?>
<svg
   xmlns:dc="http://purl.org/dc/elements/1.1/"
   xmlns:cc="http://creativecommons.org/ns#"
   xmlns:rdf="http://www.w3.org/1999/02/22-rdf-syntax-ns#"
   xmlns:svg="http://www.w3.org/2000/svg"
   xmlns="http://www.w3.org/2000/svg"
   xmlns:sodipodi="http://sodipodi.sourceforge.net/DTD/sodipodi-0.dtd"
   xmlns:inkscape="http://www.inkscape.org/namespaces/inkscape"
   id="svg7384"
   width="22"
   height="22"
   enable-background="new"
   inkscape:version="1.0.1 (3bc2e813f5, 2020-09-07)"
   sodipodi:docname="disk.svg"
   version="1.1">
  <metadata
     id="metadata32">
    <rdf:RDF>
      <cc:Work
         rdf:about="">
        <dc:format>image/svg+xml</dc:format>
        <dc:type
           rdf:resource="http://purl.org/dc/dcmitype/StillImage" />
        <dc:title />
      </cc:Work>
    </rdf:RDF>
  </metadata>
  <sodipodi:namedview
     id="namedview10"
     bordercolor="#000000"
     borderopacity="1"
     gridtolerance="10"
     guidetolerance="10"
     inkscape:bbox-nodes="true"
     inkscape:current-layer="svg7384"
     inkscape:cx="49.445887"
     inkscape:cy="16.4223"
     inkscape:pageopacity="0"
     inkscape:pageshadow="2"
     inkscape:snap-bbox="true"
     inkscape:snap-bbox-edge-midpoints="true"
     inkscape:window-height="1014"
     inkscape:window-maximized="1"
     inkscape:window-width="1920"
     inkscape:window-x="0"
     inkscape:window-y="0"
     inkscape:zoom="7.9999996"
     objecttolerance="10"
     pagecolor="#ffffff"
     showgrid="false"
     inkscape:document-rotation="0"
     inkscape:lockguides="true">
    <inkscape:grid
       id="grid39"
       type="xygrid"
       originx="0"
       originy="0" />
  </sodipodi:namedview>
  <defs
     id="defs7386">
    <style
       id="current-color-scheme"
       type="text/css">.ColorScheme-Text { color:#dedede; } .ColorScheme-Highlight { color:#5294e2; } .ColorScheme-ButtonBackground { color:#dedede; }</style>
  </defs>
  <g
     id="g23"
     fill="#dedede" />
  <g
     id="disk-quota">
    <path
       id="path19"
       d="M 0,0 H 22 V 22 H 0 Z"
       opacity="0"
       inkscape:connector-curvature="0" />
    <path
       d="M 15.8407,3.2 H 6.453489 C 5.7915703,3.2 5.25,3.8 5.25,4.5333331 V 17.866662 C 5.25,18.6 5.7915703,19.2 6.453489,19.2 H 15.8407 c 0.661919,0 1.203488,-0.6 1.203488,-1.333338 V 4.5333331 C 17.044188,3.8 16.502619,3.2 15.8407,3.2 Z m 0.601745,14.666662 c 0,0.366669 -0.270784,0.666669 -0.601745,0.666669 H 6.453489 c -0.3309594,0 -0.6017445,-0.3 -0.6017445,-0.666669 V 4.5333331 c 0,-0.3666669 0.2707851,-0.6666668 0.6017445,-0.6666668 H 15.8407 c 0.330961,0 0.601745,0.2999999 0.601745,0.6666668 z"
       id="path2"
       style="fill:#232629;fill-opacity:1;stroke-width:0.31669" />
    <path
       d="m 11.05,7.375 c -1.9391893,0 -3.5,1.5608107 -3.5,3.5 0,1.939179 1.5608107,3.5 3.5,3.5 1.939179,0 3.5,-1.560821 3.5,-3.5 0,-1.9391893 -1.560821,-3.5 -3.5,-3.5 z m 0,6.216 c -0.710664,0 -1.2285535,-0.185758 -1.679222,-0.527345 C 8.7566721,12.598191 8.334,11.843393 8.334,10.875 8.334,9.983234 8.700291,9.3601598 9.2261471,8.8897983 9.6903895,8.4745497 10.262718,8.236778 11.05,8.236778 c 0.715719,0 1.173235,0.2065638 1.625026,0.5528135 0.608096,0.4660365 1.013194,1.12208 1.013194,2.0854085 0,0.745144 -0.287797,1.369778 -0.672,1.831401 C 12.5469,13.270317 11.973265,13.591 11.05,13.591 Z"
       id="path4"
       style="fill:#232629;fill-opacity:1;stroke-width:0.236495"
       sodipodi:nodetypes="ssssssssssssss" />
    <path
       d="m 11,9.75 c -0.656618,0 -1.175,0.518382 -1.175,1.175 0,0.656618 0.518382,1.175 1.175,1.175 0.656618,0 1.175,-0.518382 1.175,-1.175 C 12.175,10.268382 11.656618,9.75 11,9.75 Z m 0.016,1.175 z"
       id="path6"
       style="fill:#232629;fill-opacity:1;stroke-width:0.345588"
       sodipodi:nodetypes="ssssscccc" />
    <path
       d="m 7.925,16.25 h 6.15 C 14.3,16.25 14.45,16.1 14.45,15.875 14.45,15.65 14.3,15.5 14.075,15.5 H 7.925 C 7.7,15.5 7.55,15.65 7.55,15.875 7.55,16.1 7.7,16.25 7.925,16.25 Z"
       id="path10"
       style="fill:#232629;fill-opacity:1;stroke-width:0.375" />
  </g>
  <g
     id="disk-quota-high">
    <path
       id="path19-6-0"
       d="m 59.094317,0.0324236 h 22 V 22.032424 h -22 z"
       opacity="0"
       inkscape:connector-curvature="0" />
    <path
       d="m 74.211177,4.0324236 h -8.213813 c -0.579179,0 -1.053047,0.525 -1.053047,1.1666666 V 16.865754 c 0,0.64167 0.473869,1.16667 1.053047,1.16667 h 8.213813 c 0.579178,0 1.053056,-0.525 1.053056,-1.16667 V 5.1990902 c 0,-0.6416666 -0.473878,-1.1666666 -1.053056,-1.1666666 z m 0.526525,12.8333304 c 0,0.320836 -0.23693,0.583336 -0.526525,0.583336 h -8.213813 c -0.289584,0 -0.526525,-0.2625 -0.526525,-0.583336 V 5.1990902 c 0,-0.3208336 0.236941,-0.5833336 0.526525,-0.5833336 h 8.213813 c 0.289595,0 0.526525,0.2625 0.526525,0.5833336 z"
       id="path2-7-9"
       style="fill:#232629;fill-opacity:1;stroke-width:0.277101" />
    <path
       d="m 70.144317,7.4074236 c -1.939188,0 -3.5,1.5608104 -3.5,3.5000004 0,1.939182 1.560812,3.5 3.5,3.5 1.939182,0 3.5,-1.560818 3.5,-3.5 0,-1.93919 -1.560818,-3.5000004 -3.5,-3.5000004 z m 0,6.2934484 c -0.885098,0 -1.535445,-0.309666 -2.026357,-0.848464 -0.44036,-0.483326 -0.767665,-1.151027 -0.767665,-1.944984 0,-0.9516366 0.436308,-1.7218541 1.05233,-2.2106026 0.470876,-0.3735913 1.014276,-0.5827274 1.741692,-0.5827274 0.901105,0 1.562202,0.3209331 2.053083,0.8778617 0.423801,0.4808119 0.740445,1.1375203 0.740445,1.9154683 0,0.898683 -0.4064,1.644894 -0.975332,2.139322 -0.479058,0.416322 -1.050668,0.654126 -1.818196,0.654126 z"
       id="path4-5-3"
       style="fill:#ff6600;fill-opacity:1;stroke-width:0.236494"
       sodipodi:nodetypes="ssssssssssssss" />
    <path
       d="m 70.094317,9.7824236 c -0.656618,0 -1.175,0.5183824 -1.175,1.1750004 0,0.656618 0.518382,1.175 1.175,1.175 0.656618,0 1.175,-0.518382 1.175,-1.175 0,-0.656618 -0.518382,-1.1750004 -1.175,-1.1750004 z m 0,1.6588244 c -0.27647,0 -0.483824,-0.207354 -0.483824,-0.483824 0,-0.27647 0.207354,-0.483824 0.483824,-0.483824 0.27647,0 0.483824,0.207354 0.483824,0.483824 0,0.27647 -0.207354,0.483824 -0.483824,0.483824 z"
       id="path6-3-6"
       style="fill:#ff6600;fill-opacity:1;stroke-width:0.345588" />
    <path
       d="m 67.019317,16.282424 h 6.15 c 0.225,0 0.375,-0.15 0.375,-0.375 0,-0.225 -0.15,-0.375 -0.375,-0.375 h -6.15 c -0.225,0 -0.375,0.15 -0.375,0.375 0,0.225 0.15,0.375 0.375,0.375 z"
       id="path10-6-6"
       style="fill:#ff6600;fill-opacity:1;stroke-width:0.375" />
  </g>
  <g
     id="disk-quota-critical">
    <path
       id="path19-6-0-9"
       d="M 86.056461,0.07996173 H 108.05646 V 22.079962 H 86.056461 Z"
       opacity="0"
       inkscape:connector-curvature="0" />
    <path
       d="m 101.17338,4.0799617 h -8.213873 c -0.579179,0 -1.053046,0.525 -1.053046,1.1666665 V 16.913292 c 0,0.64167 0.473867,1.16667 1.053046,1.16667 h 8.213873 c 0.57908,0 1.05302,-0.525 1.05302,-1.16667 V 5.2466282 c 0,-0.6416665 -0.47394,-1.1666665 -1.05302,-1.1666665 z m 0.52645,12.8333303 c 0,0.320835 -0.2369,0.583335 -0.52645,0.583335 h -8.213873 c -0.289584,0 -0.526524,-0.2625 -0.526524,-0.583335 V 5.2466282 c 0,-0.3208335 0.23694,-0.5833332 0.526524,-0.5833332 h 8.213873 c 0.28955,0 0.52645,0.2624997 0.52645,0.5833332 z"
       id="path2-7-9-2"
       style="fill:#232629;fill-opacity:1;stroke-width:0.2771" />
    <path
       d="m 97.106461,7.4549617 c -1.939186,0 -3.5,1.5608104 -3.5,3.5000003 0,1.939179 1.560814,3.5 3.5,3.5 1.939179,0 3.499999,-1.560821 3.499999,-3.5 0,-1.9391899 -1.56082,-3.5000003 -3.499999,-3.5000003 z m 0,6.2938043 c -0.818141,0 -1.424185,-0.26467 -1.910581,-0.730327 -0.511815,-0.490005 -0.88278,-1.202568 -0.88278,-2.063477 0,-0.896235 0.39518,-1.6316694 0.94656,-2.1226208 0.481611,-0.4288273 1.063974,-0.6711272 1.846801,-0.6711272 0.828625,0 1.441812,0.2714821 1.929305,0.7483008 0.500334,0.4893653 0.864094,1.1950172 0.864094,2.0454472 0,0.814513 -0.347215,1.503862 -0.821318,1.994035 -0.489444,0.506033 -1.119177,0.799769 -1.972081,0.799769 z"
       id="path4-5-3-0"
       style="fill:#ff0066;fill-opacity:1;stroke-width:0.236495"
       sodipodi:nodetypes="ssssssssssssss" />
    <path
       d="m 97.056461,9.8299617 c -0.656618,0 -1.175,0.5183823 -1.175,1.1750003 0,0.656618 0.518382,1.175 1.175,1.175 0.656618,0 1.175,-0.518382 1.175,-1.175 0,-0.656618 -0.518382,-1.1750003 -1.175,-1.1750003 z m 0,1.6588243 c -0.27647,0 -0.483824,-0.207354 -0.483824,-0.483824 0,-0.27647 0.207354,-0.483824 0.483824,-0.483824 0.27647,0 0.483824,0.207354 0.483824,0.483824 0,0.27647 -0.207354,0.483824 -0.483824,0.483824 z"
       id="path6-3-6-2"
       style="fill:#ff0066;fill-opacity:1;stroke-width:0.345588" />
    <path
       d="m 93.981461,16.329962 h 6.149999 c 0.225,0 0.375,-0.15 0.375,-0.375 0,-0.225 -0.15,-0.375 -0.375,-0.375 h -6.149999 c -0.225,0 -0.375,0.15 -0.375,0.375 0,0.225 0.15,0.375 0.375,0.375 z"
       id="path10-6-6-7"
       style="fill:#ff0066;fill-opacity:1;stroke-width:0.375" />
  </g>
  <g
     id="disk-quota-low">
    <path
       id="path19-6"
       d="m 32.063,0.031 h 22 v 22 h -22 z"
       opacity="0"
       inkscape:connector-curvature="0" />
    <path
       d="M 47.179859,4.031 H 38.966051 C 38.386872,4.031 37.913,4.556 37.913,5.1976668 V 16.864332 c 0,0.641668 0.473872,1.166668 1.053051,1.166668 h 8.213808 c 0.579179,0 1.053058,-0.525 1.053058,-1.166668 V 5.1976668 C 48.232917,4.556 47.759038,4.031 47.179859,4.031 Z m 0.526529,12.833332 c 0,0.320836 -0.236931,0.583336 -0.526529,0.583336 h -8.213808 c -0.289588,0 -0.526529,-0.2625 -0.526529,-0.583336 V 5.1976668 c 0,-0.3208336 0.236941,-0.5833336 0.526529,-0.5833336 h 8.213808 c 0.289598,0 0.526529,0.2625 0.526529,0.5833336 z"
       id="path2-7"
       style="fill:#232629;fill-opacity:1;stroke-width:0.277101" />
    <path
       d="m 43.113,7.406 c -1.93919,0 -3.5,1.5608107 -3.5,3.5 0,1.939184 1.56081,3.5 3.5,3.5 1.939184,0 3.5,-1.560816 3.5,-3.5 0,-1.9391893 -1.560816,-3.5 -3.5,-3.5 z m 0,6.29378 c -0.845934,0 -1.543856,-0.345977 -2.032913,-0.861082 C 40.598434,12.331394 40.31922,11.739123 40.31922,10.906 c 0,-0.969198 0.517981,-1.7615083 1.147223,-2.2582103 0.460868,-0.3637931 0.909237,-0.5690117 1.619097,-0.5690117 0.883333,0 1.553961,0.3300126 2.06524,0.8872871 0.460565,0.5020002 0.806553,1.1884169 0.806553,1.9841379 0,0.823764 -0.261877,1.36693 -0.758703,1.866422 -0.501579,0.504268 -1.24211,0.883155 -2.08563,0.883155 z"
       id="path4-5"
       style="fill:#47afeb;fill-opacity:1;stroke-width:0.236497"
       sodipodi:nodetypes="ssssssssssssss" />
    <path
       d="m 43.063,9.781 c -0.656618,0 -1.175,0.518382 -1.175,1.175 0,0.656618 0.518382,1.175 1.175,1.175 0.656618,0 1.175,-0.518382 1.175,-1.175 0,-0.656618 -0.518382,-1.175 -1.175,-1.175 z m 0,1.658824 c -0.27647,0 -0.483824,-0.207354 -0.483824,-0.483824 0,-0.27647 0.207354,-0.483824 0.483824,-0.483824 0.27647,0 0.483824,0.207354 0.483824,0.483824 0,0.27647 -0.207354,0.483824 -0.483824,0.483824 z"
       id="path6-3"
       style="fill:#47afeb;fill-opacity:1;stroke-width:0.345588" />
    <path
       d="m 39.988,16.281 h 6.15 c 0.225,0 0.375,-0.15 0.375,-0.375 0,-0.225 -0.15,-0.375 -0.375,-0.375 h -6.15 c -0.225,0 -0.375,0.15 -0.375,0.375 0,0.225 0.15,0.375 0.375,0.375 z"
       id="path10-6"
       style="fill:#47afeb;fill-opacity:1;stroke-width:0.375" />
  </g>
</svg>
