<?xml version="1.0" encoding="UTF-8" standalone="no"?>
<svg
   xmlns:dc="http://purl.org/dc/elements/1.1/"
   xmlns:cc="http://creativecommons.org/ns#"
   xmlns:rdf="http://www.w3.org/1999/02/22-rdf-syntax-ns#"
   xmlns:svg="http://www.w3.org/2000/svg"
   xmlns="http://www.w3.org/2000/svg"
   xmlns:sodipodi="http://sodipodi.sourceforge.net/DTD/sodipodi-0.dtd"
   xmlns:inkscape="http://www.inkscape.org/namespaces/inkscape"
   width="22"
   height="22"
   version="1.1"
   id="svg12"
   sodipodi:docname="drive.svg"
   inkscape:version="1.0.2 (e86c870879, 2021-01-15)">
  <metadata
     id="metadata18">
    <rdf:RDF>
      <cc:Work
         rdf:about="">
        <dc:format>image/svg+xml</dc:format>
        <dc:type
           rdf:resource="http://purl.org/dc/dcmitype/StillImage" />
      </cc:Work>
    </rdf:RDF>
  </metadata>
  <defs
     id="defs16" />
  <sodipodi:namedview
     pagecolor="#ffffff"
     bordercolor="#666666"
     borderopacity="1"
     objecttolerance="10"
     gridtolerance="10"
     guidetolerance="10"
     inkscape:pageopacity="0"
     inkscape:pageshadow="2"
     inkscape:window-width="1920"
     inkscape:window-height="1014"
     id="namedview14"
     showgrid="false"
     inkscape:zoom="9.8125"
     inkscape:cx="-37.044587"
     inkscape:cy="1.546485"
     inkscape:window-x="0"
     inkscape:window-y="0"
     inkscape:window-maximized="1"
     inkscape:current-layer="svg12"
     inkscape:document-rotation="0">
    <inkscape:grid
       type="xygrid"
       id="grid867"
       originx="-32.000001"
       originy="-10.000001" />
  </sodipodi:namedview>
  <g
     id="drive-harddisk"
     transform="translate(-32.000001,-10.000001)">
    <rect
       style="opacity:0.00100002"
       width="32"
       height="32"
       x="0"
       y="0"
       id="rect7" />
    <path
       d="m 16.764515,13.290323 c 0,0.425807 -0.348386,0.774194 -0.774193,0.774194 -0.425807,0 -0.774193,-0.348387 -0.774193,-0.774194 0,-0.425807 0.348387,-0.774194 0.774193,-0.774194 0.425807,0 0.774193,0.348387 0.774193,0.774194 z m -4.64516,9.290323 c -0.541936,-0.541935 -0.541936,-1.393548 0,-1.896774 0.541935,-0.541548 4.993547,-3.096774 4.993547,-3.096774 0,0 -2.554838,4.451613 -3.058064,4.993548 -0.541936,0.503226 -1.393549,0.503226 -1.935483,0 z m 0.967741,-0.580645 c 0.232258,0 0.387098,-0.154839 0.387098,-0.387097 0,-0.232258 -0.15484,-0.387097 -0.387098,-0.387097 -0.232258,0 -0.387097,0.154839 -0.387097,0.387097 0,0.232258 0.154839,0.387097 0.387097,0.387097 z m 9.483871,-8.709678 c 0,3.561291 -2.825807,6.425807 -6.309677,6.580646 0.580644,-1.006452 1.122193,-1.896774 1.238709,-2.090323 0.07742,-0.154839 0.07742,-0.348387 -0.07742,-0.464516 -0.108,-0.162581 -0.306194,-0.195484 -0.464516,-0.116516 -0.309678,0.154839 -2.167742,1.23871 -3.561291,2.090322 h -0.07742 c -2.283871,-1.006064 -3.909677,-3.328645 -3.909677,-5.999613 0,-3.63871 2.941935,-6.580646 6.580645,-6.580646 3.638709,0 6.580645,2.941936 6.580645,6.580646 z m -4.258064,0 c 0,-1.27742 -1.045162,-2.322581 -2.32258,-2.322581 -1.27742,0 -2.322581,1.045161 -2.322581,2.322581 0,1.27742 1.045161,2.322581 2.322581,2.322581 1.277418,0 2.32258,-1.045161 2.32258,-2.322581 z m -8.129032,8.129033 v -1.548387 h -1.16129 v 4.296774 c 0.774193,0.154839 1.354838,0.735484 1.509677,1.509677 h 4.296774 V 24.51613 H 13.280644 Z M 25.280644,5.548387 v 20.903227 c 0,0.851613 -0.696774,1.548387 -1.548387,1.548387 H 8.248387 C 7.396774,28.000001 6.7,27.303227 6.7,26.451614 V 5.548387 C 6.7,4.696774 7.396774,4 8.248387,4 h 15.48387 c 0.851614,0 1.548388,0.696774 1.548387,1.548387 z M 7.86129,5.935484 c 0,0.425806 0.348387,0.774193 0.774194,0.774193 0.425806,0 0.774193,-0.348387 0.774193,-0.774193 0,-0.425807 -0.348387,-0.774194 -0.774193,-0.774194 -0.425807,0 -0.774194,0.348387 -0.774194,0.774194 z m 1.548387,20.129033 c 0,-0.425806 -0.348387,-0.774193 -0.774193,-0.774193 -0.425807,0 -0.774194,0.348387 -0.774194,0.774193 0,0.425807 0.348387,0.774194 0.774194,0.774194 0.425806,0 0.774193,-0.348387 0.774193,-0.774194 z M 23.34516,24.51613 V 13.290323 c 0,-4.064517 -3.290322,-7.354839 -7.354838,-7.354839 -4.064517,0 -7.354838,3.290322 -7.354838,7.354839 V 24.51613 c 0.851613,0 1.548387,0.696774 1.548387,1.548387 h 11.612902 c 0,-0.851613 0.696774,-1.548387 1.548387,-1.548387 z m 0.774195,1.548387 c 0,-0.425806 -0.348387,-0.774193 -0.774195,-0.774193 -0.425806,0 -0.774193,0.348387 -0.774193,0.774193 0,0.425807 0.348387,0.774194 0.774193,0.774194 0.425807,0 0.774195,-0.348387 0.774195,-0.774194 z m 0,-20.129033 c 0,-0.425807 -0.348387,-0.774194 -0.774195,-0.774194 -0.425806,0 -0.774193,0.348387 -0.774193,0.774194 0,0.425806 0.348387,0.774193 0.774193,0.774193 0.425807,0 0.774195,-0.348387 0.774195,-0.774193 z"
       id="path2"
       style="fill:#000000;fill-opacity:1;stroke-width:0.387097" />
  </g>
  <g
     id="22-22-drive-harddisk">
    <rect
       style="opacity:0.00100002"
       width="22"
       height="22"
       x="0"
       y="0"
       id="rect2" />
    <path
       d="m 11.50968,9.193547 c 0,0.283872 -0.232262,0.516133 -0.516134,0.516133 -0.283866,0 -0.516128,-0.232261 -0.516128,-0.516133 0,-0.283867 0.232262,-0.516129 0.516128,-0.516129 0.283872,0 0.516134,0.232262 0.516134,0.516129 z m -3.096781,6.193554 c -0.3612888,-0.361292 -0.3612888,-0.92904 0,-1.264519 0.361292,-0.361034 3.329039,-2.064521 3.329039,-2.064521 0,0 -1.703234,2.967748 -2.038713,3.32904 -0.361286,0.335481 -0.929034,0.335481 -1.290326,0 z M 9.058061,15 c 0.154838,0 0.258068,-0.103225 0.258068,-0.258061 0,-0.154838 -0.10323,-0.258068 -0.258068,-0.258068 -0.154836,0 -0.258062,0.10323 -0.258062,0.258068 C 8.799999,14.896775 8.903225,15 9.058061,15 Z m 6.322585,-5.806453 c 0,2.374196 -1.883871,4.283871 -4.206455,4.387101 0.387103,-0.670968 0.748129,-1.264518 0.825808,-1.393547 0.05165,-0.10323 0.05165,-0.232261 -0.05162,-0.309682 -0.072,-0.108381 -0.204138,-0.130318 -0.309685,-0.07766 -0.206453,0.10322 -1.445159,0.825804 -2.374186,1.393551 H 9.212878 C 7.6903018,12.522598 6.6064296,10.974209 6.6064296,9.193562 c 0,-2.425803 1.9612914,-4.387093 4.3870934,-4.387093 2.425806,0 4.387101,1.96129 4.387102,4.387093 z m -2.838707,0 c 0,-0.851608 -0.696779,-1.548387 -1.548392,-1.548387 -0.851608,0 -1.548387,0.696779 -1.548387,1.548387 0,0.851614 0.696779,1.548392 1.548387,1.548392 0.851613,0 1.548392,-0.696778 1.548392,-1.548392 z M 7.122582,14.6129 V 13.580648 H 6.3483874 v 2.864513 c 0.5161286,0.10323 0.9032231,0.49032 1.0064526,1.006449 h 2.864512 V 16.677418 H 9.187099 Z M 17.187099,4.032257 V 17.967743 C 17.187099,18.535481 16.72258,19 16.154838,19 H 5.832258 C 5.264516,19 4.8,18.535481 4.8,17.967743 V 4.032257 C 4.8,3.464519 5.264516,3 5.832258,3 h 10.32258 c 0.567743,0 1.032262,0.464519 1.032261,1.032257 z M 5.5741936,4.29032 c 0,0.283871 0.2322578,0.516133 0.5161289,0.516133 0.2838711,0 0.5161289,-0.232262 0.5161289,-0.516133 0,-0.283867 -0.2322578,-0.516129 -0.5161289,-0.516129 -0.2838711,0 -0.5161289,0.232262 -0.5161289,0.516129 z m 1.0322578,13.41936 c 0,-0.283871 -0.2322578,-0.516133 -0.5161289,-0.516133 -0.2838711,0 -0.5161289,0.232262 -0.5161289,0.516133 0,0.283867 0.2322578,0.516129 0.5161289,0.516129 0.2838711,0 0.5161289,-0.232262 0.5161289,-0.516129 z M 15.896774,16.677418 V 9.193547 c 0,-2.709676 -2.193549,-4.903227 -4.903228,-4.903227 -2.709676,0 -4.9032235,2.193551 -4.9032235,4.903227 v 7.483871 c 0.5677424,0 1.0322595,0.464521 1.0322595,1.032262 h 7.741935 c 0,-0.567741 0.464519,-1.032262 1.032257,-1.032262 z m 0.516125,1.032262 c 0,-0.283871 -0.232252,-0.516133 -0.516125,-0.516133 -0.283875,0 -0.516128,0.232262 -0.516128,0.516133 0,0.283867 0.232253,0.516129 0.516128,0.516129 0.283872,0 0.516125,-0.232262 0.516125,-0.516129 z m 0,-13.41936 c 0,-0.283867 -0.232252,-0.516129 -0.516125,-0.516129 -0.283875,0 -0.516128,0.232262 -0.516128,0.516129 0,0.283871 0.232253,0.516133 0.516128,0.516133 0.283872,0 0.516125,-0.232262 0.516125,-0.516133 z"
       id="path2-3"
       style="fill:#000000;fill-opacity:1;stroke-width:0.258061" />
  </g>
</svg>
