<?xml version="1.0" encoding="UTF-8" standalone="no"?>
<svg
   xmlns:dc="http://purl.org/dc/elements/1.1/"
   xmlns:cc="http://creativecommons.org/ns#"
   xmlns:rdf="http://www.w3.org/1999/02/22-rdf-syntax-ns#"
   xmlns:svg="http://www.w3.org/2000/svg"
   xmlns="http://www.w3.org/2000/svg"
   xmlns:sodipodi="http://sodipodi.sourceforge.net/DTD/sodipodi-0.dtd"
   xmlns:inkscape="http://www.inkscape.org/namespaces/inkscape"
   width="22"
   height="22"
   version="1"
   id="svg12"
   sodipodi:docname="kdeconnect.svg"
   inkscape:version="1.0.2 (e86c870879, 2021-01-15)">
  <metadata
     id="metadata18">
    <rdf:RDF>
      <cc:Work
         rdf:about="">
        <dc:format>image/svg+xml</dc:format>
        <dc:type
           rdf:resource="http://purl.org/dc/dcmitype/StillImage" />
      </cc:Work>
    </rdf:RDF>
  </metadata>
  <defs
     id="defs16" />
  <sodipodi:namedview
     pagecolor="#ffffff"
     bordercolor="#666666"
     borderopacity="1"
     objecttolerance="10"
     gridtolerance="10"
     guidetolerance="10"
     inkscape:pageopacity="0"
     inkscape:pageshadow="2"
     inkscape:window-width="1920"
     inkscape:window-height="1014"
     id="namedview14"
     showgrid="true"
     inkscape:zoom="13.876971"
     inkscape:cx="6.7425407"
     inkscape:cy="15.032379"
     inkscape:window-x="0"
     inkscape:window-y="0"
     inkscape:window-maximized="1"
     inkscape:current-layer="svg12"
     inkscape:document-rotation="0">
    <inkscape:grid
       type="xygrid"
       id="grid860"
       originx="-32"
       originy="-10" />
  </sodipodi:namedview>
  <g
     id="kdeconnect">
    <rect
       style="opacity:0.00100002"
       width="32"
       height="32"
       x="-32"
       y="-10"
       id="rect7" />
    <path
       style="fill:#147ab4;fill-opacity:1;fill-rule:evenodd;stroke:#ebebeb;stroke-width:0;stroke-miterlimit:4;stroke-dasharray:none;stroke-opacity:1"
       d="m -17.305411,-0.2093372 -0.03754,3.8024562 2.775061,-3.727899 2.250054,0.521907 -2.887567,3.690617 2.850066,3.914295 -2.175048,0.7083 -2.812566,-4.063409 v 3.653341 l -2.100048,0.335511 v -8.648725 z"
       id="path4158-1"
       inkscape:connector-curvature="0" />
    <path
       id="rect4274"
       style="fill:#000000;fill-opacity:1;fill-rule:evenodd;stroke:none;stroke-width:1.41176;stroke-miterlimit:4;stroke-dasharray:none;stroke-opacity:1"
       d="m -18.76461,15.176956 c 0,0.782142 0.535202,1.411824 1.411786,1.411824 h 2.823604 c 0.916835,0 1.411786,-0.629682 1.411786,-1.411824 0,-0.782139 -0.472806,-1.41178 -1.411786,-1.41178 h -2.823604 c -0.851936,0 -1.411786,0.629641 -1.411786,1.41178 z m -1.411794,-18.3533601 h 8.470801 c 0.502798,0 1.411772,0.061394 1.411772,1.4118001 v 12.706171 c 0,1.350433 -0.908974,1.411822 -1.411772,1.411822 h -8.470801 c -0.502799,0 -1.411799,-0.06152 -1.411799,-1.411822 V -1.764604 c 0,-1.3504152 0.909,-1.4118001 1.411799,-1.4118001 z M -21.431335,-6 C -22.409011,-6 -23,-5.4746241 -23,-4.5881999 V 16.58878 c 0,0.886411 0.590989,1.411786 1.568665,1.411786 h 10.980666 c 0.977646,0 1.568669,-0.525375 1.568669,-1.411786 V -4.5881999 C -8.882,-5.4746241 -9.473023,-6 -10.450669,-6 Z"
       inkscape:connector-curvature="0" />
  </g>
  <g
     id="22-22-kdeconnect">
    <g
       id="g893">
      <rect
         style="opacity:0.00100002"
         width="22"
         height="22"
         x="0"
         y="0"
         id="rect2" />
      <path
         style="fill:#147ab4;fill-opacity:1;fill-rule:evenodd;stroke:#ebebeb;stroke-width:0;stroke-miterlimit:4;stroke-dasharray:none;stroke-opacity:1"
         d="M 10.174991,6.860352 10.15,9.395262 12,6.910056 l 1.500002,0.34793 -1.925,2.460351 1.9,2.609467 -1.449998,0.472189 L 10.15,10.09112 v 2.435504 L 8.7500005,12.750293 V 6.984611 Z"
         id="path4158-1-3"
         inkscape:connector-curvature="0" />
      <path
         id="rect4274-6"
         style="fill:#000000;fill-opacity:1;fill-rule:evenodd;stroke:none;stroke-width:0.941163;stroke-miterlimit:4;stroke-dasharray:none;stroke-opacity:1"
         d="m 9.169531,17.11764 c 0,0.521417 0.356788,0.941191 0.941168,0.941191 h 1.882358 c 0.611208,0 0.941165,-0.419774 0.941165,-0.941191 0,-0.521415 -0.315194,-0.941171 -0.941165,-0.941171 h -1.882358 c -0.567948,0 -0.941168,0.419756 -0.941168,0.941171 z M 8.228351,4.882351 h 5.647068 c 0.335193,0 0.941162,0.04093 0.941162,0.941186 v 8.470575 c 0,0.900266 -0.605969,0.941188 -0.941162,0.941188 H 8.228351 c -0.335191,0 -0.941172,-0.04099 -0.941172,-0.941188 V 5.823537 c 0,-0.900257 0.605981,-0.941186 0.941172,-0.941186 z M 7.391748,3 C 6.739984,3 6.346,3.350243 6.346,3.941181 v 14.11765 C 6.346,18.649758 6.739984,19 7.391748,19 h 7.320271 c 0.651757,0 1.045759,-0.350242 1.045759,-0.941169 V 3.941181 C 15.757778,3.350243 15.363776,3 14.712019,3 Z"
         inkscape:connector-curvature="0" />
    </g>
  </g>
</svg>
