<?xml version="1.0" encoding="UTF-8" standalone="no"?>
<svg
   xmlns:dc="http://purl.org/dc/elements/1.1/"
   xmlns:cc="http://creativecommons.org/ns#"
   xmlns:rdf="http://www.w3.org/1999/02/22-rdf-syntax-ns#"
   xmlns:svg="http://www.w3.org/2000/svg"
   xmlns="http://www.w3.org/2000/svg"
   xmlns:sodipodi="http://sodipodi.sourceforge.net/DTD/sodipodi-0.dtd"
   xmlns:inkscape="http://www.inkscape.org/namespaces/inkscape"
   sodipodi:docname="klipper.svg"
   height="100%"
   width="100%"
   inkscape:version="1.0 (4035a4fb49, 2020-05-01)"
   version="1.1"
   id="svg"
   viewBox="0 0 22 22">
  <defs
     id="defs81">
    <style
       type="text/css"
       id="current-color-scheme" />
  </defs>
  <metadata
     id="metadata34">
    <rdf:RDF>
      <cc:Work
         rdf:about="">
        <dc:format>image/svg+xml</dc:format>
        <dc:type
           rdf:resource="http://purl.org/dc/dcmitype/StillImage" />
        <dc:title />
      </cc:Work>
    </rdf:RDF>
  </metadata>
  <sodipodi:namedview
     inkscape:document-rotation="0"
     inkscape:lockguides="true"
     inkscape:snap-bbox="true"
     inkscape:guide-bbox="true"
     showguides="false"
     borderlayer="false"
     inkscape:current-layer="svg"
     inkscape:window-maximized="1"
     inkscape:window-y="0"
     inkscape:window-x="0"
     inkscape:cy="8.1400562"
     inkscape:cx="36.21011"
     inkscape:zoom="8.3969444"
     showgrid="false"
     id="namedview32"
     inkscape:window-height="1018"
     inkscape:window-width="1920"
     inkscape:pageshadow="2"
     inkscape:pageopacity="0.10196078"
     guidetolerance="10"
     gridtolerance="10"
     objecttolerance="10"
     borderopacity="1"
     bordercolor="#000000"
     pagecolor="#ffffff">
    <inkscape:grid
       snapvisiblegridlinesonly="true"
       enabled="true"
       visible="true"
       empspacing="4"
       id="grid3046"
       type="xygrid" />
  </sodipodi:namedview>
  <g
     transform="matrix(0.04136355,0,0,0.04284008,3.275727,3.0000012)"
     id="g4145"
     style="fill:#000000;fill-opacity:1" />
  <g
     transform="matrix(0.04136355,0,0,0.04284008,3.275727,3.0000012)"
     id="g4147"
     style="fill:#000000;fill-opacity:1" />
  <g
     transform="matrix(0.04136355,0,0,0.04284008,3.275727,3.0000012)"
     id="g4149"
     style="fill:#000000;fill-opacity:1" />
  <g
     transform="matrix(0.04136355,0,0,0.04284008,3.275727,3.0000012)"
     id="g4151"
     style="fill:#000000;fill-opacity:1" />
  <g
     transform="matrix(0.04136355,0,0,0.04284008,3.275727,3.0000012)"
     id="g4153"
     style="fill:#000000;fill-opacity:1" />
  <g
     transform="matrix(0.04136355,0,0,0.04284008,3.275727,3.0000012)"
     id="g4155"
     style="fill:#000000;fill-opacity:1" />
  <g
     transform="matrix(0.04136355,0,0,0.04284008,3.275727,3.0000012)"
     id="g4157"
     style="fill:#000000;fill-opacity:1" />
  <g
     transform="matrix(0.04136355,0,0,0.04284008,3.275727,3.0000012)"
     id="g4159"
     style="fill:#000000;fill-opacity:1" />
  <g
     transform="matrix(0.04136355,0,0,0.04284008,3.275727,3.0000012)"
     id="g4161"
     style="fill:#000000;fill-opacity:1" />
  <g
     transform="matrix(0.04136355,0,0,0.04284008,3.275727,3.0000012)"
     id="g4163"
     style="fill:#000000;fill-opacity:1" />
  <g
     transform="matrix(0.04136355,0,0,0.04284008,3.275727,3.0000012)"
     id="g4165"
     style="fill:#000000;fill-opacity:1" />
  <g
     transform="matrix(0.04136355,0,0,0.04284008,3.275727,3.0000012)"
     id="g4167"
     style="fill:#000000;fill-opacity:1" />
  <g
     transform="matrix(0.04136355,0,0,0.04284008,3.275727,3.0000012)"
     id="g4169"
     style="fill:#000000;fill-opacity:1" />
  <g
     transform="matrix(0.04136355,0,0,0.04284008,3.275727,3.0000012)"
     id="g4171"
     style="fill:#000000;fill-opacity:1" />
  <g
     transform="matrix(0.04136355,0,0,0.04284008,3.275727,3.0000012)"
     id="g4173"
     style="fill:#000000;fill-opacity:1" />
  <g
     inkscape:label="#g4187"
     id="klipper">
    <rect
       y="0"
       x="0"
       height="22"
       width="22"
       id="rect3009"
       style="fill:#ffffff;fill-opacity:0;stroke:none" />
    <g
       id="g4181"
       transform="translate(-5.0000555e-8,-1.00025)">
      <path
         sodipodi:nodetypes="sssssssccccccs"
         id="path4156"
         style="fill:#232629;fill-opacity:1;fill-rule:evenodd;stroke:none;stroke-opacity:1"
         d="m 5.0099469,4.9922657 c 0,0 -1.0098357,0.011586 -1.0098357,1.7888956 V 18.222203 c 0,1.77731 -9.877e-4,1.778297 1.7767901,1.778297 H 16.223605 c 1.777778,0 1.77679,-9.87e-4 1.77679,-1.778297 V 6.7811613 C 18.000395,4.8271077 17,5.0048387 17.015705,5.0048387 H 17 V 19.10025 H 5.0000001 v -14.0954113 0 z"
         inkscape:connector-curvature="0" />
      <path
         sodipodi:nodetypes="ccccc"
         id="path4158"
         style="fill:#147ab4;fill-opacity:1;fill-rule:nonzero;stroke:none;stroke-width:1.2545;stroke-opacity:1"
         d="M 5.3000001,4 V 8.7213006 H 16.7 V 4 Z"
         inkscape:connector-curvature="0" />
      <path
         id="path4160"
         style="fill:#147ab4;fill-opacity:1;fill-rule:nonzero;stroke:none;stroke-opacity:1"
         d="m 7,12.80025 v 1 h 8 v -1 z"
         inkscape:connector-curvature="0" />
      <path
         id="path4162"
         style="fill:#147ab4;fill-opacity:1;fill-rule:nonzero;stroke:none;stroke-opacity:1"
         d="m 7,16.20025 v 1 h 8 v -1 z"
         inkscape:connector-curvature="0" />
    </g>
  </g>
</svg>
