<?xml version="1.0" encoding="UTF-8" standalone="no"?>
<svg
   xmlns:dc="http://purl.org/dc/elements/1.1/"
   xmlns:cc="http://creativecommons.org/ns#"
   xmlns:rdf="http://www.w3.org/1999/02/22-rdf-syntax-ns#"
   xmlns:svg="http://www.w3.org/2000/svg"
   xmlns="http://www.w3.org/2000/svg"
   xmlns:sodipodi="http://sodipodi.sourceforge.net/DTD/sodipodi-0.dtd"
   xmlns:inkscape="http://www.inkscape.org/namespaces/inkscape"
   version="1.0"
   id="svg7229"
   height="22"
   width="22"
   sodipodi:docname="media.svgz"
   inkscape:version="0.92.4 (5da689c313, 2019-01-14)">
  <sodipodi:namedview
     pagecolor="#ffffff"
     bordercolor="#666666"
     borderopacity="1"
     objecttolerance="10"
     gridtolerance="10"
     guidetolerance="10"
     inkscape:pageopacity="0"
     inkscape:pageshadow="2"
     inkscape:window-width="1280"
     inkscape:window-height="980"
     id="namedview43"
     showgrid="false"
     inkscape:zoom="3.7926636"
     inkscape:cx="63.477797"
     inkscape:cy="-3.1407844"
     inkscape:window-x="0"
     inkscape:window-y="0"
     inkscape:window-maximized="1"
     inkscape:current-layer="svg7229">
    <inkscape:grid
       type="xygrid"
       id="grid849" />
  </sodipodi:namedview>
  <metadata
     id="metadata45">
    <rdf:RDF>
      <cc:Work
         rdf:about="">
        <dc:format>image/svg+xml</dc:format>
        <dc:type
           rdf:resource="http://purl.org/dc/dcmitype/StillImage" />
        <dc:title />
      </cc:Work>
    </rdf:RDF>
  </metadata>
  <defs
     id="defs7231">
    <style
       type="text/css"
       id="current-color-scheme">
      .ColorScheme-Text {
        color:#31363b;
      }
      .ColorScheme-Background{
        color:#eff0f1;
      }
      .ColorScheme-ViewText {
        color:#31363b;
      }
      .ColorScheme-ViewBackground{
        color:#ffffff;
      }
      .ColorScheme-ViewHover {
        color:#000000;
      }
      .ColorScheme-ViewFocus{
        color:#5a5a5a;
      }
      .ColorScheme-ButtonText {
        color:#31363b;
      }
      .ColorScheme-ButtonBackground{
        color:#E9E8E8;
      }
      .ColorScheme-ButtonHover {
        color:#1489ff;
      }
      .ColorScheme-ButtonFocus{
        color:#2B74C7;
      }
</style>
  </defs>
  <g
     transform="translate(-214.53572,-404.50504)"
     id="layer1">
    <g
       class="ColorScheme-Text"
       style="fill:currentColor"
       id="media-playback-pause"
       transform="matrix(1.4999765,0,0,1.4999765,209.03579,-1146.5136)">
      <rect
         y="1034.0287"
         x="3.6666775"
         height="14.666837"
         width="14.666897"
         id="rect3003-0"
         style="opacity:0.01000001;fill:#ed1515;fill-opacity:0.00392157;stroke:none" />
      <path
         class="ColorScheme-Text"
         d="m 12.105792,1037.4466 h 2.752862 v 8.2315 h -2.752862 z m -5.5057353,0 h 2.7528664 v 8.2315 H 6.6000567 Z"
         style="color:#31363b;fill:currentColor;stroke-width:0.77424616"
         id="rect3287-9"
         inkscape:connector-curvature="0" />
    </g>
    <g
       class="ColorScheme-Text"
       style="fill:currentColor"
       id="media-playback-start"
       transform="matrix(1.4999765,0,0,1.4999765,233.03531,-1146.5136)">
      <rect
         y="1034.0287"
         x="3.6669974"
         height="14.666837"
         width="14.666897"
         id="rect3003-1"
         style="opacity:0.01000001;fill:#ed1515;fill-opacity:0.00392157;stroke:none" />
      <path
         class="ColorScheme-Text"
         d="m 8.1410675,1045.4248 7.2200335,-4.1297 -7.2200335,-4.1291 z"
         style="color:#31363b;fill:currentColor;stroke-width:0.77484429"
         id="path3357-8"
         inkscape:connector-curvature="0" />
    </g>
    <g
       style="fill:#31363b"
       id="media-playback-stop"
       transform="matrix(1.4999765,0,0,1.4999765,257.03484,-1146.5136)">
      <rect
         y="1034.0287"
         x="3.6673107"
         height="14.666837"
         width="14.666897"
         id="rect3003-3"
         style="opacity:0.01000001;fill:#ed1515;fill-opacity:0.00392157;stroke:none" />
      <path
         class="ColorScheme-Text"
         d="m 6.6006901,1037.0327 h 8.3308109 v 8.3261 H 6.6006901 Z"
         style="color:#31363b;fill:currentColor;stroke-width:0.78110689"
         id="rect3274-5"
         inkscape:connector-curvature="0" />
    </g>
    <g
       id="media-record"
       transform="matrix(1.4999765,0,0,1.4999765,281.03438,-1146.5136)">
      <rect
         y="1034.0287"
         x="3.6676176"
         height="14.666837"
         width="14.666897"
         id="rect3003-03"
         style="opacity:0.01000001;fill:#ed1515;fill-opacity:0.00392157;stroke:none" />
      <rect
         style="fill:#da4453;stroke-width:0.77494568"
         id="rect3274-0"
         width="8.2620211"
         height="8.2647963"
         x="6.6023293"
         y="1036.8961"
         ry="4.1323981" />
    </g>
    <g
       class="ColorScheme-Text"
       style="fill:currentColor"
       id="media-seek-backward"
       transform="matrix(1.4999765,0,0,1.4999765,305.03389,-1146.5136)">
      <rect
         y="1034.562"
         x="3.6679442"
         height="14.666837"
         width="14.666897"
         id="rect3003-07"
         style="opacity:0.01000001;fill:#ed1515;fill-opacity:0.00392157;stroke:none" />
      <path
         class="ColorScheme-Text"
         d="m 10.399984,1044.9594 -4.1313325,-4.1304 4.1313325,-4.1305 z m 4.13133,0 -4.13133,-4.1304 4.13133,-4.1305 z"
         style="color:#31363b;fill:currentColor;stroke-width:0.77486569"
         id="path4148-6"
         inkscape:connector-curvature="0" />
    </g>
    <g
       class="ColorScheme-Text"
       style="fill:currentColor"
       id="media-seek-forward"
       transform="matrix(1.4999765,0,0,1.4999765,329.08783,-1146.5136)">
      <rect
         y="1034.0287"
         x="3.8319867"
         height="14.666837"
         width="14.666897"
         id="rect3003-2"
         style="opacity:0.01000001;fill:#ed1515;fill-opacity:0.00392157;stroke:none" />
      <path
         class="ColorScheme-Text"
         d="m 11.660772,1045.0289 4.156061,-4.1348 -4.156061,-4.132 z m -4.1560611,0 4.1560611,-4.1348 -4.1560611,-4.132 z"
         style="color:#31363b;fill:currentColor;stroke-width:0.77507663"
         id="path4148-8"
         inkscape:connector-curvature="0" />
    </g>
    <g
       class="ColorScheme-Text"
       style="fill:currentColor"
       id="media-skip-backward"
       transform="matrix(1.4999765,0,0,1.4999765,353.03297,-1146.5136)">
      <rect
         y="1034.0287"
         x="3.6685574"
         height="14.666837"
         width="14.666897"
         id="rect3003-9"
         style="opacity:0.01000001;fill:#ed1515;fill-opacity:0.00392157;stroke:none" />
      <path
         class="ColorScheme-Text"
         id="rect3356-04"
         d="m 6.9939428,1036.9655 v 8.2601 h 2.7593653 v -4.1311 -4.129 z m 2.7593653,4.129 5.5187369,4.1311 v -8.2601 z"
         style="color:#31363b;fill:currentColor;stroke-width:0.77488506"
         inkscape:connector-curvature="0" />
    </g>
    <g
       class="ColorScheme-Text"
       style="fill:currentColor"
       id="media-skip-forward"
       transform="matrix(1.4999765,0,0,1.4999765,377.03248,-1146.5136)">
      <rect
         y="1034.0287"
         x="3.668884"
         height="14.666837"
         width="14.666897"
         id="rect3003-7"
         style="opacity:0.01000001;fill:#ed1515;fill-opacity:0.00392157;stroke:none" />
      <path
         class="ColorScheme-Text"
         d="m 12.176651,1037.0312 h 2.749859 v 8.2615 h -2.749859 z m -5.4997197,8.2615 5.4997247,-4.131 -5.4997247,-4.1305 z"
         style="color:#31363b;fill:currentColor;stroke-width:0.77489275"
         id="rect3402-4"
         inkscape:connector-curvature="0" />
    </g>
    <g
       id="media-eject"
       transform="matrix(1.2499744,0,0,1.2499744,404.28584,-886.17115)">
      <rect
         y="1032.5621"
         x="1.7999408"
         height="17.600325"
         width="17.600361"
         id="rect3003"
         style="opacity:0.01000001;fill:#ed1515;fill-opacity:0.00392157;stroke:none" />
      <path
         id="path6"
         class="ColorScheme-Text"
         d="m 10.421322,1036.1598 -5.5773188,6.6174 H 15.998645 Z m -5.5773188,8.1893 v 1.7365 H 15.998645 v -1.7365 z"
         style="color:#31363b;fill:currentColor;stroke-width:0.77507347"
         inkscape:connector-curvature="0" />
    </g>
    <g
       class="ColorScheme-Text"
       style="fill:currentColor"
       id="media-playback-paused"
       transform="matrix(1.4999765,0,0,1.4999765,209.03579,-1122.5136)">
      <rect
         y="1034.0287"
         x="3.6666775"
         height="14.666837"
         width="14.666897"
         id="rect3003-0-3"
         style="opacity:0.01000001;fill:#ed1515;fill-opacity:0.00392157;stroke:none" />
      <path
         class="ColorScheme-Text"
         d="m 11.666692,1039.3621 1.333385,0 0,4.0002 -1.333385,0 z m -2.6667693,0 1.3333853,0 0,4.0002 -1.3333853,0 z M 11,1036.0287 c -2.9547808,0 -5.3335394,2.3787 -5.3335394,5.3335 0,2.9548 2.3787586,5.3335 5.3335394,5.3335 2.954781,0 5.333539,-2.3787 5.333539,-5.3335 0,-2.9548 -2.378758,-5.3335 -5.333539,-5.3335 z m 0,0.6667 c 2.585433,0 4.666847,2.0813 4.666847,4.6668 0,2.5855 -2.081414,4.6668 -4.666847,4.6668 -2.5854332,0 -4.666847,-2.0813 -4.666847,-4.6668 0,-2.5855 2.0814138,-4.6668 4.666847,-4.6668 z"
         style="fill:currentColor;fill-opacity:1;stroke:none"
         id="rect3287-9-5" />
    </g>
    <g
       class="ColorScheme-Text"
       style="fill:currentColor"
       id="media-playback-playing"
       transform="matrix(1.4999765,0,0,1.4999765,233.03531,-1122.5136)">
      <rect
         y="1034.0287"
         x="3.6669974"
         height="14.666837"
         width="14.666897"
         id="rect3003-1-2"
         style="opacity:0.01000001;fill:#ed1515;fill-opacity:0.00392157;stroke:none" />
      <path
         class="ColorScheme-Text"
         d="m 9.6665342,1043.3624 2.6669318,-2.0002 -2.6669318,-2.0002 z M 11,1036.0283 c -2.9549601,0 -5.333863,2.3789 -5.333863,5.3339 0,2.955 2.3789029,5.3339 5.333863,5.3339 2.95496,0 5.333863,-2.3789 5.333863,-5.3339 0,-2.955 -2.378903,-5.3339 -5.333863,-5.3339 z m 0,0.6668 c 2.58559,0 4.66713,2.0815 4.66713,4.6671 0,2.5856 -2.08154,4.6671 -4.66713,4.6671 -2.5855901,0 -4.6671301,-2.0815 -4.6671301,-4.6671 0,-2.5856 2.08154,-4.6671 4.6671301,-4.6671 z"
         style="fill:currentColor;fill-opacity:1;stroke:none"
         id="path3357-8-9" />
    </g>
    <g
       class="ColorScheme-Text"
       style="fill:currentColor"
       id="media-playback-stopped"
       transform="matrix(1.4999765,0,0,1.4999765,257.03484,-1122.5136)">
      <rect
         y="1034.0287"
         x="3.6673107"
         height="14.666837"
         width="14.666897"
         id="rect3003-3-2"
         style="opacity:0.01;fill:#ed1515;fill-opacity:0.00392157;stroke:none" />
      <path
         id="path41"
         d="m 8.9999227,1039.3621 4.0001543,0 0,4.0002 -4.0001543,0 z M 11,1036.0287 c -2.9547808,0 -5.3335394,2.3787 -5.3335394,5.3335 0,2.9548 2.3787586,5.3335 5.3335394,5.3335 2.954781,0 5.333539,-2.3787 5.333539,-5.3335 0,-2.9548 -2.378758,-5.3335 -5.333539,-5.3335 z m 0,0.6667 c 2.585433,0 4.666847,2.0813 4.666847,4.6668 0,2.5855 -2.081414,4.6668 -4.666847,4.6668 -2.5854332,0 -4.666847,-2.0813 -4.666847,-4.6668 0,-2.5855 2.0814138,-4.6668 4.666847,-4.6668 z"
         class="ColorScheme-Text"
         style="fill:currentColor" />
    </g>
  </g>
</svg>
