<?xml version="1.0" encoding="UTF-8" standalone="no"?>
<svg
   width="32"
   height="32"
   viewBox="0 0 32 32"
   version="1.1"
   id="svg867"
   inkscape:version="1.1.1 (3bf5ae0d25, 2021-09-20)"
   sodipodi:docname="redshift.svg"
   xmlns:inkscape="http://www.inkscape.org/namespaces/inkscape"
   xmlns:sodipodi="http://sodipodi.sourceforge.net/DTD/sodipodi-0.dtd"
   xmlns:xlink="http://www.w3.org/1999/xlink"
   xmlns="http://www.w3.org/2000/svg"
   xmlns:svg="http://www.w3.org/2000/svg"
   xmlns:rdf="http://www.w3.org/1999/02/22-rdf-syntax-ns#"
   xmlns:cc="http://creativecommons.org/ns#"
   xmlns:dc="http://purl.org/dc/elements/1.1/">
  <defs
     id="defs3871">
    <linearGradient
       inkscape:collect="always"
       id="linearGradient883">
      <stop
         style="stop-color:#30a6e8;stop-opacity:1"
         offset="0"
         id="stop879" />
      <stop
         style="stop-color:#c8e0e7;stop-opacity:1"
         offset="1"
         id="stop881" />
    </linearGradient>
    <style
       type="text/css"
       id="current-color-scheme" />
    <linearGradient
       inkscape:collect="always"
       xlink:href="#linearGradient883"
       id="linearGradient874"
       x1="16.492517"
       y1="4.0250001"
       x2="16.492693"
       y2="17.340734"
       gradientUnits="userSpaceOnUse" />
    <linearGradient
       inkscape:collect="always"
       xlink:href="#linearGradient883"
       id="linearGradient884"
       gradientUnits="userSpaceOnUse"
       x1="11.964216"
       y1="4.0250001"
       x2="11.96439"
       y2="17.060686" />
    <linearGradient
       inkscape:collect="always"
       xlink:href="#linearGradient883"
       id="linearGradient894"
       gradientUnits="userSpaceOnUse"
       x1="9.7002859"
       y1="6.348104"
       x2="9.7002859"
       y2="16.655979" />
    <linearGradient
       inkscape:collect="always"
       xlink:href="#linearGradient883"
       id="linearGradient904"
       gradientUnits="userSpaceOnUse"
       x1="22.379532"
       y1="6.3485188"
       x2="22.379532"
       y2="16.985901" />
    <linearGradient
       inkscape:collect="always"
       xlink:href="#linearGradient883"
       id="linearGradient914"
       gradientUnits="userSpaceOnUse"
       x1="-30.256725"
       y1="13"
       x2="-30.256725"
       y2="20.40416" />
    <linearGradient
       inkscape:collect="always"
       xlink:href="#linearGradient883"
       id="linearGradient924"
       gradientUnits="userSpaceOnUse"
       x1="-33.275597"
       y1="13"
       x2="-33.275597"
       y2="20.194719" />
    <linearGradient
       inkscape:collect="always"
       xlink:href="#linearGradient883"
       id="linearGradient934"
       gradientUnits="userSpaceOnUse"
       x1="-37.200146"
       y1="14.548741"
       x2="-37.200146"
       y2="20.830006" />
    <linearGradient
       inkscape:collect="always"
       xlink:href="#linearGradient883"
       id="linearGradient944"
       gradientUnits="userSpaceOnUse"
       x1="-28.747288"
       y1="14.549018"
       x2="-28.747288"
       y2="21.199724" />
  </defs>
  <sodipodi:namedview
     inkscape:object-paths="true"
     guideopacity="0.62745098"
     guidecolor="#0000ff"
     inkscape:bbox-nodes="true"
     inkscape:snap-intersection-paths="true"
     inkscape:snap-bbox="true"
     id="base"
     pagecolor="#ffffff"
     bordercolor="#000000"
     borderopacity="1"
     inkscape:pageopacity="0"
     inkscape:pageshadow="2"
     inkscape:zoom="5.6568543"
     inkscape:cx="9.4575531"
     inkscape:cy="22.45064"
     inkscape:document-units="px"
     inkscape:current-layer="layer1"
     inkscape:document-rotation="0"
     showgrid="false"
     inkscape:window-width="1920"
     inkscape:window-height="1007"
     inkscape:window-x="0"
     inkscape:window-y="0"
     inkscape:window-maximized="1"
     units="px"
     inkscape:snap-bbox-edge-midpoints="false"
     inkscape:lockguides="true"
     inkscape:pagecheckerboard="0"
     inkscape:showpageshadow="true">
    <inkscape:grid
       opacity="0.41960784"
       color="#3f3fff"
       type="xygrid"
       id="grid1448"
       originx="-3.5527137e-15"
       originy="0" />
  </sodipodi:namedview>
  <metadata
     id="metadata864">
    <rdf:RDF>
      <cc:Work
         rdf:about="">
        <dc:format>image/svg+xml</dc:format>
        <dc:type
           rdf:resource="http://purl.org/dc/dcmitype/StillImage" />
      </cc:Work>
    </rdf:RDF>
  </metadata>
  <g
     inkscape:label="Layer 1"
     inkscape:groupmode="layer"
     id="layer1">
    <g
       id="redshift-status-on">
      <rect
         y="0"
         x="3.5527137e-15"
         height="32"
         width="32"
         id="rect910"
         style="opacity:0.003;fill:#000000;stroke-width:1" />
      <polygon
         points="59,66 50,66 41,66 41,66.25 41,69 43.200012,69 50,69 56.799988,69 59,69 59,66.25 "
         id="polygon6"
         transform="matrix(0.45283019,0,0,0.45283019,-6.601601,-6.616509)"
         style="fill:#000000;fill-opacity:1" />
      <path
         d="M 16.039909,25.534434 H 13.685186 12.00338 c 0.317235,2.007969 2.715627,2.397148 3.659124,2.471661 0.206654,0.01633 0.348716,0.01882 0.377405,0.0189 0.02869,-8.3e-5 0.170751,-0.0026 0.377404,-0.0189 0.943498,-0.07451 3.341889,-0.463692 3.659125,-2.471661 h -1.681807 z"
         id="path8"
         style="fill:#000000;fill-opacity:1;stroke-width:0.45283" />
      <path
         d="M 15.587079,5.836321 C 15.580879,5.663193 15.475198,4.025 13.775758,4.025 c -1.69944,0 -1.80513,1.638193 -1.811542,1.825029 l 2.21e-4,14.250443 h 3.622642 z"
         id="path10"
         style="fill:url(#linearGradient884);fill-opacity:1;stroke-width:0.45283" />
      <path
         d="m 22.379531,8.100472 c 0,-1.231326 -0.821445,-1.6257 -1.358711,-1.751953 l 2.21e-4,13.751953 h 1.35849 z"
         id="path12-3"
         style="fill:url(#linearGradient904);fill-opacity:1;stroke-width:0.45283" />
      <path
         d="M 20.11538,5.836321 C 20.10918,5.663193 20.0035,4.025 18.30406,4.025 c -1.699413,0 -1.80513,1.638138 -1.811542,1.825029 v 0.757656 l 2.21e-4,13.492787 h 3.622641 z"
         id="path14-67"
         style="fill:url(#linearGradient874);fill-opacity:1;stroke-width:0.45283"
         sodipodi:nodetypes="csccccc" />
      <path
         d="m 9.700286,8.100472 v 12 h 1.358491 V 6.348104 C 10.516398,6.472616 9.700286,6.864005 9.700286,8.100472 Z"
         id="path16-5"
         style="fill:url(#linearGradient894);fill-opacity:1;stroke-width:0.45283" />
      <path
         d="m 20.921072,22.364623 h 0.779214 c 0.166274,-0.0015 1.515257,-0.05484 1.769974,-1.358491 H 22.832362 20.568211 16.039909 11.511607 9.247456 8.61 c 0.26533,1.341686 1.702314,1.358491 1.769531,1.358491 h 0.779214 0.705723 4.175441 4.17544 z"
         id="path18-3"
         style="fill:#000000;fill-opacity:1;stroke-width:0.45283" />
    </g>
    <g
       id="redshift-status-off">
      <rect
         style="opacity:0.003;fill:#000000;stroke-width:1"
         id="rect1033"
         width="32"
         height="32"
         x="32"
         y="0" />
      <polygon
         points="41,69 43.200012,69 50,69 56.799988,69 59,69 59,66.25 59,66 50,66 41,66 41,66.25 "
         id="polygon6-5"
         transform="matrix(0.45283019,0,0,0.45283019,24.698113,-6.716981)"
         style="fill:#000000;fill-opacity:1" />
      <path
         d="M 47.339623,25.433962 H 44.9849 43.303094 c 0.317235,2.007969 2.715627,2.397148 3.659124,2.471661 0.206654,0.01633 0.348716,0.01882 0.377405,0.0189 0.02869,-8.3e-5 0.170751,-0.0026 0.377404,-0.0189 0.943498,-0.07451 3.341889,-0.463692 3.659125,-2.471661 h -1.681807 z"
         id="path8-6"
         style="fill:#000000;fill-opacity:1;stroke-width:0.45283" />
      <path
         d="m 46.886793,5.735849 c -0.0062,-0.173128 -0.111881,-1.811321 -1.811321,-1.811321 -1.69944,0 -1.80513,1.638193 -1.811542,1.825029 L 43.264151,20 h 3.622642 z"
         id="path10-2"
         style="fill:#9ea5ad;fill-opacity:1;stroke-width:0.45283" />
      <path
         d="m 53.679245,8 c 0,-1.231326 -0.821445,-1.6257 -1.358711,-1.751953 L 52.320755,20 h 1.35849 z"
         id="path12-9"
         style="fill:#9ea5ad;fill-opacity:1;stroke-width:0.45283"
         sodipodi:nodetypes="scccs" />
      <path
         d="m 51.415094,5.735849 c -0.0062,-0.173128 -0.11188,-1.811321 -1.81132,-1.811321 -1.699413,0 -1.80513,1.638138 -1.811542,1.825029 V 6.507213 L 47.792453,20 h 3.622641 v -5.982114 z"
         id="path14-1"
         style="fill:#9ea5ad;fill-opacity:1;stroke-width:0.45283"
         sodipodi:nodetypes="cscccccc" />
      <path
         d="m 41,8 v 12 h 1.358491 V 6.247632 C 41.816112,6.372144 41,6.763533 41,8 Z"
         id="path16-27"
         style="fill:#9ea5ad;fill-opacity:1;stroke-width:0.45283" />
      <path
         d="M 52.220786,22.264151 H 53 c 0.166274,-0.0015 1.515257,-0.05484 1.769974,-1.358491 H 54.132076 51.867925 47.339623 42.811321 40.54717 39.909714 c 0.26533,1.341686 1.702314,1.358491 1.769531,1.358491 h 0.779214 0.705723 4.175441 4.17544 z"
         id="path18-0"
         style="fill:#000000;fill-opacity:1;stroke-width:0.45283" />
    </g>
    <g
       id="22-22-redshift-status-on">
      <rect
         y="10"
         x="-44"
         height="22"
         width="22"
         id="rect1467-9-7-9-9-4"
         style="opacity:0.003;fill-opacity:1" />
      <polygon
         points="59,66 50,66 41,66 41,66.25 41,69 43.200012,69 50,69 56.799988,69 59,69 59,66.25 "
         id="polygon6-9"
         transform="matrix(0.3018877,0,0,0.3018877,-48.068101,5.9056402)"
         style="fill:#000000;fill-opacity:1" />
      <path
         d="m -32.973715,27.339665 h -1.569818 -1.121203 c 0.21148,1.338657 1.810424,1.598098 2.439422,1.647787 0.137764,0.01086 0.23248,0.01251 0.251599,0.01255 0.01909,-5.3e-5 0.113841,-0.0022 0.251606,-0.01255 0.629003,-0.04971 2.227934,-0.30913 2.439422,-1.647787 h -1.121203 z"
         id="path8-3"
         style="fill:#000000;fill-opacity:1;stroke-width:0.301883"
         sodipodi:nodetypes="ccccccccc" />
      <path
         d="M -33.275598,14.207551 C -33.279898,14.092133 -33.350128,13 -34.483151,13 c -1.132963,0 -1.203424,1.092133 -1.207705,1.21669 l 1.49e-4,9.500326 h 2.415109 z"
         id="path10-6"
         style="fill:url(#linearGradient924);fill-opacity:1;stroke-width:0.301883" />
      <path
         d="m -28.747288,15.71699 c 0,-0.820886 -0.547625,-1.083803 -0.905807,-1.167972 l 1.49e-4,9.167998 h 0.905658 z"
         id="path12-06"
         style="fill:url(#linearGradient944);fill-opacity:1;stroke-width:0.301883" />
      <path
         d="M -30.256726,14.207551 C -30.261026,14.092133 -30.331256,13 -31.464279,13 c -1.132936,0 -1.20342,1.092095 -1.207698,1.21669 v 0.505106 l 1.54e-4,8.99522 h 2.415097 z"
         id="path14-26"
         style="fill:url(#linearGradient914);fill-opacity:1;stroke-width:0.301883"
         sodipodi:nodetypes="csccccc" />
      <path
         d="m -37.200145,15.71699 v 8.000026 h 0.905669 v -9.168275 c -0.361582,0.08301 -0.905669,0.343935 -0.905669,1.168249 z"
         id="path16-1"
         style="fill:url(#linearGradient934);fill-opacity:1;stroke-width:0.301883" />
      <path
         d="m -29.719594,25.226455 h 0.519477 c 0.110853,-0.0014 1.010173,-0.03655 1.179985,-0.905668 h -0.425266 -1.509435 -3.018882 -3.018872 -1.509436 -0.424977 c 0.176883,0.894463 1.134878,0.905668 1.179695,0.905668 h 0.519468 0.470492 2.78363 2.783637 z"
         id="path18-8"
         style="fill:#000000;fill-opacity:1;stroke-width:0.301883" />
    </g>
    <g
       id="22-22-redshift-status-off">
      <rect
         style="opacity:0.003;fill-opacity:1"
         id="rect1467-9-7-9-9-4-67"
         width="22"
         height="22"
         x="-22"
         y="10" />
      <polygon
         points="41,66 41,66.25 41,69 43.200012,69 50,69 56.799988,69 59,69 59,66.25 59,66 50,66 "
         id="polygon6-9-7"
         transform="matrix(0.3018877,0,0,0.3018877,-26.541101,5.90564)"
         style="fill:#000000;fill-opacity:1" />
      <path
         d="m -11.446715,27.339665 h -1.569818 -1.121203 c 0.21148,1.338657 1.810424,1.598098 2.439422,1.647787 0.137764,0.01086 0.23248,0.01251 0.251599,0.01255 0.01909,-5.3e-5 0.113841,-0.0022 0.251606,-0.01255 0.629003,-0.04971 2.2279339,-0.30913 2.4394219,-1.647787 H -9.87689 Z"
         id="path8-3-9"
         style="fill:#000000;fill-opacity:1;stroke-width:0.301883" />
      <path
         d="M -11.748598,14.207551 C -11.752898,14.092132 -11.823128,13 -12.956151,13 c -1.132963,0 -1.203424,1.092132 -1.207705,1.21669 l 1.49e-4,9.500325 h 2.415109 z"
         id="path10-6-2"
         style="fill:#9ea5ad;fill-opacity:1;stroke-width:0.301883" />
      <path
         d="m -7.2202881,15.716989 c 0,-0.820886 -0.547625,-1.083803 -0.905807,-1.167971 l 1.49e-4,9.167997 h 0.905658 z"
         id="path12-06-0"
         style="fill:#9ea5ad;fill-opacity:1;stroke-width:0.301883" />
      <path
         d="M -8.7297261,14.207551 C -8.7340261,14.092132 -8.8042561,13 -9.937279,13 c -1.132936,0 -1.20342,1.092095 -1.207698,1.21669 v 0.505105 l 1.54e-4,8.99522 h 2.4150969 z"
         id="path14-26-2"
         style="fill:#9ea5ad;fill-opacity:1;stroke-width:0.301883" />
      <path
         d="m -15.673145,15.716989 v 8.000026 h 0.905669 v -9.168274 c -0.361582,0.08301 -0.905669,0.343935 -0.905669,1.168248 z"
         id="path16-1-3"
         style="fill:#9ea5ad;fill-opacity:1;stroke-width:0.301883" />
      <path
         d="m -8.1925941,25.226455 h 0.519477 c 0.110853,-0.0014 1.0101734,-0.03655 1.1799854,-0.905668 h -0.425266 -1.5094354 -3.0188819 -3.018872 -1.509436 H -16.4 c 0.176883,0.894463 1.134878,0.905668 1.179695,0.905668 h 0.519468 0.470492 2.78363 2.7836369 z"
         id="path18-8-7"
         style="fill:#000000;fill-opacity:1;stroke-width:0.301883" />
    </g>
  </g>
</svg>
