<?xml version="1.0" encoding="UTF-8" standalone="no"?>
<svg
   width="32"
   height="32"
   version="1.1"
   id="svg22"
   sodipodi:docname="touchpad.svg"
   inkscape:version="1.2 (dc2aedaf03, 2022-05-15)"
   xmlns:inkscape="http://www.inkscape.org/namespaces/inkscape"
   xmlns:sodipodi="http://sodipodi.sourceforge.net/DTD/sodipodi-0.dtd"
   xmlns="http://www.w3.org/2000/svg"
   xmlns:svg="http://www.w3.org/2000/svg"
   xmlns:rdf="http://www.w3.org/1999/02/22-rdf-syntax-ns#"
   xmlns:cc="http://creativecommons.org/ns#"
   xmlns:dc="http://purl.org/dc/elements/1.1/">
  <metadata
     id="metadata28">
    <rdf:RDF>
      <cc:Work
         rdf:about="">
        <dc:format>image/svg+xml</dc:format>
        <dc:type
           rdf:resource="http://purl.org/dc/dcmitype/StillImage" />
      </cc:Work>
    </rdf:RDF>
  </metadata>
  <defs
     id="defs26" />
  <sodipodi:namedview
     pagecolor="#ffffff"
     bordercolor="#000000"
     borderopacity="1"
     objecttolerance="10"
     gridtolerance="10"
     guidetolerance="10"
     inkscape:pageopacity="0"
     inkscape:pageshadow="2"
     inkscape:window-width="1920"
     inkscape:window-height="1002"
     id="namedview24"
     showgrid="false"
     inkscape:zoom="9.8125"
     inkscape:cx="32.050955"
     inkscape:cy="9.6305732"
     inkscape:window-x="0"
     inkscape:window-y="0"
     inkscape:window-maximized="1"
     inkscape:current-layer="svg22"
     inkscape:document-rotation="0"
     inkscape:lockguides="true"
     inkscape:pagecheckerboard="0"
     inkscape:showpageshadow="true"
     inkscape:deskcolor="#d1d1d1">
    <inkscape:grid
       type="xygrid"
       id="grid828"
       originx="0"
       originy="0" />
  </sodipodi:namedview>
  <g
     id="touchpad_enabled">
    <rect
       style="opacity:0.00100002"
       width="32"
       height="32"
       x="0"
       y="0"
       id="rect12" />
    <path
       d="M 7.1272422,4.0530687 C 6.6956695,4.1669467 6.3022494,4.5034379 6.1008326,4.930052 L 6,5.148257 v 10.857107 10.856862 l 0.1055395,0.222858 c 0.1439402,0.312981 0.4603113,0.630615 0.77693,0.782208 l 0.2685561,0.132735 H 16 24.848975 l 0.268557,-0.132735 c 0.316618,-0.151838 0.632989,-0.469472 0.776927,-0.782208 L 26,26.862226 V 16.005364 5.1485019 L 25.865723,4.8830314 C 25.712122,4.5700505 25.390794,4.2573144 25.074424,4.1150281 l -0.225449,-0.1043269 -8.752848,-0.00955 c -6.8154809,-0.0049 -8.8011612,0.00465 -8.9688848,0.051919 z M 25,14 v 8 H 16 7 V 14 5 h 9 9 z M 14.273461,24.434787 c 0.115202,0.05682 0.119909,0.08523 0.134279,0.507186 0.0096,0.246614 0,0.49788 -0.01436,0.554697 -0.06242,0.246613 -0.115201,0.251266 -2.69547,0.251266 -2.3020518,0 -2.3932224,-0.0047 -2.5468247,-0.09478 -0.1967098,-0.118531 -0.2494796,-0.256164 -0.2494796,-0.654125 0,-0.346043 0.071846,-0.507431 0.2588941,-0.578452 0.05277,-0.02376 1.2037942,-0.04261 2.5468242,-0.04261 1.88014,-0.0049 2.474976,0.0093 2.566147,0.05682 z m 8.71445,0.04751 c 0.105538,0.104327 0.148647,0.706533 0.06243,0.952902 -0.10554,0.317634 -0.05749,0.312981 -2.709841,0.312981 -2.925628,0 -2.757656,0.04751 -2.757656,-0.749146 0,-0.431512 0.03345,-0.516737 0.239818,-0.592656 0.0384,-0.0142 1.199089,-0.02376 2.575562,-0.0191 2.325835,0.0096 2.512884,0.0142 2.589685,0.09502 z"
       id="path4-3"
       inkscape:connector-curvature="0"
       style="fill:#000000;fill-opacity:1;stroke-width:0.00246317"
       sodipodi:nodetypes="cccccccccccccccccccccccccccccccccscsccccscssccss" />
    <path
       d="m 15.351044,8.0959997 c -0.151837,0.033306 -0.260817,0.1564904 -0.260817,0.2938788 0,0.2275111 0.10898,0.2701236 0.829718,0.327185 1.294291,0.1089801 2.256744,0.3982058 2.877808,0.8723303 0.260817,0.1991029 0.384002,0.2417153 0.507186,0.1753477 C 19.570409,9.6273531 19.527797,9.3616377 19.200612,9.1152693 18.489425,8.5843283 17.271053,8.1907756 16.11415,8.124408 15.877087,8.110204 15.630474,8.096 15.564107,8.086449 c -0.06612,-0.00955 -0.160899,-0.00465 -0.213063,0.00955 z"
       id="path6"
       inkscape:connector-curvature="0"
       style="fill:#00cdff;fill-opacity:1;stroke-width:0.00244899" />
    <path
       d="m 14.687368,9.2195963 c -0.673227,0.099674 -0.886534,0.1660415 -0.972004,0.3222871 -0.06171,0.113878 -0.06171,0.1422863 0,0.2561643 0.06637,0.1138781 0.104327,0.1327353 0.284573,0.1280822 0.118531,0 0.440818,-0.037959 0.715839,-0.080572 0.682779,-0.10898 1.512252,-0.1043269 2.076499,0.014204 0.934045,0.1895521 1.920008,0.8155141 2.49846,1.5788641 0.237062,0.312981 0.540492,0.896086 0.540492,1.038372 0,0.237062 0.379348,0.360246 0.545145,0.180246 C 20.59923,12.41063 20.153514,11.448177 19.494491,10.737235 18.87808,10.078212 17.920525,9.5046587 17.081256,9.2913517 16.55056,9.1578817 15.3748,9.1199224 14.687368,9.2195963 Z"
       id="path8"
       inkscape:connector-curvature="0"
       style="fill:#00cdff;fill-opacity:1;stroke-width:0.00244899" />
    <path
       d="m 14.853165,10.243764 c -0.758452,0.170695 -1.640334,0.554696 -2.204581,0.957555 -0.331838,0.237062 -0.41241,0.393553 -0.289226,0.573553 0.118531,0.189552 0.30343,0.161144 0.677881,-0.09967 0.45992,-0.312981 1.123596,-0.616411 1.659435,-0.7538 1.057229,-0.275021 2.048091,-0.118531 2.939523,0.464574 1.706701,1.114045 2.095601,3.181238 1.033474,5.509003 -0.09012,0.203756 -0.166042,0.407757 -0.166042,0.45992 0,0.123184 0.166042,0.279675 0.298777,0.279675 0.15649,0 0.284573,-0.156491 0.469471,-0.592656 0.80131,-1.844334 0.80131,-3.484668 0.0047,-4.859531 -0.251266,-0.431512 -0.94335,-1.104739 -1.427026,-1.393965 -0.213307,-0.128082 -0.60686,-0.308083 -0.87233,-0.398205 -0.464574,-0.161144 -0.521635,-0.170695 -1.199516,-0.180246 -0.388654,-0.0091 -0.805962,0.01004 -0.924493,0.0338 z"
       id="path10"
       inkscape:connector-curvature="0"
       style="fill:#00cdff;fill-opacity:1;stroke-width:0.00244899" />
    <path
       d="m 14.777491,11.324503 c -0.749146,0.204001 -1.493394,0.668574 -2.176173,1.365312 -0.474124,0.478778 -0.924493,1.076086 -0.924493,1.227924 0,0.232409 0.308083,0.388654 0.478777,0.241715 0.03796,-0.02841 0.19445,-0.21796 0.341389,-0.417308 0.568901,-0.758452 1.403272,-1.436577 2.114458,-1.716252 0.530941,-0.213307 1.133148,-0.232409 1.678293,-0.06171 1.384414,0.431512 2.157071,1.82058 1.863192,3.356586 -0.09478,0.483676 -0.30343,1.047678 -0.554696,1.488741 -0.265471,0.478778 -0.972004,1.194617 -1.441231,1.469639 -0.322287,0.184899 -0.331838,0.199103 -0.331838,0.379349 0,0.146939 0.02375,0.194449 0.123184,0.251266 0.161144,0.09012 0.284328,0.05216 0.706534,-0.227511 1.626129,-1.06678 2.522214,-3.280667 2.033886,-5.030226 -0.284328,-1.024167 -1.114046,-1.905804 -2.138213,-2.261397 -0.478778,-0.165552 -1.28474,-0.198858 -1.773069,-0.06612 z"
       id="path12"
       inkscape:connector-curvature="0"
       style="fill:#00cdff;fill-opacity:1;stroke-width:0.00244899" />
    <path
       d="m 15.042961,12.424589 c -0.602206,0.113879 -1.000412,0.369798 -1.573965,1.009964 -0.611513,0.67788 -0.938698,0.943351 -1.488741,1.213719 -0.530941,0.260818 -0.616411,0.374451 -0.469472,0.597309 0.113878,0.175348 0.260818,0.184899 0.602207,0.02841 0.668574,-0.30343 1.180413,-0.701635 1.763762,-1.379516 0.440819,-0.507186 0.7538,-0.734942 1.166209,-0.839269 0.82482,-0.208654 1.51715,0.10898 1.86809,0.858127 0.327185,0.696982 0.275022,1.498047 -0.132735,2.057641 -0.322287,0.440818 -1.280087,1.270536 -2.35152,2.043437 -0.298777,0.213307 -0.573799,0.426614 -0.602207,0.464574 -0.151593,0.189551 -0.0047,0.483675 0.246613,0.483675 0.104327,0 0.962453,-0.60686 1.706701,-1.199515 0.711187,-0.568901 1.545558,-1.427027 1.697395,-1.740008 0.488329,-1.000412 0.25592,-2.361071 -0.526288,-3.091115 -0.502777,-0.469471 -1.176005,-0.649717 -1.906049,-0.507431 z"
       id="path14-6"
       inkscape:connector-curvature="0"
       style="fill:#00cdff;fill-opacity:1;stroke-width:0.00244899" />
    <path
       d="m 15.042961,13.538635 c -0.199102,0.09012 -0.417307,0.275022 -0.924493,0.796412 -0.839269,0.853473 -1.303843,1.17576 -1.991274,1.384414 -0.15649,0.04726 -0.322287,0.118531 -0.369798,0.15649 -0.123184,0.09943 -0.08522,0.327185 0.06637,0.445716 0.123184,0.08547 0.137388,0.09012 0.403104,0.0096 0.407757,-0.113633 1.085637,-0.45992 1.446128,-0.730044 0.175348,-0.132735 0.535839,-0.478777 0.805963,-0.772901 0.725391,-0.777554 1.028821,-0.929147 1.403271,-0.701635 0.540492,0.327185 0,1.607272 -1.033473,2.455847 -0.45037,0.369797 -1.071434,0.734942 -1.597722,0.938698 -0.341389,0.132735 -0.440818,0.194449 -0.464573,0.279674 -0.04751,0.189552 0,0.327185 0.128082,0.388655 0.104327,0.05216 0.166042,0.04751 0.403104,-0.03331 1.530864,-0.530941 2.962788,-1.839437 3.30883,-3.029401 0.09478,-0.331838 0.09478,-0.810616 0,-1.038372 -0.24196,-0.578206 -0.972004,-0.834126 -1.583517,-0.549798 z"
       id="path16"
       inkscape:connector-curvature="0"
       style="fill:#00cdff;fill-opacity:1;stroke-width:0.00244899" />
    <path
       d="m 15.18035,14.633823 c -0.03796,0.04751 -0.151593,0.213307 -0.25592,0.369798 -0.227511,0.355593 -0.76335,0.896085 -1.147351,1.156903 -0.369798,0.246613 -1.000413,0.554696 -1.341802,0.654125 -0.317634,0.09012 -0.426614,0.180246 -0.426614,0.341389 0,0.151593 0.03796,0.208654 0.180246,0.284573 0.09012,0.04751 0.170694,0.03796 0.497879,-0.07102 0.464574,-0.151837 1.043025,-0.436165 1.43168,-0.696982 0.417063,-0.284573 1.038127,-0.905637 1.308495,-1.303843 0.279675,-0.421961 0.317634,-0.540492 0.213307,-0.696982 -0.09478,-0.142287 -0.355593,-0.166042 -0.45992,-0.03796 z"
       id="path18"
       inkscape:connector-curvature="0"
       style="fill:#00cdff;fill-opacity:1;stroke-width:0.00244899" />
  </g>
  <g
     id="touchpad_disabled">
    <rect
       style="opacity:0.00100002"
       width="32"
       height="32"
       x="32"
       y="0"
       id="rect17" />
    <path
       d="m 39.127238,4.0530687 c -0.431574,0.113878 -0.824993,0.4503692 -1.02641,0.8769833 L 38,5.148257 v 10.857107 10.856862 l 0.105541,0.222858 c 0.143938,0.312981 0.460309,0.630615 0.776927,0.782208 l 0.268557,0.132735 H 48 56.848975 l 0.268557,-0.132735 c 0.316618,-0.151838 0.632989,-0.469472 0.776927,-0.782208 L 58,26.862226 V 16.005364 5.1485019 L 57.865719,4.8830314 C 57.712118,4.5700505 57.39079,4.2573144 57.07442,4.1150281 l -0.225449,-0.1043269 -8.752848,-0.00955 c -6.815482,-0.0049 -8.801161,0.00465 -8.968885,0.051919 z M 57,14 v 8 H 48 39 V 14 5 h 9 9 z M 46.273457,24.434787 c 0.115202,0.05682 0.119909,0.08523 0.134279,0.507186 0.0096,0.246614 0,0.49788 -0.01436,0.554697 -0.06242,0.246613 -0.115201,0.251266 -2.69547,0.251266 -2.302053,0 -2.393223,-0.0047 -2.546826,-0.09478 -0.196709,-0.118531 -0.249479,-0.256164 -0.249479,-0.654125 0,-0.346043 0.07185,-0.507431 0.258893,-0.578452 0.05276,-0.02376 1.203796,-0.04261 2.546826,-0.04261 1.88014,-0.0049 2.474976,0.0093 2.566147,0.05682 z m 8.71445,0.04751 c 0.105538,0.104327 0.148647,0.706533 0.06242,0.952902 -0.105541,0.317634 -0.05749,0.312981 -2.709843,0.312981 -2.925626,0 -2.757654,0.04751 -2.757654,-0.749146 0,-0.431512 0.03345,-0.516737 0.239818,-0.592656 0.03839,-0.0142 1.199089,-0.02376 2.575562,-0.0191 2.325835,0.0096 2.512882,0.0142 2.589684,0.09502 z"
       id="path4-3-3"
       inkscape:connector-curvature="0"
       style="opacity:0.45;fill:#000000;fill-opacity:1;stroke-width:0.00246317"
       sodipodi:nodetypes="cccccccccccccccccccccccccccccccccscsccccccsscccc" />
    <path
       d="m 47.351044,8.0959997 c -0.151837,0.033306 -0.260817,0.1564904 -0.260817,0.2938788 0,0.2275111 0.10898,0.2701236 0.829718,0.327185 1.294291,0.1089801 2.256744,0.3982058 2.877808,0.8723303 0.260817,0.1991029 0.384002,0.2417153 0.507186,0.1753477 C 51.570409,9.6273531 51.527797,9.3616377 51.200612,9.1152693 50.489425,8.5843283 49.271053,8.1907756 48.11415,8.124408 47.877087,8.110204 47.630474,8.096 47.564107,8.086449 c -0.06612,-0.00955 -0.160899,-0.00465 -0.213063,0.00955 z"
       id="path6-5"
       inkscape:connector-curvature="0"
       style="fill:#000000;stroke-width:0.00244899" />
    <path
       d="m 46.687368,9.2195963 c -0.673227,0.099674 -0.886534,0.1660415 -0.972004,0.3222871 -0.06171,0.113878 -0.06171,0.1422863 0,0.2561643 0.06637,0.1138781 0.104327,0.1327353 0.284573,0.1280822 0.118531,0 0.440818,-0.037959 0.715839,-0.080572 0.682779,-0.10898 1.512252,-0.1043269 2.076499,0.014204 0.934045,0.1895521 1.920008,0.8155141 2.49846,1.5788641 0.237062,0.312981 0.540492,0.896086 0.540492,1.038372 0,0.237062 0.379348,0.360246 0.545145,0.180246 C 52.59923,12.41063 52.153514,11.448177 51.494491,10.737235 50.87808,10.078212 49.920525,9.5046587 49.081256,9.2913517 48.55056,9.1578817 47.3748,9.1199224 46.687368,9.2195963 Z"
       id="path8-6"
       inkscape:connector-curvature="0"
       style="fill:#000000;stroke-width:0.00244899" />
    <path
       d="m 46.853165,10.243764 c -0.758452,0.170695 -1.640334,0.554696 -2.204581,0.957555 -0.331838,0.237062 -0.41241,0.393553 -0.289226,0.573553 0.118531,0.189552 0.30343,0.161144 0.677881,-0.09967 0.45992,-0.312981 1.123596,-0.616411 1.659435,-0.7538 1.057229,-0.275021 2.048091,-0.118531 2.939523,0.464574 1.706701,1.114045 2.095601,3.181238 1.033474,5.509003 -0.09012,0.203756 -0.166042,0.407757 -0.166042,0.45992 0,0.123184 0.166042,0.279675 0.298777,0.279675 0.15649,0 0.284573,-0.156491 0.469471,-0.592656 0.80131,-1.844334 0.80131,-3.484668 0.0047,-4.859531 -0.251266,-0.431512 -0.94335,-1.104739 -1.427026,-1.393965 -0.213307,-0.128082 -0.60686,-0.308083 -0.87233,-0.398205 -0.464574,-0.161144 -0.521635,-0.170695 -1.199516,-0.180246 -0.388654,-0.0091 -0.805962,0.01004 -0.924493,0.0338 z"
       id="path10-2"
       inkscape:connector-curvature="0"
       style="fill:#000000;stroke-width:0.00244899" />
    <path
       d="m 46.777491,11.324503 c -0.749146,0.204001 -1.493394,0.668574 -2.176173,1.365312 -0.474124,0.478778 -0.924493,1.076086 -0.924493,1.227924 0,0.232409 0.308083,0.388654 0.478777,0.241715 0.03796,-0.02841 0.19445,-0.21796 0.341389,-0.417308 0.568901,-0.758452 1.403272,-1.436577 2.114458,-1.716252 0.530941,-0.213307 1.133148,-0.232409 1.678293,-0.06171 1.384414,0.431512 2.157071,1.82058 1.863192,3.356586 -0.09478,0.483676 -0.30343,1.047678 -0.554696,1.488741 -0.265471,0.478778 -0.972004,1.194617 -1.441231,1.469639 -0.322287,0.184899 -0.331838,0.199103 -0.331838,0.379349 0,0.146939 0.02375,0.194449 0.123184,0.251266 0.161144,0.09012 0.284328,0.05216 0.706534,-0.227511 1.626129,-1.06678 2.522214,-3.280667 2.033886,-5.030226 -0.284328,-1.024167 -1.114046,-1.905804 -2.138213,-2.261397 -0.478778,-0.165552 -1.28474,-0.198858 -1.773069,-0.06612 z"
       id="path12-9"
       inkscape:connector-curvature="0"
       style="fill:#000000;stroke-width:0.00244899" />
    <path
       d="m 47.042961,12.424589 c -0.602206,0.113879 -1.000412,0.369798 -1.573965,1.009964 -0.611513,0.67788 -0.938698,0.943351 -1.488741,1.213719 -0.530941,0.260818 -0.616411,0.374451 -0.469472,0.597309 0.113878,0.175348 0.260818,0.184899 0.602207,0.02841 0.668574,-0.30343 1.180413,-0.701635 1.763762,-1.379516 0.440819,-0.507186 0.7538,-0.734942 1.166209,-0.839269 0.82482,-0.208654 1.51715,0.10898 1.86809,0.858127 0.327185,0.696982 0.275022,1.498047 -0.132735,2.057641 -0.322287,0.440818 -1.280087,1.270536 -2.35152,2.043437 -0.298777,0.213307 -0.573799,0.426614 -0.602207,0.464574 -0.151593,0.189551 -0.0047,0.483675 0.246613,0.483675 0.104327,0 0.962453,-0.60686 1.706701,-1.199515 0.711187,-0.568901 1.545558,-1.427027 1.697395,-1.740008 0.488329,-1.000412 0.25592,-2.361071 -0.526288,-3.091115 -0.502777,-0.469471 -1.176005,-0.649717 -1.906049,-0.507431 z"
       id="path14-6-1"
       inkscape:connector-curvature="0"
       style="fill:#000000;stroke-width:0.00244899" />
    <path
       d="m 47.042961,13.538635 c -0.199102,0.09012 -0.417307,0.275022 -0.924493,0.796412 -0.839269,0.853473 -1.303843,1.17576 -1.991274,1.384414 -0.15649,0.04726 -0.322287,0.118531 -0.369798,0.15649 -0.123184,0.09943 -0.08522,0.327185 0.06637,0.445716 0.123184,0.08547 0.137388,0.09012 0.403104,0.0096 0.407757,-0.113633 1.085637,-0.45992 1.446128,-0.730044 0.175348,-0.132735 0.535839,-0.478777 0.805963,-0.772901 0.725391,-0.777554 1.028821,-0.929147 1.403271,-0.701635 0.540492,0.327185 0,1.607272 -1.033473,2.455847 -0.45037,0.369797 -1.071434,0.734942 -1.597722,0.938698 -0.341389,0.132735 -0.440818,0.194449 -0.464573,0.279674 -0.04751,0.189552 0,0.327185 0.128082,0.388655 0.104327,0.05216 0.166042,0.04751 0.403104,-0.03331 1.530864,-0.530941 2.962788,-1.839437 3.30883,-3.029401 0.09478,-0.331838 0.09478,-0.810616 0,-1.038372 -0.24196,-0.578206 -0.972004,-0.834126 -1.583517,-0.549798 z"
       id="path16-2"
       inkscape:connector-curvature="0"
       style="fill:#000000;stroke-width:0.00244899" />
    <path
       d="m 47.18035,14.633823 c -0.03796,0.04751 -0.151593,0.213307 -0.25592,0.369798 -0.227511,0.355593 -0.76335,0.896085 -1.147351,1.156903 -0.369798,0.246613 -1.000413,0.554696 -1.341802,0.654125 -0.317634,0.09012 -0.426614,0.180246 -0.426614,0.341389 0,0.151593 0.03796,0.208654 0.180246,0.284573 0.09012,0.04751 0.170694,0.03796 0.497879,-0.07102 0.464574,-0.151837 1.043025,-0.436165 1.43168,-0.696982 0.417063,-0.284573 1.038127,-0.905637 1.308495,-1.303843 0.279675,-0.421961 0.317634,-0.540492 0.213307,-0.696982 -0.09478,-0.142287 -0.355593,-0.166042 -0.45992,-0.03796 z"
       id="path18-7"
       inkscape:connector-curvature="0"
       style="fill:#000000;stroke-width:0.00244899" />
  </g>
  <g
     id="22-22-touchpad_enabled"
     transform="translate(0,-22.000015)">
    <rect
       style="opacity:0.00100002"
       width="22"
       height="22"
       x="0"
       y="-2.5878907e-07"
       id="rect2" />
    <path
       d="M 4.7890707,3.035422 C 4.4869704,3.111342 4.2115765,3.335668 4.0705847,3.620078 l -0.070582,0.14547 v 7.238071 7.23791 l 0.07388,0.148572 c 0.1007606,0.208654 0.3222173,0.42041 0.5438503,0.521471 l 0.1879889,0.08849 h 6.1942721 6.194272 l 0.187988,-0.08849 c 0.221633,-0.101225 0.443093,-0.312981 0.543851,-0.521471 l 0.0739,-0.148572 v -7.23791 -7.237908 l -0.09398,-0.17698 C 17.798506,3.380077 17.573578,3.171586 17.352117,3.076728 l -0.157814,-0.06955 -6.126983,-0.0064 c -4.7708297,-0.0033 -6.1608039,0.0031 -6.2782104,0.03461 z M 17,10.000015 v 5 H 11 5 v -5 -6 L 10.999994,3.971095 17,4.000015 Z m -7.2085826,6.623221 c 0.080641,0.03788 0.083938,0.05682 0.093991,0.338124 0.00678,0.164409 0,0.33192 -0.010047,0.369798 -0.043701,0.164408 -0.080641,0.16751 -1.8868274,0.16751 -1.6114339,0 -1.6752531,-0.0031 -1.7827744,-0.06318 -0.1376997,-0.07902 -0.1746383,-0.170776 -0.1746383,-0.436083 0,-0.230695 0.050291,-0.338287 0.1812255,-0.385634 0.03694,-0.01584 0.8426558,-0.02841 1.7827746,-0.02841 1.3160965,-0.0033 1.7324821,0.0062 1.7963018,0.03788 z m 6.1001076,0.03167 c 0.0739,0.06955 0.104048,0.471023 0.04368,0.635268 -0.0739,0.211756 -0.04026,0.208654 -1.896885,0.208654 -2.047938,0 -1.930357,0.03167 -1.930357,-0.499431 0,-0.287674 0.02344,-0.344491 0.167872,-0.395103 0.02687,-0.0095 0.839359,-0.01584 1.80289,-0.01273 1.628083,0.0064 1.759015,0.0095 1.812777,0.06335 z"
       id="path4-3-36"
       inkscape:connector-curvature="0"
       style="fill:#000000;fill-opacity:1;stroke-width:0.00168267"
       sodipodi:nodetypes="cccccccccccccccccccccccccccccccccscsccccccsscccc" />
    <path
       d="m 10.6029,6.0096764 c -0.101225,0.0222 -0.173878,0.104327 -0.173878,0.19592 0,0.151674 0.07265,0.180082 0.553145,0.218123 0.862861,0.07265 1.504496,0.265471 1.918539,0.581554 0.173878,0.132735 0.256001,0.161143 0.338124,0.116898 0.17698,-0.09159 0.148572,-0.268736 -0.06955,-0.432981 -0.474125,-0.353961 -1.286373,-0.61633 -2.057642,-0.660575 -0.158041,-0.0095 -0.32245,-0.01894 -0.366695,-0.02531 -0.04408,-0.0064 -0.107266,-0.0031 -0.142042,0.0064 z"
       id="path6-0"
       inkscape:connector-curvature="0"
       style="fill:#00cdff;fill-opacity:1;stroke-width:0.00163266" />
    <path
       d="m 10.16045,6.7587414 c -0.4488187,0.06645 -0.5910234,0.110694 -0.6480032,0.214858 -0.041143,0.07592 -0.041143,0.09486 0,0.170776 0.044245,0.07592 0.069551,0.08849 0.1897151,0.08539 0.079021,0 0.2938788,-0.02531 0.4772271,-0.05371 0.455185,-0.07265 1.008167,-0.06955 1.384332,0.0095 0.622696,0.126368 1.280005,0.543676 1.665639,1.052576 0.158042,0.208654 0.360328,0.59739 0.360328,0.692248 0,0.158041 0.2529,0.240164 0.363431,0.120164 0.148572,-0.164409 -0.148572,-0.806045 -0.587921,-1.280006 -0.410941,-0.439349 -1.049311,-0.821718 -1.608823,-0.963922 -0.353798,-0.08898 -1.137638,-0.114286 -1.595925,-0.04784 z"
       id="path8-62"
       inkscape:connector-curvature="0"
       style="fill:#00cdff;fill-opacity:1;stroke-width:0.00163266" />
    <path
       d="m 10.270981,7.4415194 c -0.5056352,0.113797 -1.0935561,0.369798 -1.4697209,0.63837 -0.2212255,0.158042 -0.27494,0.262369 -0.1928172,0.382369 0.079021,0.126368 0.2022866,0.107429 0.4519203,-0.06645 0.3066136,-0.208654 0.7490644,-0.41094 1.1062908,-0.502533 0.704819,-0.183347 1.365393,-0.07902 1.959681,0.309716 1.137801,0.742697 1.397067,2.1208246 0.688983,3.6726686 -0.06008,0.135837 -0.110695,0.271837 -0.110695,0.306613 0,0.08212 0.110695,0.18645 0.199185,0.18645 0.104327,0 0.189715,-0.104327 0.312981,-0.395104 0.534206,-1.229556 0.534206,-2.3231116 0.0031,-3.2396866 -0.167511,-0.287675 -0.628901,-0.736493 -0.951351,-0.92931 -0.142205,-0.08539 -0.404573,-0.205389 -0.581553,-0.265471 -0.309716,-0.107429 -0.347757,-0.113796 -0.799677,-0.120163 -0.259103,-0.006 -0.537309,0.0067 -0.616329,0.02253 z"
       id="path10-6"
       inkscape:connector-curvature="0"
       style="fill:#00cdff;fill-opacity:1;stroke-width:0.00163266" />
    <path
       d="m 10.220532,8.1620124 c -0.4994313,0.136001 -0.9955967,0.445716 -1.4507823,0.910208 -0.3160829,0.319185 -0.6163291,0.717391 -0.6163291,0.818616 0,0.1549386 0.2053886,0.2591026 0.319185,0.1611426 0.025306,-0.01894 0.1296332,-0.1453056 0.2275928,-0.2782046 0.3792669,-0.505635 0.9355142,-0.957718 1.4096386,-1.144168 0.353961,-0.142205 0.755432,-0.154939 1.118862,-0.04114 0.922943,0.287675 1.438047,1.213719 1.242128,2.2377236 -0.06318,0.32245 -0.202287,0.698452 -0.369798,0.992494 -0.17698,0.319185 -0.648003,0.796411 -0.96082,0.979759 -0.214858,0.123266 -0.221226,0.132735 -0.221226,0.252899 0,0.09796 0.01584,0.129633 0.08212,0.167511 0.107429,0.06008 0.189552,0.03478 0.471022,-0.151674 1.084087,-0.711187 1.681477,-2.187112 1.355925,-3.3534836 -0.189552,-0.682778 -0.742697,-1.270536 -1.425476,-1.507598 -0.319185,-0.110368 -0.856493,-0.132572 -1.182045,-0.04408 z"
       id="path12-1"
       inkscape:connector-curvature="0"
       style="fill:#00cdff;fill-opacity:1;stroke-width:0.00163266" />
    <path
       d="m 10.397512,8.8954034 c -0.4014713,0.07592 -0.6669419,0.246532 -1.0493108,0.673309 -0.4076752,0.4519196 -0.6257986,0.6289006 -0.992494,0.8091456 -0.3539607,0.173879 -0.4109406,0.249634 -0.312981,0.398206 0.075919,0.116899 0.1738783,0.123266 0.4014711,0.01894 0.4457162,-0.202287 0.7869421,-0.467757 1.1758418,-0.9196766 0.2938788,-0.338124 0.5025329,-0.489962 0.7774729,-0.559513 0.54988,-0.139103 1.011433,0.07265 1.245393,0.572084 0.218123,0.4646546 0.183347,0.9986976 -0.08849,1.3717606 -0.214859,0.293879 -0.853392,0.847024 -1.5676805,1.362291 -0.1991845,0.142205 -0.3825322,0.28441 -0.4014711,0.309716 -0.1010617,0.126368 -0.0031,0.32245 0.1644089,0.32245 0.069551,0 0.6416357,-0.404573 1.1378007,-0.799676 0.474124,-0.379267 1.030372,-0.951351 1.131597,-1.160005 0.325552,-0.666942 0.170613,-1.5740476 -0.350859,-2.0607436 -0.335185,-0.312981 -0.784003,-0.433145 -1.270699,-0.338288 z"
       id="path14-6-8"
       inkscape:connector-curvature="0"
       style="fill:#00cdff;fill-opacity:1;stroke-width:0.00163266" />
    <path
       d="m 10.397512,9.6381004 c -0.132735,0.06008 -0.278205,0.183348 -0.6163294,0.5309406 -0.5595126,0.568982 -0.8692282,0.78384 -1.3275158,0.922943 -0.104327,0.03151 -0.2148581,0.07902 -0.2465317,0.104327 -0.082123,0.06629 -0.056817,0.218123 0.044245,0.297144 0.082123,0.05698 0.091592,0.06008 0.2687358,0.0064 0.2718379,-0.07576 0.7237582,-0.306613 0.9640857,-0.486696 0.1168985,-0.08849 0.3572261,-0.319185 0.5373084,-0.515267 0.483594,-0.5183696 0.685881,-0.6194306 0.935514,-0.467757 0.360328,0.218123 0,1.071514 -0.688982,1.637231 -0.3002465,0.246532 -0.714289,0.489961 -1.0651477,0.625799 -0.2275928,0.08849 -0.2938788,0.129633 -0.3097156,0.18645 -0.031674,0.126367 0,0.218123 0.085388,0.259103 0.069551,0.03478 0.1106944,0.03167 0.2687359,-0.0222 1.0205754,-0.353961 1.9751924,-1.226291 2.2058874,-2.019601 0.06318,-0.221225 0.06318,-0.54041 0,-0.692248 C 11.291883,9.6191944 10.805187,9.4485814 10.397512,9.6381334 Z"
       id="path16-7"
       inkscape:connector-curvature="0"
       style="fill:#00cdff;fill-opacity:1;stroke-width:0.00163266" />
    <path
       d="m 10.489104,10.368226 c -0.02531,0.03167 -0.101062,0.142204 -0.170613,0.246531 -0.151674,0.237062 -0.5089001,0.597391 -0.7649012,0.771269 -0.2465317,0.164409 -0.6669416,0.369797 -0.8945344,0.436083 -0.211756,0.06008 -0.2844094,0.120164 -0.2844094,0.227593 0,0.101062 0.025306,0.139103 0.1201638,0.189715 0.060082,0.03167 0.1137964,0.02531 0.3319198,-0.04735 0.3097156,-0.101225 0.6953499,-0.290777 0.954453,-0.464655 0.2780424,-0.189715 0.6920844,-0.603758 0.8723304,-0.869228 0.18645,-0.281307 0.211756,-0.360328 0.142204,-0.464655 -0.06318,-0.09486 -0.237062,-0.110695 -0.306613,-0.02531 z"
       id="path18-9"
       inkscape:connector-curvature="0"
       style="fill:#00cdff;fill-opacity:1;stroke-width:0.00163266" />
  </g>
  <g
     id="22-22-touchpad_disabled"
     transform="translate(32,-22.000015)">
    <rect
       style="opacity:0.00100002"
       width="22"
       height="22"
       x="0"
       y="-2.5878907e-07"
       id="rect7" />
    <path
       d="M 4.78907,3.035422 C 4.486968,3.111342 4.211575,3.335668 4.070583,3.620078 l -0.07055,0.14547 v 7.238071 7.23791 l 0.0739,0.148572 c 0.100764,0.208654 0.322213,0.42041 0.543846,0.521471 l 0.187991,0.08849 h 6.194265 6.194265 l 0.187991,-0.08849 c 0.221633,-0.101225 0.443093,-0.312981 0.543846,-0.521471 l 0.0739,-0.148572 v -7.23791 -7.237908 l -0.09398,-0.17698 C 17.798536,3.380077 17.573604,3.171586 17.352142,3.076728 l -0.157811,-0.06955 -6.126975,-0.0064 c -4.770822,-0.0033 -6.160795,0.0031 -6.278204,0.03461 z M 17,10.000015 v 5 H 11 5 v -5 -6 h 6 6 z m -7.208591,6.623221 c 0.08068,0.03788 0.08394,0.05682 0.09398,0.338124 0.0064,0.164409 0,0.33192 -0.01022,0.369798 -0.04368,0.164408 -0.08068,0.16751 -1.886825,0.16751 -1.611433,0 -1.675252,-0.0031 -1.782774,-0.06318 -0.137695,-0.07902 -0.174634,-0.170776 -0.174634,-0.436083 0,-0.230695 0.0503,-0.338287 0.181225,-0.385634 0.0369,-0.01584 0.842655,-0.02841 1.782772,-0.02841 1.316095,-0.0033 1.732479,0.0062 1.796298,0.03788 z m 6.100098,0.03167 c 0.0739,0.06955 0.104047,0.471023 0.04368,0.635268 -0.0739,0.211756 -0.04026,0.208654 -1.896887,0.208654 -2.047929,0 -1.930351,0.03167 -1.930351,-0.499431 0,-0.287674 0.02344,-0.344491 0.167873,-0.395103 0.02687,-0.0095 0.839359,-0.01584 1.802888,-0.01273 1.628081,0.0064 1.759014,0.0095 1.812774,0.06335 z"
       id="path4-3-36-2"
       inkscape:connector-curvature="0"
       style="opacity:0.45;fill:#000000;fill-opacity:1;stroke-width:0.00168267"
       sodipodi:nodetypes="cccccccccccccccccccccccccccccccccscsccccccsscccc" />
    <path
       d="m 10.6029,6.0096764 c -0.101225,0.0222 -0.173878,0.104327 -0.173878,0.19592 0,0.151674 0.07265,0.180082 0.553145,0.218123 0.862861,0.07265 1.504496,0.265471 1.918539,0.581554 0.173878,0.132735 0.256001,0.161143 0.338124,0.116898 0.17698,-0.09159 0.148572,-0.268736 -0.06955,-0.432981 -0.474125,-0.353961 -1.286373,-0.61633 -2.057642,-0.660575 -0.158041,-0.0095 -0.32245,-0.01894 -0.366695,-0.02531 -0.04408,-0.0064 -0.107266,-0.0031 -0.142042,0.0064 z"
       id="path6-0-3"
       inkscape:connector-curvature="0"
       style="fill:#000000;stroke-width:0.00163266" />
    <path
       d="m 10.160449,6.7587414 c -0.448818,0.06645 -0.591022,0.110694 -0.648002,0.214858 -0.04114,0.07592 -0.04114,0.09486 0,0.170776 0.04424,0.07592 0.06955,0.08849 0.189715,0.08539 0.07902,0 0.293879,-0.02531 0.477226,-0.05371 0.455186,-0.07265 1.008168,-0.06955 1.384333,0.0095 0.622696,0.126368 1.280005,0.543676 1.665639,1.052576 0.158042,0.208654 0.360328,0.59739 0.360328,0.692248 0,0.158041 0.2529,0.240164 0.363431,0.120164 0.148572,-0.164409 -0.148572,-0.806045 -0.587921,-1.280006 -0.410941,-0.439349 -1.049311,-0.821718 -1.608823,-0.963922 -0.353798,-0.08898 -1.137638,-0.114286 -1.595926,-0.04784 z"
       id="path8-62-7"
       inkscape:connector-curvature="0"
       style="fill:#000000;stroke-width:0.00163266" />
    <path
       d="m 10.270981,7.4415194 c -0.505635,0.113797 -1.093556,0.369798 -1.469721,0.63837 -0.221225,0.158042 -0.27494,0.262369 -0.192817,0.382369 0.07902,0.126368 0.202286,0.107429 0.45192,-0.06645 0.306614,-0.208654 0.749065,-0.41094 1.106291,-0.502533 0.704819,-0.183347 1.365393,-0.07902 1.959681,0.309716 1.137801,0.742697 1.397067,2.1208246 0.688983,3.6726686 -0.06008,0.135837 -0.110695,0.271837 -0.110695,0.306613 0,0.08212 0.110695,0.18645 0.199185,0.18645 0.104327,0 0.189715,-0.104327 0.312981,-0.395104 0.534206,-1.229556 0.534206,-2.3231116 0.0031,-3.2396866 -0.167511,-0.287675 -0.628901,-0.736493 -0.951351,-0.92931 -0.142205,-0.08539 -0.404573,-0.205389 -0.581553,-0.265471 -0.309716,-0.107429 -0.347757,-0.113796 -0.799677,-0.120163 -0.259103,-0.006 -0.537309,0.0067 -0.616329,0.02253 z"
       id="path10-6-5"
       inkscape:connector-curvature="0"
       style="fill:#000000;stroke-width:0.00163266" />
    <path
       d="m 10.220531,8.1620124 c -0.49943,0.136001 -0.995596,0.445716 -1.450781,0.910208 -0.316083,0.319185 -0.61633,0.717391 -0.61633,0.818616 0,0.1549386 0.205389,0.2591026 0.319186,0.1611426 0.02531,-0.01894 0.129633,-0.1453056 0.227592,-0.2782046 0.379267,-0.505635 0.935514,-0.957718 1.409639,-1.144168 0.353961,-0.142205 0.755432,-0.154939 1.118862,-0.04114 0.922943,0.287675 1.438047,1.213719 1.242128,2.2377236 -0.06318,0.32245 -0.202287,0.698452 -0.369798,0.992494 -0.17698,0.319185 -0.648003,0.796411 -0.96082,0.979759 -0.214858,0.123266 -0.221226,0.132735 -0.221226,0.252899 0,0.09796 0.01584,0.129633 0.08212,0.167511 0.107429,0.06008 0.189552,0.03478 0.471022,-0.151674 1.084087,-0.711187 1.681477,-2.187112 1.355925,-3.3534836 -0.189552,-0.682778 -0.742697,-1.270536 -1.425476,-1.507598 -0.319185,-0.110368 -0.856493,-0.132572 -1.182046,-0.04408 z"
       id="path12-1-9"
       inkscape:connector-curvature="0"
       style="fill:#000000;stroke-width:0.00163266" />
    <path
       d="M 10.397512,8.8954034 C 9.996041,8.9713234 9.73057,9.1419354 9.348201,9.5687124 8.940526,10.020632 8.722402,10.197613 8.355707,10.377858 c -0.353961,0.173879 -0.41094,0.249634 -0.312981,0.398206 0.07592,0.116899 0.173878,0.123266 0.401471,0.01894 0.445716,-0.202287 0.786942,-0.467757 1.175842,-0.9196766 0.293879,-0.338124 0.502533,-0.489962 0.777473,-0.559513 0.54988,-0.139103 1.011433,0.07265 1.245393,0.572084 0.218123,0.4646546 0.183347,0.9986976 -0.08849,1.3717606 -0.214859,0.293879 -0.853392,0.847024 -1.567681,1.362291 -0.199184,0.142205 -0.382532,0.28441 -0.401471,0.309716 -0.101061,0.126368 -0.0031,0.32245 0.164409,0.32245 0.06955,0 0.641636,-0.404573 1.137801,-0.799676 0.474124,-0.379267 1.030372,-0.951351 1.131597,-1.160005 0.325552,-0.666942 0.170613,-1.5740476 -0.350859,-2.0607436 -0.335185,-0.312981 -0.784003,-0.433145 -1.270699,-0.338288 z"
       id="path14-6-8-2"
       inkscape:connector-curvature="0"
       style="fill:#000000;stroke-width:0.00163266" />
    <path
       d="m 10.397512,9.6381004 c -0.132736,0.06008 -0.278206,0.183348 -0.616329,0.5309406 -0.559513,0.568982 -0.869229,0.78384 -1.327516,0.922943 -0.104327,0.03151 -0.214858,0.07902 -0.246532,0.104327 -0.08212,0.06629 -0.05682,0.218123 0.04424,0.297144 0.08212,0.05698 0.09159,0.06008 0.268736,0.0064 0.271838,-0.07575 0.723758,-0.306613 0.964086,-0.486696 0.116898,-0.08849 0.357226,-0.319185 0.537308,-0.515267 0.483594,-0.5183696 0.685881,-0.6194306 0.935514,-0.467757 0.360328,0.218123 0,1.071514 -0.688982,1.637231 -0.300246,0.246532 -0.714289,0.489961 -1.065148,0.625799 -0.227592,0.08849 -0.293878,0.129633 -0.309715,0.186449 -0.03167,0.126368 0,0.218124 0.08539,0.259104 0.06955,0.03478 0.110694,0.03167 0.268736,-0.0222 1.020575,-0.353961 1.975192,-1.226291 2.205887,-2.019601 0.06318,-0.221225 0.06318,-0.54041 0,-0.692248 C 11.29188,9.6191944 10.805184,9.4485814 10.397509,9.6381334 Z"
       id="path16-7-2"
       inkscape:connector-curvature="0"
       style="fill:#000000;stroke-width:0.00163266" />
    <path
       d="m 10.489104,10.368226 c -0.02531,0.03167 -0.101062,0.142204 -0.170613,0.246531 -0.151674,0.237062 -0.5089,0.597391 -0.764901,0.771269 -0.246532,0.164409 -0.666942,0.369797 -0.894535,0.436083 -0.211756,0.06008 -0.284409,0.120164 -0.284409,0.227593 0,0.101062 0.02531,0.139103 0.120164,0.189715 0.06008,0.03167 0.113796,0.02531 0.331919,-0.04735 0.309716,-0.101225 0.69535,-0.290777 0.954454,-0.464655 0.278042,-0.189715 0.692084,-0.603758 0.87233,-0.869228 0.18645,-0.281307 0.211756,-0.360328 0.142204,-0.464655 -0.06318,-0.09486 -0.237062,-0.110695 -0.306613,-0.02531 z"
       id="path18-9-8"
       inkscape:connector-curvature="0"
       style="fill:#000000;stroke-width:0.00163266" />
  </g>
</svg>
