<?xml version="1.0" encoding="UTF-8" standalone="no"?>
<svg
   xmlns:dc="http://purl.org/dc/elements/1.1/"
   xmlns:cc="http://creativecommons.org/ns#"
   xmlns:rdf="http://www.w3.org/1999/02/22-rdf-syntax-ns#"
   xmlns:svg="http://www.w3.org/2000/svg"
   xmlns="http://www.w3.org/2000/svg"
   xmlns:sodipodi="http://sodipodi.sourceforge.net/DTD/sodipodi-0.dtd"
   xmlns:inkscape="http://www.inkscape.org/namespaces/inkscape"
   width="32"
   height="32"
   version="1.1"
   id="svg12"
   sodipodi:docname="vlc.svg"
   inkscape:version="1.0.1 (3bc2e813f5, 2020-09-07)">
  <metadata
     id="metadata18">
    <rdf:RDF>
      <cc:Work
         rdf:about="">
        <dc:format>image/svg+xml</dc:format>
        <dc:type
           rdf:resource="http://purl.org/dc/dcmitype/StillImage" />
      </cc:Work>
    </rdf:RDF>
  </metadata>
  <defs
     id="defs16" />
  <sodipodi:namedview
     pagecolor="#ffffff"
     bordercolor="#666666"
     borderopacity="1"
     objecttolerance="10"
     gridtolerance="10"
     guidetolerance="10"
     inkscape:pageopacity="0"
     inkscape:pageshadow="2"
     inkscape:window-width="1920"
     inkscape:window-height="1016"
     id="namedview14"
     showgrid="false"
     inkscape:zoom="4.90625"
     inkscape:cx="60.24506"
     inkscape:cy="-5.2811287"
     inkscape:window-x="0"
     inkscape:window-y="0"
     inkscape:window-maximized="1"
     inkscape:current-layer="svg12"
     inkscape:document-rotation="0"
     inkscape:lockguides="false" />
  <g
     id="vlc"
     transform="translate(32,10)">
    <g
       id="g912">
      <rect
         style="opacity:0.00100002"
         width="32"
         height="32"
         x="-32"
         y="-10"
         id="rect7" />
      <path
         inkscape:connector-curvature="0"
         style="fill:#147ab4;fill-opacity:1;stroke-width:0.00259782"
         id="path4-3"
         d="m -17.402786,-5.4189494 c -0.04241,0.1271644 -1.630838,4.734095 -3.526775,10.2493584 -1.895648,5.51523 -3.46311,10.037518 -3.484304,10.056451 -0.02126,0.01871 -0.476494,0.03754 -1.016598,0.04703 l -0.984877,0.01423 -0.349428,0.155218 c -0.651179,0.282243 -1.006101,0.78111 -1.037801,1.454136 -0.02643,0.451869 0.06339,0.738862 0.322974,1.06356 0.248848,0.310504 0.598282,0.536518 0.984888,0.644909 0.328209,0.09393 0.502912,0.09393 10.643621,0.09393 9.256127,0 10.34164,-0.01027 10.595975,-0.07535 0.529399,-0.14115 0.958455,-0.465733 1.207266,-0.912843 0.127024,-0.230749 0.143042,-0.31042 0.143042,-0.729159 0,-0.409696 -0.016,-0.503706 -0.143042,-0.739049 -0.179906,-0.343357 -0.54532,-0.668212 -0.931957,-0.828043 -0.286032,-0.122443 -0.35492,-0.12718 -1.302615,-0.150763 l -1.0061,-0.02343 -0.360176,-1.072897 c -0.375882,-1.119943 -2.202924,-6.559937 -4.94045,-14.6913934 l -1.599109,-4.7528873 -1.567474,-0.014288 -1.562209,-0.0099 z m 3.060742,2.5317964 c 0.344202,1.0258488 0.614256,1.872957 0.603778,1.887153 -0.01596,0.010196 -0.942458,0.014268 -2.065123,0.010196 l -2.043864,-0.01428 0.640654,-1.8728729 0.645955,-1.8684454 h 0.799436 0.799682 z m 2.361658,7.002142 c 0,0.0099 0.307231,0.931901 0.688352,2.05657 0.375883,1.124754 0.677937,2.047078 0.667169,2.056367 -0.0053,0.0098 -2.351151,0.0098 -5.205213,0.0043 l -5.19454,-0.01426 0.550586,-1.599932 c 0.302008,-0.879889 0.624974,-1.806797 0.709573,-2.056086 l 0.164257,-0.461152 h 3.807295 c 2.0968,-0.0012 3.812521,0.0043 3.812521,0.01404 z m 3.516248,10.456518 0.418334,1.246982 h 1.212529 c 1.350323,0 1.445653,0.01419 1.720939,0.296391 0.402292,0.404882 0.238351,1.035355 -0.323008,1.261184 -0.211922,0.08499 -0.566558,0.08964 -10.410494,0.08964 -9.843936,0 -10.198849,-0.0039 -10.410503,-0.08964 -0.561348,-0.225613 -0.725299,-0.856302 -0.322966,-1.261184 0.275299,-0.282241 0.370648,-0.296391 1.726177,-0.296391 h 1.212518 l 0.05814,-0.155313 c 0.02645,-0.0801 0.185469,-0.541116 0.349421,-1.021205 0.164215,-0.480016 0.333729,-0.969211 0.375869,-1.096401 l 0.08488,-0.221147 h 6.942232 6.947336 z" />
    </g>
  </g>
  <g
     id="22-22-vlc"
     transform="translate(32,10)">
    <g
       id="g902">
      <rect
         style="opacity:0.00100002"
         width="22"
         height="22"
         x="0"
         y="0"
         id="rect2" />
      <path
         inkscape:connector-curvature="0"
         style="fill:#147ab4;fill-opacity:1;stroke-width:0.00173188"
         id="path4-3-3"
         d="m 9.9668821,3.0536153 c -0.02827,0.08477 -1.087214,3.156029 -2.351157,6.832832 -1.263747,3.6767787 -2.308707,6.6916037 -2.322847,6.7042257 -0.0142,0.01247 -0.31766,0.02503 -0.67772,0.03135 l -0.65658,0.0095 -0.23295,0.103478 c -0.43411,0.18816 -0.67073,0.520734 -0.69185,0.969413 -0.0176,0.301243 0.0422,0.492569 0.21531,0.709032 0.1659,0.207 0.39885,0.357675 0.65658,0.429935 0.21881,0.06262 0.33527,0.06262 7.0956709,0.06262 6.170683,0 6.89435,-0.0068 7.063906,-0.05023 0.352927,-0.0941 0.638961,-0.310485 0.804834,-0.608555 0.08466,-0.153831 0.09537,-0.206945 0.09537,-0.486101 0,-0.273128 -0.01066,-0.3358 -0.09537,-0.492694 -0.119936,-0.228902 -0.363543,-0.44547 -0.621297,-0.552023 -0.190687,-0.08163 -0.236611,-0.08479 -0.868401,-0.100507 l -0.670727,-0.01562 -0.240113,-0.715257 C 16.218955,15.138393 15.000939,11.51177 13.175944,6.090858 L 12.109883,2.9223 11.064912,2.9127 10.023449,2.906 Z m 2.0404729,1.687847 c 0.229463,0.68389 0.409499,1.248624 0.402516,1.258088 -0.01063,0.0068 -0.628298,0.0096 -1.376736,0.0068 l -1.3625599,-0.0096 0.4270989,-1.248568 0.43063,-1.245617 h 0.532954 0.533117 z m 1.57442,4.668043 c 0,0.0066 0.20482,0.6212607 0.458898,1.3710317 0.250587,0.749827 0.451952,1.364703 0.444775,1.370896 -0.0037,0.0066 -1.567418,0.0066 -3.470104,0.0029 l -3.4629899,-0.0095 0.367053,-1.06661 c 0.201339,-0.586586 0.416647,-1.2045177 0.473048,-1.3707087 l 0.109498,-0.307431 h 2.5381719 c 1.39785,-8e-4 2.54165,0.0029 2.54165,0.0094 z m 2.344142,6.9709347 0.278887,0.831313 h 0.808342 c 0.900206,0 0.963758,0.0095 1.14728,0.197592 0.268193,0.269918 0.158901,0.690228 -0.215335,0.840779 -0.141279,0.05666 -0.377702,0.05976 -6.940253,0.05976 -6.5625499,0 -6.7991599,-0.0026 -6.9402599,-0.05976 -0.37423,-0.150407 -0.48353,-0.570861 -0.21531,-0.840779 0.18353,-0.188159 0.2471,-0.197592 1.15077,-0.197592 h 0.80834 l 0.0387,-0.103541 c 0.0177,-0.0534 0.12364,-0.36074 0.23294,-0.680796 0.10948,-0.320007 0.22249,-0.646134 0.25058,-0.730926 l 0.0566,-0.147429 h 4.6281079 4.631508 z" />
    </g>
  </g>
</svg>
