<?xml version="1.0" encoding="UTF-8" standalone="no"?>
<svg
   xmlns:dc="http://purl.org/dc/elements/1.1/"
   xmlns:cc="http://creativecommons.org/ns#"
   xmlns:rdf="http://www.w3.org/1999/02/22-rdf-syntax-ns#"
   xmlns:svg="http://www.w3.org/2000/svg"
   xmlns="http://www.w3.org/2000/svg"
   xmlns:sodipodi="http://sodipodi.sourceforge.net/DTD/sodipodi-0.dtd"
   xmlns:inkscape="http://www.inkscape.org/namespaces/inkscape"
   viewBox="0 0 22 22"
   version="1.1"
   id="svg175"
   sodipodi:docname="media.svg"
   inkscape:version="1.0.2 (e86c870879, 2021-01-15)">
  <metadata
     id="metadata181">
    <rdf:RDF>
      <cc:Work
         rdf:about="">
        <dc:format>image/svg+xml</dc:format>
        <dc:type
           rdf:resource="http://purl.org/dc/dcmitype/StillImage" />
      </cc:Work>
    </rdf:RDF>
  </metadata>
  <defs
     id="defs179" />
  <sodipodi:namedview
     pagecolor="#ffffff"
     bordercolor="#666666"
     borderopacity="1"
     objecttolerance="10"
     gridtolerance="10"
     guidetolerance="10"
     inkscape:pageopacity="0"
     inkscape:pageshadow="2"
     inkscape:window-width="1920"
     inkscape:window-height="1014"
     id="namedview177"
     showgrid="false"
     inkscape:lockguides="true"
     inkscape:zoom="2.6818182"
     inkscape:cx="181.71938"
     inkscape:cy="3.3400859"
     inkscape:window-x="0"
     inkscape:window-y="0"
     inkscape:window-maximized="1"
     inkscape:current-layer="svg175"
     inkscape:document-rotation="0" />
  <style
     type="text/css"
     id="current-color-scheme" />
  <g
     id="media-playback-playing">
    <path
       d="M 0,0 H 22 V 22 H 0 Z"
       fill="none"
       id="path3" />
    <g
       class="ColorScheme-Text"
       fill="currentColor"
       fill-rule="evenodd"
       id="g9">
      <path
         d="m 11,3 a 8,8 0 0 0 -8,8 8,8 0 0 0 8,8 8,8 0 0 0 8,-8 8,8 0 0 0 -8,-8 z m 0,1 a 7,7 0 0 1 7,7 7,7 0 0 1 -7,7 7,7 0 0 1 -7,-7 7,7 0 0 1 7,-7 z"
         id="path5"
         style="fill:#000000;fill-opacity:1" />
      <path
         d="M 9,14 15,11 9,8 Z"
         id="path7"
         style="fill:#000000;fill-opacity:1" />
    </g>
  </g>
  <g
     id="media-playback-stopped"
     transform="translate(24)">
    <path
       d="M 24,0 H 46 V 22 H 24 Z"
       fill="none"
       id="path12" />
    <g
       class="ColorScheme-Text"
       fill="currentColor"
       fill-rule="evenodd"
       id="g18">
      <path
         d="m 35,3 a 8,8 0 0 0 -8,8 8,8 0 0 0 8,8 8,8 0 0 0 8,-8 8,8 0 0 0 -8,-8 z m 0,1 a 7,7 0 0 1 7,7 7,7 0 0 1 -7,7 7,7 0 0 1 -7,-7 7,7 0 0 1 7,-7 z"
         id="path14"
         style="fill:#000000" />
      <path
         d="m 32,8 h 6 v 6 h -6 z"
         id="path16"
         style="fill:#000000" />
    </g>
  </g>
  <g
     id="media-playback-paused"
     transform="translate(48)">
    <path
       d="M -24,0 H -2 V 22 H -24 Z"
       fill="none"
       id="path21" />
    <g
       class="ColorScheme-Text"
       fill="currentColor"
       fill-rule="evenodd"
       id="g29">
      <path
         d="m -16,8 h 2 v 6 h -2 z"
         id="path23"
         style="fill:#000000" />
      <path
         d="m -12,8 h 2 v 6 h -2 z"
         id="path25"
         style="fill:#000000" />
      <path
         d="m -13,3 a 8,8 0 0 0 -8,8 8,8 0 0 0 8,8 8,8 0 0 0 8,-8 8,8 0 0 0 -8,-8 z m 0,1 a 7,7 0 0 1 7,7 7,7 0 0 1 -7,7 7,7 0 0 1 -7,-7 7,7 0 0 1 7,-7 z"
         id="path27"
         style="fill:#000000" />
    </g>
  </g>
  <g
     id="16-16-media-playback-pause"
     transform="translate(223,-26)">
    <path
       d="m -117,48 h 16 v 16 h -16 z"
       fill="none"
       id="path32" />
    <path
       d="m -115,50 v 12 h 4 V 50 Z m 8,0 v 12 h 4 V 50 Z"
       class="ColorScheme-Text"
       fill="currentColor"
       id="path34"
       style="fill:#000000;fill-opacity:1" />
  </g>
  <g
     id="22-22-media-playback-pause"
     transform="translate(207,-43)">
    <path
       d="m -101,43 h 22 v 22 h -22 z"
       fill="none"
       id="path37" />
    <path
       d="m -98,46 v 16 h 6 V 46 Z m 10,0 v 16 h 6 V 46 Z"
       class="ColorScheme-Text"
       fill="currentColor"
       id="path39"
       style="fill:#000000;fill-opacity:1" />
  </g>
  <g
     id="32-32-media-playback-pause"
     transform="translate(178,-66)">
    <path
       d="m -72,34 h 32 v 32 h -32 z"
       fill="none"
       id="path42" />
    <path
       d="m -68,38 v 24 h 9 V 38 Z m 15,0 v 24 h 9 V 38 Z"
       class="ColorScheme-Text"
       fill="currentColor"
       id="path44"
       style="fill:#000000;fill-opacity:1" />
  </g>
  <g
     id="32-32-media-playback-start"
     transform="translate(24,-68)">
    <path
       d="M 48,36 H 80 V 68 H 48 Z"
       fill="none"
       id="path47" />
    <path
       d="M 52,40 V 64 L 76,52 Z"
       class="ColorScheme-Text"
       fill="currentColor"
       id="path49"
       style="fill:#000000;fill-opacity:1" />
  </g>
  <g
     id="22-22-media-playback-start"
     transform="translate(48,-46)">
    <path
       d="M 24,46 H 46 V 68 H 24 Z"
       fill="none"
       id="path52" />
    <path
       d="M 27,49 V 65 L 43,57 Z"
       class="ColorScheme-Text"
       fill="currentColor"
       id="path54"
       style="fill:#000000;fill-opacity:1" />
  </g>
  <g
     id="16-16-media-playback-start"
     transform="translate(66,-30)">
    <path
       d="M 6,52 H 22 V 68 H 6 Z"
       fill="none"
       id="path57" />
    <path
       d="M 8,54 V 66 L 20,60 Z"
       class="ColorScheme-Text"
       fill="currentColor"
       id="path59"
       style="fill:#000000;fill-opacity:1" />
  </g>
  <g
     id="16-16-media-playback-stop"
     transform="translate(254,-86)">
    <path
       d="m -114,108 h 16 v 16 h -16 z"
       fill="none"
       id="path62" />
    <path
       d="m -112,110 h 12 v 12 h -12 z"
       class="ColorScheme-Text"
       fill="currentColor"
       fill-rule="evenodd"
       id="path64"
       style="fill:#000000;fill-opacity:1" />
  </g>
  <g
     id="22-22-media-playback-stop"
     transform="translate(236,-102)">
    <path
       d="m -96,102 h 22 v 22 h -22 z"
       fill="none"
       id="path67" />
    <path
       d="m -93,105 h 16 v 16 h -16 z"
       class="ColorScheme-Text"
       fill="currentColor"
       fill-rule="evenodd"
       id="path69"
       style="fill:#000000;fill-opacity:1" />
  </g>
  <g
     id="32-32-media-playback-stop"
     transform="translate(212,-124)">
    <path
       d="m -72,92 h 32 v 32 h -32 z"
       fill="none"
       id="path72" />
    <path
       d="m -68,96 h 24 v 24 h -24 z"
       class="ColorScheme-Text"
       fill="currentColor"
       fill-rule="evenodd"
       id="path74"
       style="fill:#000000;fill-opacity:1" />
  </g>
  <g
     id="32-32-media-record"
     transform="translate(184 -160)">
    <path
       d="m-10 128h32v32h-32z"
       fill="none"
       id="path77" />
    <path
       d="m18 144a12 12 0 0 1 -12 12 12 12 0 0 1 -12-12 12 12 0 0 1 12-12 12 12 0 0 1 12 12z"
       fill="#da4453"
       id="path79" />
  </g>
  <g
     id="16-16-media-record"
     transform="translate(226 -122)">
    <path
       d="m-52 144h16v16h-16z"
       fill="none"
       id="path82" />
    <path
       d="m-38 152a6 6 0 0 1 -6 6 6 6 0 0 1 -6-6 6 6 0 0 1 6-6 6 6 0 0 1 6 6z"
       fill="#da4453"
       id="path84" />
  </g>
  <g
     id="22-22-media-record"
     transform="translate(208 -138)">
    <path
       d="m-34 138h22v22h-22z"
       fill="none"
       id="path87" />
    <path
       d="m-15 149a8 8 0 0 1 -8 8 8 8 0 0 1 -8-8 8 8 0 0 1 8-8 8 8 0 0 1 8 8z"
       fill="#da4453"
       id="path89" />
  </g>
  <g
     id="16-16-media-eject"
     transform="translate(286,-224)">
    <path
       d="m 58,246 h 16 v 16 H 58 Z"
       fill="none"
       id="path92" />
    <path
       d="m 66,248 -6,8 h 12 z m -6,10 v 2 h 12 v -2 z"
       class="ColorScheme-Text"
       fill="currentColor"
       id="path94"
       style="fill:#000000;fill-opacity:1" />
  </g>
  <g
     id="22-22-media-eject"
     transform="translate(268,-240)">
    <path
       d="m 76,240 h 22 v 22 H 76 Z"
       fill="none"
       id="path97" />
    <path
       d="m 87,243 -8,11 h 16 z"
       class="ColorScheme-Text"
       fill="currentColor"
       id="path99"
       style="fill:#000000;fill-opacity:1" />
    <path
       d="m 79,256 v 3 h 16 v -3 z"
       class="ColorScheme-Text"
       fill="currentColor"
       id="path101" />
  </g>
  <g
     id="32-32-media-eject"
     transform="translate(244,-262)">
    <path
       d="m 100,230 h 32 v 32 h -32 z"
       fill="none"
       id="path104" />
    <path
       d="m 116,234 -12,17 h 24 z"
       class="ColorScheme-Text"
       fill="currentColor"
       id="path106"
       style="fill:#000000;fill-opacity:1" />
    <path
       d="m 104,254 v 4 h 24 v -4 z"
       class="ColorScheme-Text"
       fill="currentColor"
       id="path108" />
  </g>
  <g
     id="16-16-media-skip-forward"
     transform="translate(60,-104)">
    <path
       d="m 250,126 h 16 v 16 h -16 z"
       fill="none"
       id="path111" />
    <path
       d="m 257,128 v 12 l 7,-6 z m 7,6 v 6 h 2 v -12 h -2 z m -14,-6 v 12 l 7,-6 z"
       class="ColorScheme-Text"
       fill="currentColor"
       id="path113"
       style="fill:#000000;fill-opacity:1" />
  </g>
  <g
     id="22-22-media-skip-forward"
     transform="translate(310)">
    <path
       d="M 0,0 H 22 V 22 H 0 Z"
       fill="none"
       id="path116" />
    <path
       d="m 0,3 v 16 l 10,-8 z m 10,8 v 8 L 20,11 10,3 Z m 10,0 v 8 h 2 V 3 h -2 z"
       class="ColorScheme-Text"
       fill="currentColor"
       id="path118"
       style="fill:#000000;fill-opacity:1" />
  </g>
  <g
     id="32-32-media-skip-forward"
     transform="translate(18,-142)">
    <path
       d="m 292,110 h 32 v 32 h -32 z"
       fill="none"
       id="path121" />
    <path
       d="m 324,114 v 24 h -4 v -24 z m -18,12 -14,12 v -24 z m 14,0 -14,12 v -24 z"
       class="ColorScheme-Text"
       fill="currentColor"
       id="path123"
       style="fill:#000000;fill-opacity:1" />
  </g>
  <g
     id="16-16-media-skip-backward"
     transform="translate(26,-40)">
    <path
       d="m 250,62 h 16 v 16 h -16 z"
       fill="none"
       id="path126" />
    <path
       d="m 259,64 v 12 l -7,-6 z m -7,6 v 6 h -2 V 64 h 2 z m 14,-6 v 12 l -7,-6 z"
       class="ColorScheme-Text"
       fill="currentColor"
       id="path128"
       style="fill:#000000;fill-opacity:1" />
  </g>
  <g
     id="22-22-media-skip-backward"
     transform="translate(276,-1)">
    <path
       d="M 0,1 H 22 V 23 H 0 Z"
       fill="none"
       id="path131" />
    <path
       d="M 0,4 V 20 H 2 V 4 Z m 2,8 10,8 V 4 Z m 10,0 10,8 V 4 Z"
       class="ColorScheme-Text"
       fill="currentColor"
       id="path133"
       style="fill:#000000;fill-opacity:1" />
  </g>
  <g
     id="32-32-media-skip-backward"
     transform="translate(-16,-78)">
    <path
       d="m 292,46 h 32 v 32 h -32 z"
       fill="none"
       id="path136" />
    <path
       d="m 292,50 v 24 h 4 V 50 Z m 18,12 14,12 V 50 Z m -14,0 14,12 V 50 Z"
       class="ColorScheme-Text"
       fill="currentColor"
       id="path138"
       style="fill:#000000;fill-opacity:1" />
  </g>
  <g
     id="16-16-media-seek-forward"
     transform="translate(448,-168)">
    <path
       d="m -206,190 h 16 v 16 h -16 z"
       fill="none"
       id="path141" />
    <path
       d="m -198,192 v 12 l 7,-6 z m -7,0 v 12 l 7,-6 z"
       class="ColorScheme-Text"
       fill="currentColor"
       id="path143"
       style="fill:#000000;fill-opacity:1" />
  </g>
  <g
     id="22-22-media-seek-forward"
     transform="translate(430,-184)">
    <path
       d="m -188,184 h 22 v 22 h -22 z"
       fill="none"
       id="path146" />
    <g
       class="ColorScheme-Text"
       fill="currentColor"
       transform="translate(-188,184)"
       id="g150">
      <path
         d="m 1,3 v 16 l 10,-8 z m 10,8 v 8 L 21,11 11,3 Z"
         id="path148"
         style="fill:#000000;fill-opacity:1" />
    </g>
  </g>
  <g
     id="32-32-media-seek-forward"
     transform="translate(406,-206)">
    <path
       d="m -164,174 h 32 v 32 h -32 z"
       fill="none"
       id="path153" />
    <path
       d="m -148,190 -14,12 v -24 z m 14,0 -14,12 v -24 z"
       class="ColorScheme-Text"
       fill="currentColor"
       id="path155"
       style="fill:#000000;fill-opacity:1" />
  </g>
  <g
     id="16-16-media-seek-backward"
     transform="translate(414,-232)">
    <path
       d="m -206,254 h 16 v 16 h -16 z"
       fill="none"
       id="path158" />
    <path
       d="m -198,256 v 12 l -7,-6 z m 7,0 v 12 l -7,-6 z"
       class="ColorScheme-Text"
       fill="currentColor"
       id="path160"
       style="fill:#000000;fill-opacity:1" />
  </g>
  <g
     id="22-22-media-seek-backward"
     transform="translate(396,-248)">
    <path
       d="m -188,248 h 22 v 22 h -22 z"
       fill="none"
       id="path163" />
    <g
       class="ColorScheme-Text"
       fill="currentColor"
       transform="translate(-188,248)"
       id="g167">
      <path
         d="m 11,3 -10,8 10,8 v -8 z m 0,8 10,8 V 3 Z"
         id="path165"
         style="fill:#000000;fill-opacity:1" />
    </g>
  </g>
  <g
     id="32-32-media-seek-backward"
     transform="translate(372,-270)">
    <path
       d="m -164,238 h 32 v 32 h -32 z"
       fill="none"
       id="path170" />
    <path
       d="m -148,254 14,12 v -24 z m -14,0 14,12 v -24 z"
       class="ColorScheme-Text"
       fill="currentColor"
       id="path172"
       style="fill:#000000;fill-opacity:1" />
  </g>
</svg>
