<?xml version="1.0" encoding="UTF-8" standalone="no"?>
<svg
   xmlns:dc="http://purl.org/dc/elements/1.1/"
   xmlns:cc="http://creativecommons.org/ns#"
   xmlns:rdf="http://www.w3.org/1999/02/22-rdf-syntax-ns#"
   xmlns:svg="http://www.w3.org/2000/svg"
   xmlns="http://www.w3.org/2000/svg"
   xmlns:sodipodi="http://sodipodi.sourceforge.net/DTD/sodipodi-0.dtd"
   xmlns:inkscape="http://www.inkscape.org/namespaces/inkscape"
   sodipodi:docname="translucentbackground.svg"
   inkscape:version="1.0 (4035a4fb49, 2020-05-01)"
   version="1.1"
   id="svg2"
   viewBox="0 0 121 56"
   height="56"
   width="121">
  <defs
     id="defs4">
    <style
       id="current-color-scheme"
       type="text/css" />
    <style
       id="style25"
       type="text/css" />
  </defs>
  <sodipodi:namedview
     inkscape:document-rotation="0"
     fit-margin-bottom="0"
     fit-margin-right="0"
     fit-margin-left="0"
     fit-margin-top="0"
     showguides="true"
     inkscape:window-maximized="1"
     inkscape:window-y="0"
     inkscape:window-x="0"
     inkscape:window-height="1020"
     inkscape:window-width="1920"
     units="px"
     borderlayer="true"
     inkscape:showpageshadow="false"
     showgrid="false"
     inkscape:current-layer="layer1"
     inkscape:document-units="px"
     inkscape:cy="5.4219077"
     inkscape:cx="49.164772"
     inkscape:zoom="2.9248555"
     inkscape:pageshadow="2"
     inkscape:pageopacity="0"
     borderopacity="1"
     bordercolor="#000000"
     pagecolor="#ffffff"
     id="base">
    <inkscape:grid
       originy="-91.999954"
       originx="0"
       empspacing="2"
       id="grid3336"
       type="xygrid" />
  </sodipodi:namedview>
  <metadata
     id="metadata7">
    <rdf:RDF>
      <cc:Work
         rdf:about="">
        <dc:format>image/svg+xml</dc:format>
        <dc:type
           rdf:resource="http://purl.org/dc/dcmitype/StillImage" />
        <dc:title />
      </cc:Work>
    </rdf:RDF>
  </metadata>
  <g
     transform="translate(0,-904.36221)"
     id="layer1"
     inkscape:groupmode="layer"
     inkscape:label="Layer 1">
    <rect
       y="904.36218"
       x="0"
       height="5"
       width="5"
       id="hint-tile-center"
       style="opacity:1;fill:#5599ff;fill-opacity:1;stroke:none" />
    <g
       style="fill:#000000;fill-opacity:0.02645503"
       id="top">
      <rect
         class="ColorScheme-Background"
         transform="matrix(0,-1,-1,0,0,0)"
         style="opacity:0.9;fill:#000000;fill-opacity:0.02645503;stroke:none"
         id="rect4152"
         width="6"
         height="32"
         x="-916.36218"
         y="-50.999985" />
    </g>
    <g
       style="fill:#000000;fill-opacity:0"
       id="topleft">
      <path
         class="ColorScheme-Background"
         inkscape:connector-curvature="0"
         id="rect4159"
         transform="translate(0,904.36218)"
         d="m 14,6 c -0.553986,0 -1,0.4460137 -1,1 l 0,4 0,1 4,0 1,0 1,0 0,-1 0,-4 0,-1 -1,0 -1,0 -3,0 z"
         style="opacity:0.9;fill:#000000;fill-opacity:0" />
    </g>
    <g
       style="fill:#000000;fill-opacity:0"
       id="topright">
      <path
         class="ColorScheme-Background"
         inkscape:connector-curvature="0"
         id="rect4177"
         transform="translate(0,904.36218)"
         d="m 51,6 0,1 0,4 0,1 1,0 1,0 3,0 1,0 0,-1 0,-4 C 57,6.4460137 56.553986,6 56,6 l -3,0 -1,0 -1,0 z"
         style="opacity:0.9;fill:#000000;fill-opacity:0" />
    </g>
    <g
       style="fill:#000000;fill-opacity:0"
       id="bottom">
      <rect
         class="ColorScheme-Background"
         y="-50.999985"
         x="948.36218"
         height="32"
         width="6"
         id="rect4148"
         style="opacity:0.9;fill:#000000;fill-opacity:0;stroke:none"
         transform="matrix(0,1,-1,0,0,0)" />
    </g>
    <g
       style="fill:#000000;fill-opacity:0"
       id="bottomleft">
      <path
         class="ColorScheme-Background"
         id="path5048"
         d="m 19,954.36218 0,-1 0,-4 0,-1 -1,0 -1,0 -3,0 -1,0 0,1 0,4 c 0,0.55399 0.446014,1 1,1 l 3,0 1,0 1,0 z"
         style="opacity:0.9;fill:#000000;fill-opacity:0"
         inkscape:connector-curvature="0" />
    </g>
    <g
       style="fill:#000000;fill-opacity:0"
       id="bottomright">
      <path
         class="ColorScheme-Background"
         inkscape:connector-curvature="0"
         style="opacity:0.9;fill:#000000;fill-opacity:0"
         d="m 51,954.36218 0,-1 0,-4 0,-1 1,0 1,0 3,0 1,0 0,1 0,4 c 0,0.55399 -0.446014,1 -1,1 l -3,0 -1,0 -1,0 z"
         id="rect4177-6" />
    </g>
    <g
       style="fill:#000000;fill-opacity:0"
       id="left">
      <rect
         class="ColorScheme-Background"
         y="916.36218"
         x="-19.000004"
         height="32"
         width="5.9999995"
         id="rect4144"
         style="opacity:0.9;fill:#000000;fill-opacity:0;stroke:none"
         transform="scale(-1,1)" />
    </g>
    <g
       style="fill:#000000;fill-opacity:0"
       id="right">
      <rect
         class="ColorScheme-Background"
         style="opacity:0.9;fill:#000000;fill-opacity:0;stroke:none"
         id="rect4140"
         width="5.9999995"
         height="32"
         x="50.999985"
         y="916.36218" />
    </g>
    <g
       style="fill:#000000;fill-opacity:0"
       id="center">
      <rect
         style="opacity:1;fill:#000000;fill-opacity:0;stroke:none"
         id="rect4401"
         width="32"
         height="32"
         x="19.000004"
         y="916.36218" />
      <rect
         class="ColorScheme-Background"
         y="916.36218"
         x="19.000004"
         height="32"
         width="32"
         id="rect4138"
         style="opacity:0.9;fill:#000000;fill-opacity:0;stroke:none" />
    </g>
    <rect
       y="916.36218"
       x="33"
       height="6.0000248"
       width="4"
       id="hint-top-margin"
       style="fill:#5599ff;fill-opacity:1;stroke:none" />
    <rect
       style="fill:#5599ff;fill-opacity:1;stroke:none"
       id="hint-bottom-margin"
       width="4"
       height="5.9999752"
       x="33"
       y="942.36218" />
    <rect
       transform="matrix(0,1,-1,0,0,0)"
       style="fill:#5599ff;fill-opacity:1;stroke:none"
       id="hint-right-margin"
       width="4"
       height="6.0000153"
       x="930.36218"
       y="-51" />
    <rect
       transform="matrix(0,1,-1,0,0,0)"
       y="-25.000004"
       x="930.36218"
       height="6.0000038"
       width="4"
       id="hint-left-margin"
       style="fill:#5599ff;fill-opacity:1;stroke:none" />
    <g
       style="fill:#000000;fill-opacity:0"
       transform="translate(58,0)"
       id="shadow-top">
      <rect
         y="-50.999985"
         x="-916.36218"
         height="32"
         width="6"
         id="rect4820"
         style="opacity:1;fill:#000000;fill-opacity:0;stroke:none"
         transform="matrix(0,-1,-1,0,0,0)" />
      <rect
         y="-50.999985"
         x="-910.36218"
         height="32"
         width="6"
         id="rect4822"
         style="opacity:1;fill:#000000;fill-opacity:0;stroke:none"
         transform="matrix(0,-1,-1,0,0,0)" />
      <rect
         transform="matrix(0,-1,-1,0,0,0)"
         style="opacity:1;fill:#000000;fill-opacity:0;stroke:none"
         id="rect4824"
         width="0.99997741"
         height="32"
         x="-911.36218"
         y="-50.999985" />
    </g>
    <g
       style="fill:#000000;fill-opacity:0"
       transform="translate(58,0)"
       id="shadow-topleft">
      <path
         inkscape:connector-curvature="0"
         style="fill:#000000;fill-opacity:0;fill-rule:evenodd;stroke:none;stroke-width:1px;stroke-linecap:butt;stroke-linejoin:miter;stroke-opacity:1"
         d="m 7,7 0,1 0,4 6,0 0,-4 0,-1 -6,0 z"
         transform="translate(0,904.36218)"
         id="path4828" />
      <path
         inkscape:connector-curvature="0"
         id="path4830"
         transform="translate(-58,904.36218)"
         d="m 65,0 0,7 6,0 0,-1 1,0 0,-6 -7,0 z"
         style="opacity:0.6;fill:#000000;fill-opacity:0;fill-rule:evenodd;stroke:none;stroke-width:1px;stroke-linecap:butt;stroke-linejoin:miter;stroke-opacity:1" />
      <path
         inkscape:connector-curvature="0"
         id="path4832"
         transform="translate(-58,904.36218)"
         d="m 72,0 0,6 1,0 4,0 0,-6 -4,0 -1,0 z"
         style="fill:#000000;fill-opacity:0;fill-rule:evenodd;stroke:none;stroke-width:1px;stroke-linecap:butt;stroke-linejoin:miter;stroke-opacity:1" />
      <rect
         transform="scale(-1,1)"
         style="fill:#000000;fill-opacity:0"
         id="rect4834"
         width="5.9999919"
         height="6.0000224"
         x="-19.000004"
         y="910.36218"
         ry="0.9999752" />
      <rect
         transform="scale(-1,1)"
         style="fill:#000000;fill-opacity:0"
         id="rect4836"
         width="2.0000038"
         height="5.9999752"
         x="-19.000004"
         y="910.36218"
         ry="0" />
      <rect
         transform="scale(-1,1)"
         style="fill:#000000;fill-opacity:0"
         id="rect4838"
         width="4.9999924"
         height="2.0000248"
         x="-18"
         y="914.36218" />
    </g>
    <g
       style="fill:#000000;fill-opacity:0"
       transform="translate(58,0)"
       id="shadow-topright">
      <path
         inkscape:connector-curvature="0"
         style="fill:#000000;fill-opacity:0;fill-rule:evenodd;stroke:none;stroke-width:1px;stroke-linecap:butt;stroke-linejoin:miter;stroke-opacity:1"
         d="m 57,7 0,1 0,4 6,0 0,-4 0,-1 -6,0 z"
         transform="translate(0,904.36218)"
         id="path4842" />
      <path
         inkscape:connector-curvature="0"
         id="path4844"
         transform="translate(-58,904.36218)"
         d="m 114,0 0,6 1,0 0,1 6,0 0,-7 -7,0 z"
         style="fill:#000000;fill-opacity:0;fill-rule:evenodd;stroke:none;stroke-width:1px;stroke-linecap:butt;stroke-linejoin:miter;stroke-opacity:1" />
      <path
         inkscape:connector-curvature="0"
         id="path4846"
         transform="translate(-58,904.36218)"
         d="m 109,0 0,6 4,0 1,0 0,-6 -1,0 -4,0 z"
         style="fill:#000000;fill-opacity:0;fill-rule:evenodd;stroke:none;stroke-width:1px;stroke-linecap:butt;stroke-linejoin:miter;stroke-opacity:1" />
      <rect
         ry="0.9999752"
         y="910.36218"
         x="50.999985"
         height="6.0000224"
         width="5.9999957"
         id="rect4848"
         style="fill:#000000;fill-opacity:0" />
      <rect
         ry="0"
         y="910.36218"
         x="50.999985"
         height="5.9999752"
         width="2.0000153"
         id="rect4850"
         style="fill:#000000;fill-opacity:0" />
      <rect
         y="914.36218"
         x="52"
         height="2.0000248"
         width="4.9999809"
         id="rect4852"
         style="fill:#000000;fill-opacity:0" />
    </g>
    <g
       style="fill:#000000;fill-opacity:0"
       transform="translate(58,0)"
       id="shadow-bottom">
      <rect
         transform="matrix(0,1,-1,0,0,0)"
         style="opacity:1;fill:#000000;fill-opacity:0;stroke:none"
         id="rect4856"
         width="6"
         height="32"
         x="948.36218"
         y="-50.999985" />
      <rect
         transform="matrix(0,1,-1,0,0,0)"
         style="opacity:1;fill:#000000;fill-opacity:0;stroke:none"
         id="rect4858"
         width="6"
         height="32"
         x="954.36218"
         y="-50.999985" />
      <rect
         y="-50.999985"
         x="953.36218"
         height="31.999971"
         width="1.0000226"
         id="rect4860"
         style="opacity:1;fill:#000000;fill-opacity:0;stroke:none"
         transform="matrix(0,1,-1,0,0,0)" />
    </g>
    <g
       style="fill:#000000;fill-opacity:0"
       transform="translate(58,0)"
       id="shadow-bottomleft">
      <path
         inkscape:connector-curvature="0"
         id="path4864"
         transform="translate(-58,904.36218)"
         d="m 72,50 0,6 1,0 4,0 0,-6 -4,0 -1,0 z"
         style="fill:#000000;fill-opacity:0;fill-rule:evenodd;stroke:none;stroke-width:1px;stroke-linecap:butt;stroke-linejoin:miter;stroke-opacity:1" />
      <path
         inkscape:connector-curvature="0"
         id="path4866"
         transform="translate(-58,904.36218)"
         d="m 65,49 0,7 7,0 0,-6 -1,0 0,-1 -6,0 z"
         style="opacity:0.6;fill:#000000;fill-opacity:0;fill-rule:evenodd;stroke:none;stroke-width:1px;stroke-linecap:butt;stroke-linejoin:miter;stroke-opacity:1" />
      <path
         inkscape:connector-curvature="0"
         style="fill:#000000;fill-opacity:0;fill-rule:evenodd;stroke:none;stroke-width:1px;stroke-linecap:butt;stroke-linejoin:miter;stroke-opacity:1"
         d="m 7,44 0,4 0,1 6,0 0,-1 0,-4 -6,0 z"
         transform="translate(0,904.36218)"
         id="path4868" />
      <rect
         transform="scale(-1,-1)"
         ry="0.99971962"
         y="-954.36188"
         x="-19.000004"
         height="5.999999"
         width="5.9999957"
         id="rect4870"
         style="fill:#000000;fill-opacity:0" />
      <rect
         ry="0"
         y="-954.36218"
         x="-19.000004"
         height="6.0000248"
         width="2.0000038"
         id="rect4872"
         style="fill:#000000;fill-opacity:0"
         transform="scale(-1,-1)" />
      <rect
         y="-950.36218"
         x="-18"
         height="2.0000362"
         width="4.9999714"
         id="rect4874"
         style="fill:#000000;fill-opacity:0"
         transform="scale(-1,-1)" />
    </g>
    <g
       style="fill:#000000;fill-opacity:0"
       transform="translate(58,0)"
       id="shadow-bottomright">
      <path
         inkscape:connector-curvature="0"
         id="path4878"
         transform="translate(-58,904.36218)"
         d="m 109,50 0,6 4,0 1,0 0,-6 -1,0 -4,0 z"
         style="fill:#000000;fill-opacity:0;fill-rule:evenodd;stroke:none;stroke-width:1px;stroke-linecap:butt;stroke-linejoin:miter;stroke-opacity:1" />
      <path
         inkscape:connector-curvature="0"
         id="path4880"
         transform="translate(-58,904.36218)"
         d="m 115,49 0,1 -1,0 0,6 7,0 0,-7 -6,0 z"
         style="opacity:0.6;fill:#000000;fill-opacity:0;fill-rule:evenodd;stroke:none;stroke-width:1px;stroke-linecap:butt;stroke-linejoin:miter;stroke-opacity:1" />
      <path
         inkscape:connector-curvature="0"
         style="fill:#000000;fill-opacity:0;fill-rule:evenodd;stroke:none;stroke-width:1px;stroke-linecap:butt;stroke-linejoin:miter;stroke-opacity:1"
         d="m 57,44 0,4 0,1 6,0 0,-1 0,-4 -6,0 z"
         transform="translate(0,904.36218)"
         id="path4882" />
      <rect
         transform="scale(1,-1)"
         style="fill:#000000;fill-opacity:0"
         id="rect4884"
         width="5.9999957"
         height="5.999999"
         x="50.999985"
         y="-954.36188"
         ry="0.99971962" />
      <rect
         transform="scale(1,-1)"
         style="fill:#000000;fill-opacity:0"
         id="rect4886"
         width="2.0000153"
         height="6.0000248"
         x="50.999985"
         y="-954.36218"
         ry="0" />
      <rect
         transform="scale(1,-1)"
         style="fill:#000000;fill-opacity:0"
         id="rect4888"
         width="4.9999847"
         height="2.0000362"
         x="52"
         y="-950.36218" />
    </g>
    <g
       style="fill:#000000;fill-opacity:0"
       transform="translate(58,0)"
       id="shadow-left">
      <rect
         transform="scale(-1,1)"
         style="opacity:1;fill:#000000;fill-opacity:0;stroke:none"
         id="rect4892"
         width="5.9999995"
         height="32"
         x="-19.000004"
         y="916.36218" />
      <rect
         transform="scale(-1,1)"
         style="opacity:1;fill:#000000;fill-opacity:0;stroke:none"
         id="rect4894"
         width="5.9999995"
         height="32"
         x="-13.000002"
         y="916.36218" />
      <rect
         y="916.36218"
         x="-14.000002"
         height="32.000023"
         width="1.0000019"
         id="rect4896"
         style="opacity:1;fill:#000000;fill-opacity:0;stroke:none"
         transform="scale(-1,1)" />
    </g>
    <g
       style="fill:#000000;fill-opacity:0"
       transform="translate(58,0)"
       id="shadow-right">
      <rect
         y="916.36218"
         x="50.999985"
         height="32"
         width="5.9999995"
         id="rect4900"
         style="opacity:1;fill:#000000;fill-opacity:0;stroke:none" />
      <rect
         y="916.36218"
         x="56.999985"
         height="32"
         width="5.9999995"
         id="rect4902"
         style="opacity:1;fill:#000000;fill-opacity:0;stroke:none" />
      <rect
         style="opacity:1;fill:#000000;fill-opacity:0;stroke:none"
         id="rect4904"
         width="1"
         height="32.000023"
         x="55.999985"
         y="916.36218" />
    </g>
    <g
       transform="translate(58,0)"
       id="shadow-center">
      <rect
         y="916.36218"
         x="19.000004"
         height="32"
         width="32"
         id="rect4908"
         style="opacity:1;fill:none;fill-opacity:1;stroke:none" />
      <rect
         style="opacity:1;fill:none;fill-opacity:1;stroke:none"
         id="rect4910"
         width="32"
         height="32"
         x="19.000004"
         y="916.36218" />
    </g>
    <rect
       style="fill:#579aff;fill-opacity:1;stroke:none"
       id="shadow-hint-top-margin"
       width="4"
       height="5.9999771"
       x="91"
       y="904.36218" />
    <rect
       y="954.36218"
       x="91"
       height="6.0000229"
       width="4"
       id="shadow-hint-bottom-margin"
       style="fill:#5599ff;fill-opacity:1;stroke:none" />
    <rect
       y="-120.99998"
       x="930.36218"
       height="5.9999771"
       width="3.9999769"
       id="shadow-hint-right-margin"
       style="fill:#5599ff;fill-opacity:1;stroke:none"
       transform="matrix(0,1,-1,0,0,0)" />
    <rect
       style="fill:#5599ff;fill-opacity:1;stroke:none"
       id="shadow-hint-left-margin"
       width="4.0000229"
       height="6"
       x="930.36218"
       y="-71"
       transform="matrix(0,1,-1,0,0,0)" />
  </g>
</svg>
