<?xml version="1.0" encoding="UTF-8" standalone="no"?>
<!-- Created with Inkscape (http://www.inkscape.org/) -->

<svg
   xmlns:dc="http://purl.org/dc/elements/1.1/"
   xmlns:cc="http://creativecommons.org/ns#"
   xmlns:rdf="http://www.w3.org/1999/02/22-rdf-syntax-ns#"
   xmlns:svg="http://www.w3.org/2000/svg"
   xmlns="http://www.w3.org/2000/svg"
   xmlns:sodipodi="http://sodipodi.sourceforge.net/DTD/sodipodi-0.dtd"
   xmlns:inkscape="http://www.inkscape.org/namespaces/inkscape"
   width="17.575518mm"
   height="29.686062mm"
   viewBox="0 0 66.427153 112.19929"
   version="1.1"
   id="svg900"
   inkscape:version="0.92.4 (5da689c313, 2019-01-14)"
   sodipodi:docname="viewitem.svg">
  <defs
     id="defs894" />
  <sodipodi:namedview
     id="base"
     pagecolor="#ffffff"
     bordercolor="#666666"
     borderopacity="1.0"
     inkscape:pageopacity="0.0"
     inkscape:pageshadow="2"
     inkscape:zoom="5.6"
     inkscape:cx="-4.142729"
     inkscape:cy="84.659943"
     inkscape:document-units="px"
     inkscape:current-layer="layer1"
     showgrid="false"
     inkscape:window-width="1280"
     inkscape:window-height="977"
     inkscape:window-x="0"
     inkscape:window-y="0"
     inkscape:window-maximized="1" />
  <metadata
     id="metadata897">
    <rdf:RDF>
      <cc:Work
         rdf:about="">
        <dc:format>image/svg+xml</dc:format>
        <dc:type
           rdf:resource="http://purl.org/dc/dcmitype/StillImage" />
        <dc:title />
      </cc:Work>
    </rdf:RDF>
  </metadata>
  <g
     inkscape:label="Layer 1"
     inkscape:groupmode="layer"
     id="layer1"
     transform="translate(-287.47,-622.06397)">
    <rect
       style="opacity:0.15;fill:#147ab4;fill-opacity:1;stroke:none;stroke-width:0.31999999"
       id="hover-center"
       width="16"
       height="16"
       x="334.89716"
       y="684.60327" />
    <rect
       y="-353.89716"
       x="684.60327"
       height="3"
       width="16"
       id="hover-right"
       style="opacity:0.15;fill:#147ab4;fill-opacity:1;stroke:none;stroke-width:0.13860001"
       transform="rotate(90)" />
    <path
       sodipodi:nodetypes="ccssssc"
       inkscape:connector-curvature="0"
       id="hover-topright"
       d="m 350.89714,681.60326 c 2.97,0 2.97,0 2.97,2.97 0,0 0,0 0,0 h -2.94 c 0,0 0,0 0,0 v -2.95 c 0,0 0,0 0,0 z"
       style="opacity:0.15;fill:#147ab4;fill-opacity:1;fill-rule:nonzero;stroke:none;stroke-width:0.2304;stroke-linecap:square;stroke-linejoin:round;stroke-miterlimit:4;stroke-dasharray:none;stroke-dashoffset:0;stroke-opacity:1" />
    <rect
       transform="rotate(90)"
       style="fill:#147ab1;fill-opacity:1;stroke:none;stroke-width:0.13860001"
       class="ColorScheme-Highlight"
       id="hover-left"
       width="16"
       height="3"
       x="684.60327"
       y="-334.89716" />
    <rect
       transform="scale(-1)"
       style="opacity:0.15;fill:#147ab4;fill-opacity:1;stroke:none;stroke-width:0.13860001"
       id="hover-top"
       width="16"
       height="3"
       x="-350.89716"
       y="-684.60327" />
    <rect
       y="-703.60327"
       x="-350.89716"
       height="3"
       width="16"
       id="hover-bottom"
       style="opacity:0.15;fill:#147ab4;fill-opacity:1;stroke:none;stroke-width:0.13860001"
       transform="scale(-1)" />
    <path
       style="opacity:1;fill:#147ab1;fill-opacity:1;fill-rule:nonzero;stroke:none;stroke-width:0.2304;stroke-linecap:square;stroke-linejoin:round;stroke-miterlimit:4;stroke-dasharray:none;stroke-dashoffset:0;stroke-opacity:1"
       class="ColorScheme-Highlight"
       d="m 334.89714,681.60326 c -2.97,0 -2.97,0 -2.97,2.97 0,0 0,0 0,0 h 2.94 c 0,0 0,0 0,0 v -2.95 c 0,0 0,0 0,0 z"
       id="hover-topleft"
       inkscape:connector-curvature="0"
       sodipodi:nodetypes="ccssssc" />
    <path
       sodipodi:nodetypes="ccssssc"
       inkscape:connector-curvature="0"
       id="hover-bottomleft"
       d="m 334.89714,703.60326 c -2.97,0 -2.97,0 -2.97,-2.98 0,0 0,0 0,0 h 2.94 c 0,0 0,0 0,0 v 2.95 c 0,0 0,0 0,0 z"
       class="ColorScheme-Highlight"
       style="opacity:1;fill:#147ab1;fill-opacity:1;fill-rule:nonzero;stroke:none;stroke-width:0.2304;stroke-linecap:square;stroke-linejoin:round;stroke-miterlimit:4;stroke-dasharray:none;stroke-dashoffset:0;stroke-opacity:1" />
    <path
       style="opacity:0.15;fill:#147ab4;fill-opacity:1;fill-rule:nonzero;stroke:none;stroke-width:0.2304;stroke-linecap:square;stroke-linejoin:round;stroke-miterlimit:4;stroke-dasharray:none;stroke-dashoffset:0;stroke-opacity:1"
       d="m 350.89714,703.60326 c 2.97,0 2.97,0 2.97,-2.98 0,0 0,0 0,0 h -2.94 c 0,0 0,0 0,0 v 2.95 c 0,0 0,0 0,0 z"
       id="hover-bottomright"
       inkscape:connector-curvature="0"
       sodipodi:nodetypes="ccssssc" />
    <rect
       y="656.63324"
       x="334.81714"
       height="16"
       width="16"
       id="normal-center"
       style="opacity:0.15;fill:#147ab4;fill-opacity:1;stroke:none;stroke-width:0.31999999" />
    <rect
       transform="rotate(90)"
       style="opacity:0.15;fill:#147ab4;fill-opacity:1;stroke:none;stroke-width:0.13860001"
       id="normal-right"
       width="16"
       height="3"
       x="656.63324"
       y="-353.81714" />
    <path
       style="opacity:0.15;fill:#147ab4;fill-opacity:1;fill-rule:nonzero;stroke:none;stroke-width:0.2304;stroke-linecap:square;stroke-linejoin:round;stroke-miterlimit:4;stroke-dasharray:none;stroke-dashoffset:0;stroke-opacity:1"
       d="m 350.81714,653.63326 c 2.96,0 2.97,0 2.97,2.97 0,0 0,0 0,0 h -2.94 c 0,0 0,0 0,0 v -2.94 c 0,0 0,0 0,0 z"
       id="normal-topright"
       inkscape:connector-curvature="0"
       sodipodi:nodetypes="ccssssc" />
    <rect
       y="-334.81714"
       x="656.63324"
       height="3"
       width="16"
       id="normal-left"
       class="ColorScheme-Highlight"
       style="fill:#147ab1;fill-opacity:1;stroke:none;stroke-width:0.13860001"
       transform="rotate(90)" />
    <rect
       y="-656.63324"
       x="-350.81714"
       height="3"
       width="16"
       id="normal-top"
       style="opacity:0.15;fill:#147ab4;fill-opacity:1;stroke:none;stroke-width:0.13860001"
       transform="scale(-1)" />
    <rect
       transform="scale(-1)"
       style="opacity:0.15;fill:#147ab4;fill-opacity:1;stroke:none;stroke-width:0.13860001"
       id="normal-bottom"
       width="16"
       height="3"
       x="-350.81714"
       y="-675.63324" />
    <path
       sodipodi:nodetypes="ccssssc"
       inkscape:connector-curvature="0"
       id="normal-topleft"
       d="m 334.81714,653.63326 c -2.97,0 -2.98,0 -2.98,2.97 0,0 0,0 0,0 h 2.95 c 0,0 0,0 0,0 v -2.94 c 0,0 0,0 0,0 z"
       class="ColorScheme-Highlight"
       style="opacity:1;fill:#147ab1;fill-opacity:1;fill-rule:nonzero;stroke:none;stroke-width:0.2304;stroke-linecap:square;stroke-linejoin:round;stroke-miterlimit:4;stroke-dasharray:none;stroke-dashoffset:0;stroke-opacity:1" />
    <path
       style="opacity:1;fill:#147ab1;fill-opacity:1;fill-rule:nonzero;stroke:none;stroke-width:0.2304;stroke-linecap:square;stroke-linejoin:round;stroke-miterlimit:4;stroke-dasharray:none;stroke-dashoffset:0;stroke-opacity:1"
       class="ColorScheme-Highlight"
       d="m 334.81714,675.63326 c -2.97,0 -2.98,0 -2.98,-2.97 0,0 0,0 0,0 h 2.95 c 0,0 0,0 0,0 v 2.94 c 0,0 0,0 0,0 z"
       id="normal-bottomleft"
       inkscape:connector-curvature="0"
       sodipodi:nodetypes="ccssssc" />
    <path
       sodipodi:nodetypes="ccssssc"
       inkscape:connector-curvature="0"
       id="normal-bottomright"
       d="m 350.81714,675.63326 c 2.96,0 2.97,0 2.97,-2.97 0,0 0,0 0,0 h -2.94 c 0,0 0,0 0,0 v 2.94 c 0,0 0,0 0,0 z"
       style="opacity:0.15;fill:#147ab4;fill-opacity:1;fill-rule:nonzero;stroke:none;stroke-width:0.2304;stroke-linecap:square;stroke-linejoin:round;stroke-miterlimit:4;stroke-dasharray:none;stroke-dashoffset:0;stroke-opacity:1" />
    <rect
       y="715.26324"
       x="334.81714"
       height="16"
       width="16"
       id="selected-center"
       style="opacity:0.5;fill:#3daee9;fill-opacity:1;stroke:none;stroke-width:0.31999999" />
    <rect
       transform="rotate(90)"
       style="opacity:0.5;fill:#3daee9;fill-opacity:1;stroke:none;stroke-width:0.13860001"
       id="selected-right"
       width="16"
       height="3"
       x="715.26324"
       y="-353.81714" />
    <path
       style="opacity:0.5;fill:#3daee9;fill-opacity:1;fill-rule:nonzero;stroke:none;stroke-width:0.2304;stroke-linecap:square;stroke-linejoin:round;stroke-miterlimit:4;stroke-dasharray:none;stroke-dashoffset:0;stroke-opacity:1"
       d="m 350.81714,712.26326 c 2.96,0 2.97,0 2.97,2.98 0,0 0,0 0,0 h -2.94 c 0,0 0,0 0,0 v -2.95 c 0,0 0,0 0,0 z"
       id="selected-topright"
       inkscape:connector-curvature="0"
       sodipodi:nodetypes="ccssssc" />
    <rect
       y="-334.81714"
       x="715.26324"
       height="3"
       width="16"
       id="selected-left"
       class="ColorScheme-Highlight"
       style="fill:#147ab1;fill-opacity:1;stroke:none;stroke-width:0.13860001"
       transform="rotate(90)" />
    <rect
       y="-715.26324"
       x="-350.81714"
       height="3"
       width="16"
       id="selected-top"
       style="opacity:0.5;fill:#3daee9;fill-opacity:1;stroke:none;stroke-width:0.13860001"
       transform="scale(-1)" />
    <rect
       transform="scale(-1)"
       style="opacity:0.5;fill:#3daee9;fill-opacity:1;stroke:none;stroke-width:0.13860001"
       id="selected-bottom"
       width="16"
       height="3"
       x="-350.81714"
       y="-734.26324" />
    <path
       sodipodi:nodetypes="ccssssc"
       inkscape:connector-curvature="0"
       id="selected-topleft"
       d="m 334.81714,712.26326 c -2.97,0 -2.98,0 -2.98,2.98 0,0 0,0 0,0 h 2.95 c 0,0 0,0 0,0 v -2.95 c 0,0 0,0 0,0 z"
       class="ColorScheme-Highlight"
       style="opacity:1;fill:#147ab1;fill-opacity:1;fill-rule:nonzero;stroke:none;stroke-width:0.2304;stroke-linecap:square;stroke-linejoin:round;stroke-miterlimit:4;stroke-dasharray:none;stroke-dashoffset:0;stroke-opacity:1" />
    <path
       style="opacity:1;fill:#147ab1;fill-opacity:1;fill-rule:nonzero;stroke:none;stroke-width:0.2304;stroke-linecap:square;stroke-linejoin:round;stroke-miterlimit:4;stroke-dasharray:none;stroke-dashoffset:0;stroke-opacity:1"
       class="ColorScheme-Highlight"
       d="m 334.81714,734.26326 c -2.97,0 -2.98,0 -2.98,-2.97 0,0 0,0 0,0 h 2.95 c 0,0 0,0 0,0 v 2.95 c 0,0 0,0 0,0 z"
       id="selected-bottomleft"
       inkscape:connector-curvature="0"
       sodipodi:nodetypes="ccssssc" />
    <path
       sodipodi:nodetypes="ccssssc"
       inkscape:connector-curvature="0"
       id="selected-bottomright"
       d="m 350.81714,734.26326 c 2.96,0 2.97,0 2.97,-2.97 0,0 0,0 0,0 h -2.94 c 0,0 0,0 0,0 v 2.95 c 0,0 0,0 0,0 z"
       style="opacity:0.5;fill:#3daee9;fill-opacity:1;fill-rule:nonzero;stroke:none;stroke-width:0.2304;stroke-linecap:square;stroke-linejoin:round;stroke-miterlimit:4;stroke-dasharray:none;stroke-dashoffset:0;stroke-opacity:1" />
    <path
       sodipodi:nodetypes="ccssssc"
       inkscape:connector-curvature="0"
       id="normal-topleft-3"
       d="m 290.45,622.06397 c -2.97,0 -2.98,0 -2.98,2.97 0,0 0,0 0,0 h 2.95 c 0,0 0,0 0,0 v -2.94 c 0,0 0,0 0,0 z"
       class="ColorScheme-Highlight"
       style="opacity:1;fill:#147ab1;fill-opacity:1;fill-rule:nonzero;stroke:none;stroke-width:0.2304;stroke-linecap:square;stroke-linejoin:round;stroke-miterlimit:4;stroke-dasharray:none;stroke-dashoffset:0;stroke-opacity:1" />
  </g>
</svg>
