<?xml version="1.0" encoding="UTF-8" standalone="no"?>
<svg
   xmlns:dc="http://purl.org/dc/elements/1.1/"
   xmlns:cc="http://creativecommons.org/ns#"
   xmlns:rdf="http://www.w3.org/1999/02/22-rdf-syntax-ns#"
   xmlns:svg="http://www.w3.org/2000/svg"
   xmlns="http://www.w3.org/2000/svg"
   xmlns:sodipodi="http://sodipodi.sourceforge.net/DTD/sodipodi-0.dtd"
   xmlns:inkscape="http://www.inkscape.org/namespaces/inkscape"
   width="54"
   height="32"
   id="svg3613"
   version="1.1"
   sodipodi:docname="applications.svg"
   inkscape:version="1.0.2 (e86c870879, 2021-01-15)">
  <sodipodi:namedview
     pagecolor="#ffffff"
     bordercolor="#666666"
     borderopacity="1"
     objecttolerance="10"
     gridtolerance="10"
     guidetolerance="10"
     inkscape:pageopacity="0"
     inkscape:pageshadow="2"
     inkscape:window-width="1920"
     inkscape:window-height="1014"
     id="namedview12"
     showgrid="false"
     inkscape:zoom="10.341254"
     inkscape:cx="14.995062"
     inkscape:cy="-0.86416017"
     inkscape:window-x="0"
     inkscape:window-y="0"
     inkscape:window-maximized="1"
     inkscape:current-layer="svg3613"
     inkscape:document-rotation="0" />
  <metadata
     id="metadata13">
    <rdf:RDF>
      <cc:Work
         rdf:about="">
        <dc:format>image/svg+xml</dc:format>
        <dc:type
           rdf:resource="http://purl.org/dc/dcmitype/StillImage" />
        <dc:title />
      </cc:Work>
    </rdf:RDF>
  </metadata>
  <defs
     id="defs3615">
    <style
       type="text/css"
       id="current-color-scheme" />
  </defs>
  <g
     transform="matrix(1.0000029,0,0,1.000001,-420.71555,-516.79125)"
     id="22-22-applications-other">
    <rect
       style="opacity:0.01;fill:#000000;fill-opacity:0.00392157;stroke:none"
       id="rect3028"
       width="22"
       height="22"
       x="-7.1556997e-08"
       y="2.0000052"
       transform="matrix(0.99999706,0,0,0.99999899,420.71433,524.79072)" />
    <path
       style="fill:#000000;fill-opacity:1;stroke:none"
       d="m 423.71432,529.79072 v 6.99999 h 6.99998 v -6.99999 z m 8.99998,0 v 6.99999 h 6.99998 v -6.99999 z m -7.99998,1 h 4.99999 v 4.99999 h -4.99999 z m 8.99997,0 h 4.99999 v 4.99999 h -4.99999 z m -9.99997,7.99999 v 6.99999 h 6.99998 v -6.99999 z m 8.99998,0 v 6.99999 h 0.99999 4.99999 1 v -1 -4.99999 -1 h -1 -4.99999 z m -7.99998,1 h 4.99999 v 4.99999 h -4.99999 z m 8.99997,0 h 4.99999 v 4.99999 h -4.99999 z"
       id="rect4298"
       class="ColorScheme-Text" />
  </g>
  <g
     transform="matrix(1.0000028,0,0,1.0000009,-398.71551,-516.79118)"
     id="applications-other">
    <rect
       style="opacity:0.01;fill:#000000;fill-opacity:0.00392157;stroke:none"
       id="rect2994"
       width="32"
       height="32"
       x="-7.1557004e-08"
       y="-7.9999948"
       transform="matrix(0.99999706,0,0,0.99999899,420.71433,524.79072)" />
    <path
       style="fill:#000000;fill-opacity:1;stroke:none"
       d="m 424.71433,520.79075 v 9.99995 l 9.99995,10e-6 v -9.99994 z m 13.99994,2e-5 v 9.99994 l 9.99998,-10e-6 v -9.99995 z m -12.99995,0.99994 h 7.99998 v 7.99999 h -7.99998 z m 13.99996,0 h 7.99998 v 7.99999 h -7.99998 z m -14.99995,13 v 9.99998 l 9.99995,2e-5 v -9.99998 z m 13.99994,2e-5 v 9.99998 l 1.99999,-2e-5 h 5.99999 2 v -1.99998 -5.99999 -2.00001 h -2 -5.99999 z m -12.99995,0.99997 h 7.99998 v 7.99999 h -7.99998 z m 13.99996,0 h 7.99998 v 7.99999 h -7.99998 z"
       id="path2996"
       class="ColorScheme-Text" />
  </g>
</svg>
